G04 #@! TF.GenerationSoftware,KiCad,Pcbnew,(5.1.10-1-10_14)*
G04 #@! TF.CreationDate,2021-10-29T12:58:21+02:00*
G04 #@! TF.ProjectId,soj36_to_dip,736f6a33-365f-4746-9f5f-6469702e6b69,rev?*
G04 #@! TF.SameCoordinates,Original*
G04 #@! TF.FileFunction,Copper,L4,Bot*
G04 #@! TF.FilePolarity,Positive*
%FSLAX46Y46*%
G04 Gerber Fmt 4.6, Leading zero omitted, Abs format (unit mm)*
G04 Created by KiCad (PCBNEW (5.1.10-1-10_14)) date 2021-10-29 12:58:21*
%MOMM*%
%LPD*%
G01*
G04 APERTURE LIST*
G04 #@! TA.AperFunction,ComponentPad*
%ADD10O,1.600000X1.600000*%
G04 #@! TD*
G04 #@! TA.AperFunction,ComponentPad*
%ADD11R,1.600000X1.600000*%
G04 #@! TD*
G04 #@! TA.AperFunction,ViaPad*
%ADD12C,0.800000*%
G04 #@! TD*
G04 #@! TA.AperFunction,Conductor*
%ADD13C,0.250000*%
G04 #@! TD*
G04 APERTURE END LIST*
D10*
X162148600Y-63489400D03*
X146908600Y-101589400D03*
X162148600Y-66029400D03*
X146908600Y-99049400D03*
X162148600Y-68569400D03*
X146908600Y-96509400D03*
X162148600Y-71109400D03*
X146908600Y-93969400D03*
X162148600Y-73649400D03*
X146908600Y-91429400D03*
X162148600Y-76189400D03*
X146908600Y-88889400D03*
X162148600Y-78729400D03*
X146908600Y-86349400D03*
X162148600Y-81269400D03*
X146908600Y-83809400D03*
X162148600Y-83809400D03*
X146908600Y-81269400D03*
X162148600Y-86349400D03*
X146908600Y-78729400D03*
X162148600Y-88889400D03*
X146908600Y-76189400D03*
X162148600Y-91429400D03*
X146908600Y-73649400D03*
X162148600Y-93969400D03*
X146908600Y-71109400D03*
X162148600Y-96509400D03*
X146908600Y-68569400D03*
X162148600Y-99049400D03*
X146908600Y-66029400D03*
X162148600Y-101589400D03*
D11*
X146908600Y-63489400D03*
D12*
X158783600Y-72866288D03*
X157861000Y-75615800D03*
X161352784Y-87737583D03*
X160528000Y-82550000D03*
X153111200Y-75438000D03*
X154279600Y-86741000D03*
X152095200Y-90474800D03*
X157759400Y-81889600D03*
X151434800Y-83083400D03*
X155752800Y-90424000D03*
X152247600Y-69875400D03*
X156641800Y-77393800D03*
X154051000Y-71729600D03*
X157480000Y-79756000D03*
X149428200Y-96266000D03*
X159740600Y-98831400D03*
X149453600Y-67360800D03*
X158877000Y-63550800D03*
X151663400Y-63169800D03*
X160477200Y-84861400D03*
X158658669Y-85979000D03*
X155858625Y-85244400D03*
X156152415Y-87878011D03*
X153886433Y-83070422D03*
X153949400Y-78740000D03*
X157480000Y-90652600D03*
X151351979Y-92287532D03*
X151351979Y-91287519D03*
X152313925Y-76038810D03*
X151307799Y-89992199D03*
X152349200Y-77470000D03*
X151406136Y-88337936D03*
X151892000Y-79324200D03*
X151522452Y-87210980D03*
X157861000Y-70332600D03*
X150598878Y-86827528D03*
X156410988Y-74263972D03*
X151801990Y-93188813D03*
X154336444Y-80854837D03*
X155385610Y-84363332D03*
X148107400Y-77089000D03*
X148310600Y-74421998D03*
X150720970Y-74260620D03*
X150873518Y-73272312D03*
X152323529Y-72924972D03*
D13*
X149406712Y-63489400D02*
X158783600Y-72866288D01*
X146908600Y-63489400D02*
X149406712Y-63489400D01*
X146908600Y-66029400D02*
X150356464Y-66029400D01*
X150356464Y-66029400D02*
X157861000Y-73533936D01*
X157861000Y-73533936D02*
X157861000Y-75615800D01*
X160952785Y-88137582D02*
X160952785Y-90233585D01*
X160952785Y-90233585D02*
X162148600Y-91429400D01*
X161352784Y-87737583D02*
X160952785Y-88137582D01*
X163273601Y-92844399D02*
X162148600Y-93969400D01*
X163273601Y-83269399D02*
X163273601Y-92844399D01*
X162554202Y-82550000D02*
X163273601Y-83269399D01*
X160528000Y-82550000D02*
X162554202Y-82550000D01*
X160477200Y-94838000D02*
X160477200Y-84861400D01*
X162148600Y-96509400D02*
X160477200Y-94838000D01*
X162148600Y-99049400D02*
X158658669Y-95559469D01*
X158658669Y-95559469D02*
X158658669Y-85979000D01*
X146908600Y-68569400D02*
X152260053Y-68569400D01*
X157360189Y-73669536D02*
X157360189Y-74858408D01*
X152260053Y-68569400D02*
X157360189Y-73669536D01*
X157360189Y-74858408D02*
X155371914Y-76846683D01*
X155371914Y-76846683D02*
X155371914Y-81253896D01*
X156110612Y-84992413D02*
X155858625Y-85244400D01*
X156110612Y-81992594D02*
X156110612Y-84992413D01*
X155371914Y-81253896D02*
X156110612Y-81992594D01*
X162148600Y-73649400D02*
X156583626Y-79214374D01*
X156583626Y-85558408D02*
X156152415Y-85989619D01*
X156583626Y-79214374D02*
X156583626Y-85558408D01*
X156152415Y-85989619D02*
X156152415Y-87878011D01*
X153611434Y-79077966D02*
X153949400Y-78740000D01*
X153886433Y-83070422D02*
X153611434Y-82795423D01*
X153611434Y-82795423D02*
X153611434Y-79077966D01*
X157914801Y-90217799D02*
X157879999Y-90252601D01*
X157879999Y-90252601D02*
X157480000Y-90652600D01*
X160779459Y-81269400D02*
X157933659Y-84115200D01*
X157933659Y-84115200D02*
X157933659Y-86151601D01*
X162148600Y-81269400D02*
X160779459Y-81269400D01*
X157914801Y-86170459D02*
X157914801Y-90217799D01*
X157933659Y-86151601D02*
X157914801Y-86170459D01*
X152540805Y-92287532D02*
X151917664Y-92287532D01*
X157327427Y-86121422D02*
X157327427Y-88412412D01*
X162148600Y-78729400D02*
X157483648Y-83394352D01*
X155775314Y-89053023D02*
X152540805Y-92287532D01*
X157327427Y-88412412D02*
X156686816Y-89053023D01*
X157483648Y-83394352D02*
X157483648Y-85965201D01*
X151917664Y-92287532D02*
X151351979Y-92287532D01*
X157483648Y-85965201D02*
X157327427Y-86121422D01*
X156686816Y-89053023D02*
X155775314Y-89053023D01*
X156877416Y-85935022D02*
X156877416Y-88226012D01*
X157033637Y-85778801D02*
X156877416Y-85935022D01*
X152904407Y-91287519D02*
X151351979Y-91287519D01*
X157033637Y-81304363D02*
X157033637Y-85778801D01*
X162148600Y-76189400D02*
X157033637Y-81304363D01*
X155588914Y-88603012D02*
X152904407Y-91287519D01*
X156877416Y-88226012D02*
X156500416Y-88603012D01*
X156500416Y-88603012D02*
X155588914Y-88603012D01*
X153161423Y-88138575D02*
X151307799Y-89992199D01*
X152313925Y-76038810D02*
X153161423Y-76886308D01*
X153161423Y-76886308D02*
X153161423Y-88138575D01*
X151971821Y-88337936D02*
X151406136Y-88337936D01*
X152711412Y-87598345D02*
X151971821Y-88337936D01*
X152349200Y-77470000D02*
X152711412Y-77832212D01*
X152711412Y-77832212D02*
X152711412Y-87598345D01*
X152261401Y-86472031D02*
X151522452Y-87210980D01*
X152261401Y-79693601D02*
X152261401Y-86472031D01*
X151892000Y-79324200D02*
X152261401Y-79693601D01*
X158637800Y-71109400D02*
X162148600Y-71109400D01*
X157861000Y-70332600D02*
X158637800Y-71109400D01*
X150658999Y-82786199D02*
X151141598Y-82303600D01*
X151141598Y-82303600D02*
X151141598Y-76138133D01*
X150658999Y-86767407D02*
X150658999Y-82786199D01*
X151141598Y-76138133D02*
X153015759Y-74263972D01*
X153015759Y-74263972D02*
X156410988Y-74263972D01*
X150598878Y-86827528D02*
X150658999Y-86767407D01*
X160202577Y-101589400D02*
X151801990Y-93188813D01*
X162148600Y-101589400D02*
X160202577Y-101589400D01*
X154336444Y-80854837D02*
X155385610Y-81904003D01*
X155385610Y-81904003D02*
X155385610Y-84363332D01*
X146908600Y-81269400D02*
X148158200Y-80019800D01*
X148158200Y-77139800D02*
X148107400Y-77089000D01*
X148158200Y-80019800D02*
X148158200Y-77139800D01*
X149241616Y-81476384D02*
X149241616Y-75353014D01*
X146908600Y-83809400D02*
X149241616Y-81476384D01*
X149241616Y-75353014D02*
X148310600Y-74421998D01*
X149791565Y-75190025D02*
X150720970Y-74260620D01*
X149791565Y-81744401D02*
X149791565Y-75190025D01*
X146908600Y-86349400D02*
X149308966Y-83949034D01*
X149308966Y-83949034D02*
X149308966Y-82227000D01*
X149308966Y-82227000D02*
X149791565Y-81744401D01*
X146908600Y-88808391D02*
X149758977Y-85958014D01*
X150241576Y-75765333D02*
X151599739Y-74407170D01*
X150241576Y-81930801D02*
X150241576Y-75765333D01*
X151599739Y-74407170D02*
X151599739Y-73998533D01*
X149758977Y-82413400D02*
X150241576Y-81930801D01*
X151599739Y-73998533D02*
X150873518Y-73272312D01*
X146908600Y-88889400D02*
X146908600Y-88808391D01*
X149758977Y-85958014D02*
X149758977Y-82413400D01*
X149873876Y-88464124D02*
X149873876Y-86515340D01*
X149873876Y-86515340D02*
X150208988Y-86180228D01*
X150691587Y-75951733D02*
X152323529Y-74319791D01*
X150208988Y-82599799D02*
X150691587Y-82117200D01*
X150208988Y-86180228D02*
X150208988Y-82599799D01*
X146908600Y-91429400D02*
X149873876Y-88464124D01*
X150691587Y-82117200D02*
X150691587Y-75951733D01*
X152323529Y-74319791D02*
X152323529Y-72924972D01*
M02*
