%TF.GenerationSoftware,KiCad,Pcbnew,(6.0.11-0)*%
%TF.CreationDate,2023-06-06T19:27:01+02:00*%
%TF.ProjectId,soj36_to_dip,736f6a33-365f-4746-9f5f-6469702e6b69,rev?*%
%TF.SameCoordinates,Original*%
%TF.FileFunction,Drillmap*%
%TF.FilePolarity,Positive*%
%FSLAX45Y45*%
G04 Gerber Fmt 4.5, Leading zero omitted, Abs format (unit mm)*
G04 Created by KiCad (PCBNEW (6.0.11-0)) date 2023-06-06 19:27:01*
%MOMM*%
%LPD*%
G01*
G04 APERTURE LIST*
%ADD10C,0.050000*%
%ADD11C,0.200000*%
%ADD12C,0.040000*%
%ADD13C,0.080000*%
G04 APERTURE END LIST*
D10*
X14551660Y-10342880D02*
X14551660Y-6154420D01*
X16352520Y-10342880D02*
X14551660Y-10342880D01*
X16352520Y-6154420D02*
X16352520Y-10342880D01*
X14551660Y-6154420D02*
X16352520Y-6154420D01*
D11*
D12*
X14790740Y-7688900D02*
X14830740Y-7728900D01*
X14830740Y-7688900D02*
X14790740Y-7728900D01*
X14811060Y-7422200D02*
X14851060Y-7462200D01*
X14851060Y-7422200D02*
X14811060Y-7462200D01*
X14922820Y-9606600D02*
X14962820Y-9646600D01*
X14962820Y-9606600D02*
X14922820Y-9646600D01*
X14925360Y-6716080D02*
X14965360Y-6756080D01*
X14965360Y-6716080D02*
X14925360Y-6756080D01*
X15039888Y-8662753D02*
X15079888Y-8702753D01*
X15079888Y-8662753D02*
X15039888Y-8702753D01*
X15052097Y-7406062D02*
X15092097Y-7446062D01*
X15092097Y-7406062D02*
X15052097Y-7446062D01*
X15067352Y-7307231D02*
X15107352Y-7347231D01*
X15107352Y-7307231D02*
X15067352Y-7347231D01*
X15110780Y-8979220D02*
X15150780Y-9019220D01*
X15150780Y-8979220D02*
X15110780Y-9019220D01*
X15115198Y-9108752D02*
X15155198Y-9148752D01*
X15155198Y-9108752D02*
X15115198Y-9148752D01*
X15115198Y-9208753D02*
X15155198Y-9248753D01*
X15155198Y-9208753D02*
X15115198Y-9248753D01*
X15120614Y-8813794D02*
X15160614Y-8853794D01*
X15160614Y-8813794D02*
X15120614Y-8853794D01*
X15123480Y-8288340D02*
X15163480Y-8328340D01*
X15163480Y-8288340D02*
X15123480Y-8328340D01*
X15132245Y-8701098D02*
X15172245Y-8741098D01*
X15172245Y-8701098D02*
X15132245Y-8741098D01*
X15146340Y-6296980D02*
X15186340Y-6336980D01*
X15186340Y-6296980D02*
X15146340Y-6336980D01*
X15160199Y-9298881D02*
X15200199Y-9338881D01*
X15200199Y-9298881D02*
X15160199Y-9338881D01*
X15169200Y-7912420D02*
X15209200Y-7952420D01*
X15209200Y-7912420D02*
X15169200Y-7952420D01*
X15204760Y-6967540D02*
X15244760Y-7007540D01*
X15244760Y-6967540D02*
X15204760Y-7007540D01*
X15211392Y-7583881D02*
X15251392Y-7623881D01*
X15251392Y-7583881D02*
X15211392Y-7623881D01*
X15212353Y-7272497D02*
X15252353Y-7312497D01*
X15252353Y-7272497D02*
X15212353Y-7312497D01*
X15214920Y-7727000D02*
X15254920Y-7767000D01*
X15254920Y-7727000D02*
X15214920Y-7767000D01*
X15220000Y-9027480D02*
X15260000Y-9067480D01*
X15260000Y-9027480D02*
X15220000Y-9067480D01*
X15291120Y-7523800D02*
X15331120Y-7563800D01*
X15331120Y-7523800D02*
X15291120Y-7563800D01*
X15368643Y-8287042D02*
X15408643Y-8327042D01*
X15408643Y-8287042D02*
X15368643Y-8327042D01*
X15374940Y-7854000D02*
X15414940Y-7894000D01*
X15414940Y-7854000D02*
X15374940Y-7894000D01*
X15385100Y-7152960D02*
X15425100Y-7192960D01*
X15425100Y-7152960D02*
X15385100Y-7192960D01*
X15407960Y-8654100D02*
X15447960Y-8694100D01*
X15447960Y-8654100D02*
X15407960Y-8694100D01*
X15413644Y-8065484D02*
X15453644Y-8105484D01*
X15453644Y-8065484D02*
X15413644Y-8105484D01*
X15518561Y-8416333D02*
X15558561Y-8456333D01*
X15558561Y-8416333D02*
X15518561Y-8456333D01*
X15555280Y-9022400D02*
X15595280Y-9062400D01*
X15595280Y-9022400D02*
X15555280Y-9062400D01*
X15565862Y-8504440D02*
X15605862Y-8544440D01*
X15605862Y-8504440D02*
X15565862Y-8544440D01*
X15595241Y-8767801D02*
X15635241Y-8807801D01*
X15635241Y-8767801D02*
X15595241Y-8807801D01*
X15621099Y-7406397D02*
X15661099Y-7446397D01*
X15661099Y-7406397D02*
X15621099Y-7446397D01*
X15644180Y-7719380D02*
X15684180Y-7759380D01*
X15684180Y-7719380D02*
X15644180Y-7759380D01*
X15728000Y-7955600D02*
X15768000Y-7995600D01*
X15768000Y-7955600D02*
X15728000Y-7995600D01*
X15728000Y-9045260D02*
X15768000Y-9085260D01*
X15768000Y-9045260D02*
X15728000Y-9085260D01*
X15755940Y-8168960D02*
X15795940Y-8208960D01*
X15795940Y-8168960D02*
X15755940Y-8208960D01*
X15766100Y-7013260D02*
X15806100Y-7053260D01*
X15806100Y-7013260D02*
X15766100Y-7053260D01*
X15766100Y-7541580D02*
X15806100Y-7581580D01*
X15806100Y-7541580D02*
X15766100Y-7581580D01*
X15845867Y-8577900D02*
X15885867Y-8617900D01*
X15885867Y-8577900D02*
X15845867Y-8617900D01*
X15858360Y-7266629D02*
X15898360Y-7306629D01*
X15898360Y-7266629D02*
X15858360Y-7306629D01*
X15867700Y-6335080D02*
X15907700Y-6375080D01*
X15907700Y-6335080D02*
X15867700Y-6375080D01*
X15954060Y-9863140D02*
X15994060Y-9903140D01*
X15994060Y-9863140D02*
X15954060Y-9903140D01*
X16027720Y-8466140D02*
X16067720Y-8506140D01*
X16067720Y-8466140D02*
X16027720Y-8506140D01*
X16032800Y-8235000D02*
X16072800Y-8275000D01*
X16072800Y-8235000D02*
X16032800Y-8275000D01*
X16115278Y-8753758D02*
X16155278Y-8793758D01*
X16155278Y-8753758D02*
X16115278Y-8793758D01*
D13*
X14730860Y-6348940D02*
G75*
G03*
X14730860Y-6348940I-40000J0D01*
G01*
X14730860Y-6602940D02*
G75*
G03*
X14730860Y-6602940I-40000J0D01*
G01*
X14730860Y-6856940D02*
G75*
G03*
X14730860Y-6856940I-40000J0D01*
G01*
X14730860Y-7110940D02*
G75*
G03*
X14730860Y-7110940I-40000J0D01*
G01*
X14730860Y-7364940D02*
G75*
G03*
X14730860Y-7364940I-40000J0D01*
G01*
X14730860Y-7618940D02*
G75*
G03*
X14730860Y-7618940I-40000J0D01*
G01*
X14730860Y-7872940D02*
G75*
G03*
X14730860Y-7872940I-40000J0D01*
G01*
X14730860Y-8126940D02*
G75*
G03*
X14730860Y-8126940I-40000J0D01*
G01*
X14730860Y-8380940D02*
G75*
G03*
X14730860Y-8380940I-40000J0D01*
G01*
X14730860Y-8634940D02*
G75*
G03*
X14730860Y-8634940I-40000J0D01*
G01*
X14730860Y-8888940D02*
G75*
G03*
X14730860Y-8888940I-40000J0D01*
G01*
X14730860Y-9142940D02*
G75*
G03*
X14730860Y-9142940I-40000J0D01*
G01*
X14730860Y-9396940D02*
G75*
G03*
X14730860Y-9396940I-40000J0D01*
G01*
X14730860Y-9650940D02*
G75*
G03*
X14730860Y-9650940I-40000J0D01*
G01*
X14730860Y-9904940D02*
G75*
G03*
X14730860Y-9904940I-40000J0D01*
G01*
X14730860Y-10158940D02*
G75*
G03*
X14730860Y-10158940I-40000J0D01*
G01*
X16254860Y-6348940D02*
G75*
G03*
X16254860Y-6348940I-40000J0D01*
G01*
X16254860Y-6602940D02*
G75*
G03*
X16254860Y-6602940I-40000J0D01*
G01*
X16254860Y-6856940D02*
G75*
G03*
X16254860Y-6856940I-40000J0D01*
G01*
X16254860Y-7110940D02*
G75*
G03*
X16254860Y-7110940I-40000J0D01*
G01*
X16254860Y-7364940D02*
G75*
G03*
X16254860Y-7364940I-40000J0D01*
G01*
X16254860Y-7618940D02*
G75*
G03*
X16254860Y-7618940I-40000J0D01*
G01*
X16254860Y-7872940D02*
G75*
G03*
X16254860Y-7872940I-40000J0D01*
G01*
X16254860Y-8126940D02*
G75*
G03*
X16254860Y-8126940I-40000J0D01*
G01*
X16254860Y-8380940D02*
G75*
G03*
X16254860Y-8380940I-40000J0D01*
G01*
X16254860Y-8634940D02*
G75*
G03*
X16254860Y-8634940I-40000J0D01*
G01*
X16254860Y-8888940D02*
G75*
G03*
X16254860Y-8888940I-40000J0D01*
G01*
X16254860Y-9142940D02*
G75*
G03*
X16254860Y-9142940I-40000J0D01*
G01*
X16254860Y-9396940D02*
G75*
G03*
X16254860Y-9396940I-40000J0D01*
G01*
X16254860Y-9650940D02*
G75*
G03*
X16254860Y-9650940I-40000J0D01*
G01*
X16254860Y-9904940D02*
G75*
G03*
X16254860Y-9904940I-40000J0D01*
G01*
X16254860Y-10158940D02*
G75*
G03*
X16254860Y-10158940I-40000J0D01*
G01*
D11*
X14806779Y-10655856D02*
X14806779Y-10455856D01*
X14854398Y-10455856D01*
X14882969Y-10465380D01*
X14902017Y-10484428D01*
X14911541Y-10503475D01*
X14921065Y-10541570D01*
X14921065Y-10570142D01*
X14911541Y-10608237D01*
X14902017Y-10627285D01*
X14882969Y-10646332D01*
X14854398Y-10655856D01*
X14806779Y-10655856D01*
X15006779Y-10655856D02*
X15006779Y-10522523D01*
X15006779Y-10560618D02*
X15016303Y-10541570D01*
X15025827Y-10532047D01*
X15044874Y-10522523D01*
X15063922Y-10522523D01*
X15130588Y-10655856D02*
X15130588Y-10522523D01*
X15130588Y-10455856D02*
X15121065Y-10465380D01*
X15130588Y-10474904D01*
X15140112Y-10465380D01*
X15130588Y-10455856D01*
X15130588Y-10474904D01*
X15254398Y-10655856D02*
X15235350Y-10646332D01*
X15225827Y-10627285D01*
X15225827Y-10455856D01*
X15359160Y-10655856D02*
X15340112Y-10646332D01*
X15330588Y-10627285D01*
X15330588Y-10455856D01*
X15587731Y-10655856D02*
X15587731Y-10455856D01*
X15654398Y-10598713D01*
X15721065Y-10455856D01*
X15721065Y-10655856D01*
X15902017Y-10655856D02*
X15902017Y-10551094D01*
X15892493Y-10532047D01*
X15873446Y-10522523D01*
X15835350Y-10522523D01*
X15816303Y-10532047D01*
X15902017Y-10646332D02*
X15882969Y-10655856D01*
X15835350Y-10655856D01*
X15816303Y-10646332D01*
X15806779Y-10627285D01*
X15806779Y-10608237D01*
X15816303Y-10589190D01*
X15835350Y-10579666D01*
X15882969Y-10579666D01*
X15902017Y-10570142D01*
X15997255Y-10522523D02*
X15997255Y-10722523D01*
X15997255Y-10532047D02*
X16016303Y-10522523D01*
X16054398Y-10522523D01*
X16073446Y-10532047D01*
X16082969Y-10541570D01*
X16092493Y-10560618D01*
X16092493Y-10617761D01*
X16082969Y-10636809D01*
X16073446Y-10646332D01*
X16054398Y-10655856D01*
X16016303Y-10655856D01*
X15997255Y-10646332D01*
X16178208Y-10636809D02*
X16187731Y-10646332D01*
X16178208Y-10655856D01*
X16168684Y-10646332D01*
X16178208Y-10636809D01*
X16178208Y-10655856D01*
X16178208Y-10532047D02*
X16187731Y-10541570D01*
X16178208Y-10551094D01*
X16168684Y-10541570D01*
X16178208Y-10532047D01*
X16178208Y-10551094D01*
D12*
X14509160Y-10965380D02*
X14549160Y-11005380D01*
X14549160Y-10965380D02*
X14509160Y-11005380D01*
D11*
X14844874Y-10875856D02*
X14863922Y-10875856D01*
X14882969Y-10885380D01*
X14892493Y-10894904D01*
X14902017Y-10913951D01*
X14911541Y-10952047D01*
X14911541Y-10999666D01*
X14902017Y-11037761D01*
X14892493Y-11056809D01*
X14882969Y-11066332D01*
X14863922Y-11075856D01*
X14844874Y-11075856D01*
X14825827Y-11066332D01*
X14816303Y-11056809D01*
X14806779Y-11037761D01*
X14797255Y-10999666D01*
X14797255Y-10952047D01*
X14806779Y-10913951D01*
X14816303Y-10894904D01*
X14825827Y-10885380D01*
X14844874Y-10875856D01*
X14997255Y-11056809D02*
X15006779Y-11066332D01*
X14997255Y-11075856D01*
X14987731Y-11066332D01*
X14997255Y-11056809D01*
X14997255Y-11075856D01*
X15178208Y-10942523D02*
X15178208Y-11075856D01*
X15130588Y-10866332D02*
X15082969Y-11009190D01*
X15206779Y-11009190D01*
X15321065Y-10875856D02*
X15340112Y-10875856D01*
X15359160Y-10885380D01*
X15368684Y-10894904D01*
X15378208Y-10913951D01*
X15387731Y-10952047D01*
X15387731Y-10999666D01*
X15378208Y-11037761D01*
X15368684Y-11056809D01*
X15359160Y-11066332D01*
X15340112Y-11075856D01*
X15321065Y-11075856D01*
X15302017Y-11066332D01*
X15292493Y-11056809D01*
X15282969Y-11037761D01*
X15273446Y-10999666D01*
X15273446Y-10952047D01*
X15282969Y-10913951D01*
X15292493Y-10894904D01*
X15302017Y-10885380D01*
X15321065Y-10875856D01*
X15511541Y-10875856D02*
X15530588Y-10875856D01*
X15549636Y-10885380D01*
X15559160Y-10894904D01*
X15568684Y-10913951D01*
X15578208Y-10952047D01*
X15578208Y-10999666D01*
X15568684Y-11037761D01*
X15559160Y-11056809D01*
X15549636Y-11066332D01*
X15530588Y-11075856D01*
X15511541Y-11075856D01*
X15492493Y-11066332D01*
X15482969Y-11056809D01*
X15473446Y-11037761D01*
X15463922Y-10999666D01*
X15463922Y-10952047D01*
X15473446Y-10913951D01*
X15482969Y-10894904D01*
X15492493Y-10885380D01*
X15511541Y-10875856D01*
X15663922Y-11075856D02*
X15663922Y-10942523D01*
X15663922Y-10961570D02*
X15673446Y-10952047D01*
X15692493Y-10942523D01*
X15721065Y-10942523D01*
X15740112Y-10952047D01*
X15749636Y-10971094D01*
X15749636Y-11075856D01*
X15749636Y-10971094D02*
X15759160Y-10952047D01*
X15778208Y-10942523D01*
X15806779Y-10942523D01*
X15825827Y-10952047D01*
X15835350Y-10971094D01*
X15835350Y-11075856D01*
X15930588Y-11075856D02*
X15930588Y-10942523D01*
X15930588Y-10961570D02*
X15940112Y-10952047D01*
X15959160Y-10942523D01*
X15987731Y-10942523D01*
X16006779Y-10952047D01*
X16016303Y-10971094D01*
X16016303Y-11075856D01*
X16016303Y-10971094D02*
X16025827Y-10952047D01*
X16044874Y-10942523D01*
X16073446Y-10942523D01*
X16092493Y-10952047D01*
X16102017Y-10971094D01*
X16102017Y-11075856D01*
X16492493Y-10866332D02*
X16321065Y-11123475D01*
X16749636Y-10875856D02*
X16768684Y-10875856D01*
X16787731Y-10885380D01*
X16797255Y-10894904D01*
X16806779Y-10913951D01*
X16816303Y-10952047D01*
X16816303Y-10999666D01*
X16806779Y-11037761D01*
X16797255Y-11056809D01*
X16787731Y-11066332D01*
X16768684Y-11075856D01*
X16749636Y-11075856D01*
X16730588Y-11066332D01*
X16721065Y-11056809D01*
X16711541Y-11037761D01*
X16702017Y-10999666D01*
X16702017Y-10952047D01*
X16711541Y-10913951D01*
X16721065Y-10894904D01*
X16730588Y-10885380D01*
X16749636Y-10875856D01*
X16902017Y-11056809D02*
X16911541Y-11066332D01*
X16902017Y-11075856D01*
X16892493Y-11066332D01*
X16902017Y-11056809D01*
X16902017Y-11075856D01*
X17035350Y-10875856D02*
X17054398Y-10875856D01*
X17073446Y-10885380D01*
X17082970Y-10894904D01*
X17092493Y-10913951D01*
X17102017Y-10952047D01*
X17102017Y-10999666D01*
X17092493Y-11037761D01*
X17082970Y-11056809D01*
X17073446Y-11066332D01*
X17054398Y-11075856D01*
X17035350Y-11075856D01*
X17016303Y-11066332D01*
X17006779Y-11056809D01*
X16997255Y-11037761D01*
X16987731Y-10999666D01*
X16987731Y-10952047D01*
X16997255Y-10913951D01*
X17006779Y-10894904D01*
X17016303Y-10885380D01*
X17035350Y-10875856D01*
X17292493Y-11075856D02*
X17178208Y-11075856D01*
X17235350Y-11075856D02*
X17235350Y-10875856D01*
X17216303Y-10904428D01*
X17197255Y-10923475D01*
X17178208Y-10932999D01*
X17473446Y-10875856D02*
X17378208Y-10875856D01*
X17368684Y-10971094D01*
X17378208Y-10961570D01*
X17397255Y-10952047D01*
X17444874Y-10952047D01*
X17463922Y-10961570D01*
X17473446Y-10971094D01*
X17482970Y-10990142D01*
X17482970Y-11037761D01*
X17473446Y-11056809D01*
X17463922Y-11066332D01*
X17444874Y-11075856D01*
X17397255Y-11075856D01*
X17378208Y-11066332D01*
X17368684Y-11056809D01*
X17549636Y-10875856D02*
X17682970Y-10875856D01*
X17597255Y-11075856D01*
X17749636Y-10875856D02*
X17749636Y-10913951D01*
X17825827Y-10875856D02*
X17825827Y-10913951D01*
X18121065Y-11152047D02*
X18111541Y-11142523D01*
X18092493Y-11113951D01*
X18082970Y-11094904D01*
X18073446Y-11066332D01*
X18063922Y-11018713D01*
X18063922Y-10980618D01*
X18073446Y-10932999D01*
X18082970Y-10904428D01*
X18092493Y-10885380D01*
X18111541Y-10856809D01*
X18121065Y-10847285D01*
X18282970Y-10942523D02*
X18282970Y-11075856D01*
X18235350Y-10866332D02*
X18187731Y-11009190D01*
X18311541Y-11009190D01*
X18482970Y-10875856D02*
X18387731Y-10875856D01*
X18378208Y-10971094D01*
X18387731Y-10961570D01*
X18406779Y-10952047D01*
X18454398Y-10952047D01*
X18473446Y-10961570D01*
X18482970Y-10971094D01*
X18492493Y-10990142D01*
X18492493Y-11037761D01*
X18482970Y-11056809D01*
X18473446Y-11066332D01*
X18454398Y-11075856D01*
X18406779Y-11075856D01*
X18387731Y-11066332D01*
X18378208Y-11056809D01*
X18730589Y-11075856D02*
X18730589Y-10875856D01*
X18816303Y-11075856D02*
X18816303Y-10971094D01*
X18806779Y-10952047D01*
X18787731Y-10942523D01*
X18759160Y-10942523D01*
X18740112Y-10952047D01*
X18730589Y-10961570D01*
X18940112Y-11075856D02*
X18921065Y-11066332D01*
X18911541Y-11056809D01*
X18902017Y-11037761D01*
X18902017Y-10980618D01*
X18911541Y-10961570D01*
X18921065Y-10952047D01*
X18940112Y-10942523D01*
X18968684Y-10942523D01*
X18987731Y-10952047D01*
X18997255Y-10961570D01*
X19006779Y-10980618D01*
X19006779Y-11037761D01*
X18997255Y-11056809D01*
X18987731Y-11066332D01*
X18968684Y-11075856D01*
X18940112Y-11075856D01*
X19121065Y-11075856D02*
X19102017Y-11066332D01*
X19092493Y-11047285D01*
X19092493Y-10875856D01*
X19273446Y-11066332D02*
X19254398Y-11075856D01*
X19216303Y-11075856D01*
X19197255Y-11066332D01*
X19187731Y-11047285D01*
X19187731Y-10971094D01*
X19197255Y-10952047D01*
X19216303Y-10942523D01*
X19254398Y-10942523D01*
X19273446Y-10952047D01*
X19282970Y-10971094D01*
X19282970Y-10990142D01*
X19187731Y-11009190D01*
X19359160Y-11066332D02*
X19378208Y-11075856D01*
X19416303Y-11075856D01*
X19435350Y-11066332D01*
X19444874Y-11047285D01*
X19444874Y-11037761D01*
X19435350Y-11018713D01*
X19416303Y-11009190D01*
X19387731Y-11009190D01*
X19368684Y-10999666D01*
X19359160Y-10980618D01*
X19359160Y-10971094D01*
X19368684Y-10952047D01*
X19387731Y-10942523D01*
X19416303Y-10942523D01*
X19435350Y-10952047D01*
X19511541Y-11152047D02*
X19521065Y-11142523D01*
X19540112Y-11113951D01*
X19549636Y-11094904D01*
X19559160Y-11066332D01*
X19568684Y-11018713D01*
X19568684Y-10980618D01*
X19559160Y-10932999D01*
X19549636Y-10904428D01*
X19540112Y-10885380D01*
X19521065Y-10856809D01*
X19511541Y-10847285D01*
D13*
X14549160Y-11249380D02*
G75*
G03*
X14549160Y-11249380I-40000J0D01*
G01*
D11*
X14844874Y-11139856D02*
X14863922Y-11139856D01*
X14882969Y-11149380D01*
X14892493Y-11158904D01*
X14902017Y-11177951D01*
X14911541Y-11216047D01*
X14911541Y-11263666D01*
X14902017Y-11301761D01*
X14892493Y-11320808D01*
X14882969Y-11330332D01*
X14863922Y-11339856D01*
X14844874Y-11339856D01*
X14825827Y-11330332D01*
X14816303Y-11320808D01*
X14806779Y-11301761D01*
X14797255Y-11263666D01*
X14797255Y-11216047D01*
X14806779Y-11177951D01*
X14816303Y-11158904D01*
X14825827Y-11149380D01*
X14844874Y-11139856D01*
X14997255Y-11320808D02*
X15006779Y-11330332D01*
X14997255Y-11339856D01*
X14987731Y-11330332D01*
X14997255Y-11320808D01*
X14997255Y-11339856D01*
X15121065Y-11225570D02*
X15102017Y-11216047D01*
X15092493Y-11206523D01*
X15082969Y-11187475D01*
X15082969Y-11177951D01*
X15092493Y-11158904D01*
X15102017Y-11149380D01*
X15121065Y-11139856D01*
X15159160Y-11139856D01*
X15178208Y-11149380D01*
X15187731Y-11158904D01*
X15197255Y-11177951D01*
X15197255Y-11187475D01*
X15187731Y-11206523D01*
X15178208Y-11216047D01*
X15159160Y-11225570D01*
X15121065Y-11225570D01*
X15102017Y-11235094D01*
X15092493Y-11244618D01*
X15082969Y-11263666D01*
X15082969Y-11301761D01*
X15092493Y-11320808D01*
X15102017Y-11330332D01*
X15121065Y-11339856D01*
X15159160Y-11339856D01*
X15178208Y-11330332D01*
X15187731Y-11320808D01*
X15197255Y-11301761D01*
X15197255Y-11263666D01*
X15187731Y-11244618D01*
X15178208Y-11235094D01*
X15159160Y-11225570D01*
X15321065Y-11139856D02*
X15340112Y-11139856D01*
X15359160Y-11149380D01*
X15368684Y-11158904D01*
X15378208Y-11177951D01*
X15387731Y-11216047D01*
X15387731Y-11263666D01*
X15378208Y-11301761D01*
X15368684Y-11320808D01*
X15359160Y-11330332D01*
X15340112Y-11339856D01*
X15321065Y-11339856D01*
X15302017Y-11330332D01*
X15292493Y-11320808D01*
X15282969Y-11301761D01*
X15273446Y-11263666D01*
X15273446Y-11216047D01*
X15282969Y-11177951D01*
X15292493Y-11158904D01*
X15302017Y-11149380D01*
X15321065Y-11139856D01*
X15511541Y-11139856D02*
X15530588Y-11139856D01*
X15549636Y-11149380D01*
X15559160Y-11158904D01*
X15568684Y-11177951D01*
X15578208Y-11216047D01*
X15578208Y-11263666D01*
X15568684Y-11301761D01*
X15559160Y-11320808D01*
X15549636Y-11330332D01*
X15530588Y-11339856D01*
X15511541Y-11339856D01*
X15492493Y-11330332D01*
X15482969Y-11320808D01*
X15473446Y-11301761D01*
X15463922Y-11263666D01*
X15463922Y-11216047D01*
X15473446Y-11177951D01*
X15482969Y-11158904D01*
X15492493Y-11149380D01*
X15511541Y-11139856D01*
X15663922Y-11339856D02*
X15663922Y-11206523D01*
X15663922Y-11225570D02*
X15673446Y-11216047D01*
X15692493Y-11206523D01*
X15721065Y-11206523D01*
X15740112Y-11216047D01*
X15749636Y-11235094D01*
X15749636Y-11339856D01*
X15749636Y-11235094D02*
X15759160Y-11216047D01*
X15778208Y-11206523D01*
X15806779Y-11206523D01*
X15825827Y-11216047D01*
X15835350Y-11235094D01*
X15835350Y-11339856D01*
X15930588Y-11339856D02*
X15930588Y-11206523D01*
X15930588Y-11225570D02*
X15940112Y-11216047D01*
X15959160Y-11206523D01*
X15987731Y-11206523D01*
X16006779Y-11216047D01*
X16016303Y-11235094D01*
X16016303Y-11339856D01*
X16016303Y-11235094D02*
X16025827Y-11216047D01*
X16044874Y-11206523D01*
X16073446Y-11206523D01*
X16092493Y-11216047D01*
X16102017Y-11235094D01*
X16102017Y-11339856D01*
X16492493Y-11130332D02*
X16321065Y-11387475D01*
X16749636Y-11139856D02*
X16768684Y-11139856D01*
X16787731Y-11149380D01*
X16797255Y-11158904D01*
X16806779Y-11177951D01*
X16816303Y-11216047D01*
X16816303Y-11263666D01*
X16806779Y-11301761D01*
X16797255Y-11320808D01*
X16787731Y-11330332D01*
X16768684Y-11339856D01*
X16749636Y-11339856D01*
X16730588Y-11330332D01*
X16721065Y-11320808D01*
X16711541Y-11301761D01*
X16702017Y-11263666D01*
X16702017Y-11216047D01*
X16711541Y-11177951D01*
X16721065Y-11158904D01*
X16730588Y-11149380D01*
X16749636Y-11139856D01*
X16902017Y-11320808D02*
X16911541Y-11330332D01*
X16902017Y-11339856D01*
X16892493Y-11330332D01*
X16902017Y-11320808D01*
X16902017Y-11339856D01*
X17035350Y-11139856D02*
X17054398Y-11139856D01*
X17073446Y-11149380D01*
X17082970Y-11158904D01*
X17092493Y-11177951D01*
X17102017Y-11216047D01*
X17102017Y-11263666D01*
X17092493Y-11301761D01*
X17082970Y-11320808D01*
X17073446Y-11330332D01*
X17054398Y-11339856D01*
X17035350Y-11339856D01*
X17016303Y-11330332D01*
X17006779Y-11320808D01*
X16997255Y-11301761D01*
X16987731Y-11263666D01*
X16987731Y-11216047D01*
X16997255Y-11177951D01*
X17006779Y-11158904D01*
X17016303Y-11149380D01*
X17035350Y-11139856D01*
X17168684Y-11139856D02*
X17292493Y-11139856D01*
X17225827Y-11216047D01*
X17254398Y-11216047D01*
X17273446Y-11225570D01*
X17282970Y-11235094D01*
X17292493Y-11254142D01*
X17292493Y-11301761D01*
X17282970Y-11320808D01*
X17273446Y-11330332D01*
X17254398Y-11339856D01*
X17197255Y-11339856D01*
X17178208Y-11330332D01*
X17168684Y-11320808D01*
X17482970Y-11339856D02*
X17368684Y-11339856D01*
X17425827Y-11339856D02*
X17425827Y-11139856D01*
X17406779Y-11168428D01*
X17387731Y-11187475D01*
X17368684Y-11196999D01*
X17663922Y-11139856D02*
X17568684Y-11139856D01*
X17559160Y-11235094D01*
X17568684Y-11225570D01*
X17587731Y-11216047D01*
X17635350Y-11216047D01*
X17654398Y-11225570D01*
X17663922Y-11235094D01*
X17673446Y-11254142D01*
X17673446Y-11301761D01*
X17663922Y-11320808D01*
X17654398Y-11330332D01*
X17635350Y-11339856D01*
X17587731Y-11339856D01*
X17568684Y-11330332D01*
X17559160Y-11320808D01*
X17749636Y-11139856D02*
X17749636Y-11177951D01*
X17825827Y-11139856D02*
X17825827Y-11177951D01*
X18121065Y-11416047D02*
X18111541Y-11406523D01*
X18092493Y-11377951D01*
X18082970Y-11358904D01*
X18073446Y-11330332D01*
X18063922Y-11282713D01*
X18063922Y-11244618D01*
X18073446Y-11196999D01*
X18082970Y-11168428D01*
X18092493Y-11149380D01*
X18111541Y-11120809D01*
X18121065Y-11111285D01*
X18178208Y-11139856D02*
X18302017Y-11139856D01*
X18235350Y-11216047D01*
X18263922Y-11216047D01*
X18282970Y-11225570D01*
X18292493Y-11235094D01*
X18302017Y-11254142D01*
X18302017Y-11301761D01*
X18292493Y-11320808D01*
X18282970Y-11330332D01*
X18263922Y-11339856D01*
X18206779Y-11339856D01*
X18187731Y-11330332D01*
X18178208Y-11320808D01*
X18378208Y-11158904D02*
X18387731Y-11149380D01*
X18406779Y-11139856D01*
X18454398Y-11139856D01*
X18473446Y-11149380D01*
X18482970Y-11158904D01*
X18492493Y-11177951D01*
X18492493Y-11196999D01*
X18482970Y-11225570D01*
X18368684Y-11339856D01*
X18492493Y-11339856D01*
X18730589Y-11339856D02*
X18730589Y-11139856D01*
X18816303Y-11339856D02*
X18816303Y-11235094D01*
X18806779Y-11216047D01*
X18787731Y-11206523D01*
X18759160Y-11206523D01*
X18740112Y-11216047D01*
X18730589Y-11225570D01*
X18940112Y-11339856D02*
X18921065Y-11330332D01*
X18911541Y-11320808D01*
X18902017Y-11301761D01*
X18902017Y-11244618D01*
X18911541Y-11225570D01*
X18921065Y-11216047D01*
X18940112Y-11206523D01*
X18968684Y-11206523D01*
X18987731Y-11216047D01*
X18997255Y-11225570D01*
X19006779Y-11244618D01*
X19006779Y-11301761D01*
X18997255Y-11320808D01*
X18987731Y-11330332D01*
X18968684Y-11339856D01*
X18940112Y-11339856D01*
X19121065Y-11339856D02*
X19102017Y-11330332D01*
X19092493Y-11311285D01*
X19092493Y-11139856D01*
X19273446Y-11330332D02*
X19254398Y-11339856D01*
X19216303Y-11339856D01*
X19197255Y-11330332D01*
X19187731Y-11311285D01*
X19187731Y-11235094D01*
X19197255Y-11216047D01*
X19216303Y-11206523D01*
X19254398Y-11206523D01*
X19273446Y-11216047D01*
X19282970Y-11235094D01*
X19282970Y-11254142D01*
X19187731Y-11273189D01*
X19359160Y-11330332D02*
X19378208Y-11339856D01*
X19416303Y-11339856D01*
X19435350Y-11330332D01*
X19444874Y-11311285D01*
X19444874Y-11301761D01*
X19435350Y-11282713D01*
X19416303Y-11273189D01*
X19387731Y-11273189D01*
X19368684Y-11263666D01*
X19359160Y-11244618D01*
X19359160Y-11235094D01*
X19368684Y-11216047D01*
X19387731Y-11206523D01*
X19416303Y-11206523D01*
X19435350Y-11216047D01*
X19511541Y-11416047D02*
X19521065Y-11406523D01*
X19540112Y-11377951D01*
X19549636Y-11358904D01*
X19559160Y-11330332D01*
X19568684Y-11282713D01*
X19568684Y-11244618D01*
X19559160Y-11196999D01*
X19549636Y-11168428D01*
X19540112Y-11149380D01*
X19521065Y-11120809D01*
X19511541Y-11111285D01*
M02*
