%FSLAX45Y45*%
G04 Gerber Fmt 4.5, Leading zero omitted, Abs format (unit mm)*
G04 Created by KiCad (PCBNEW (5.1.10-1-10_14)) date 2021-10-29 12:58:24*
%MOMM*%
%LPD*%
G01*
G04 APERTURE LIST*
%TA.AperFunction,Profile*%
%ADD10C,0.050000*%
%TD*%
%ADD11C,0.200000*%
%ADD12C,0.300000*%
G04 APERTURE END LIST*
D10*
X14551660Y-10342880D02*
X14551660Y-6154420D01*
X16352520Y-10342880D02*
X14551660Y-10342880D01*
X16352520Y-6154420D02*
X16352520Y-10342880D01*
X14551660Y-6154420D02*
X16352520Y-6154420D01*
D11*
D12*
X14835588Y-10811094D02*
X14835588Y-10511094D01*
X14907017Y-10511094D01*
X14949874Y-10525380D01*
X14978446Y-10553952D01*
X14992731Y-10582523D01*
X15007017Y-10639666D01*
X15007017Y-10682523D01*
X14992731Y-10739666D01*
X14978446Y-10768237D01*
X14949874Y-10796809D01*
X14907017Y-10811094D01*
X14835588Y-10811094D01*
X15135588Y-10811094D02*
X15135588Y-10611094D01*
X15135588Y-10668237D02*
X15149874Y-10639666D01*
X15164160Y-10625380D01*
X15192731Y-10611094D01*
X15221303Y-10611094D01*
X15321303Y-10811094D02*
X15321303Y-10611094D01*
X15321303Y-10511094D02*
X15307017Y-10525380D01*
X15321303Y-10539666D01*
X15335588Y-10525380D01*
X15321303Y-10511094D01*
X15321303Y-10539666D01*
X15507017Y-10811094D02*
X15478446Y-10796809D01*
X15464160Y-10768237D01*
X15464160Y-10511094D01*
X15664160Y-10811094D02*
X15635588Y-10796809D01*
X15621303Y-10768237D01*
X15621303Y-10511094D01*
X16007017Y-10811094D02*
X16007017Y-10511094D01*
X16107017Y-10725380D01*
X16207017Y-10511094D01*
X16207017Y-10811094D01*
X16478446Y-10811094D02*
X16478446Y-10653952D01*
X16464160Y-10625380D01*
X16435588Y-10611094D01*
X16378446Y-10611094D01*
X16349874Y-10625380D01*
X16478446Y-10796809D02*
X16449874Y-10811094D01*
X16378446Y-10811094D01*
X16349874Y-10796809D01*
X16335588Y-10768237D01*
X16335588Y-10739666D01*
X16349874Y-10711094D01*
X16378446Y-10696809D01*
X16449874Y-10696809D01*
X16478446Y-10682523D01*
X16621303Y-10611094D02*
X16621303Y-10911094D01*
X16621303Y-10625380D02*
X16649874Y-10611094D01*
X16707017Y-10611094D01*
X16735588Y-10625380D01*
X16749874Y-10639666D01*
X16764160Y-10668237D01*
X16764160Y-10753952D01*
X16749874Y-10782523D01*
X16735588Y-10796809D01*
X16707017Y-10811094D01*
X16649874Y-10811094D01*
X16621303Y-10796809D01*
X16892731Y-10782523D02*
X16907017Y-10796809D01*
X16892731Y-10811094D01*
X16878446Y-10796809D01*
X16892731Y-10782523D01*
X16892731Y-10811094D01*
X16892731Y-10625380D02*
X16907017Y-10639666D01*
X16892731Y-10653952D01*
X16878446Y-10639666D01*
X16892731Y-10625380D01*
X16892731Y-10653952D01*
M02*
