%TF.GenerationSoftware,KiCad,Pcbnew,(6.0.11-0)*%
%TF.CreationDate,2023-06-06T19:27:01+02:00*%
%TF.ProjectId,soj36_to_dip,736f6a33-365f-4746-9f5f-6469702e6b69,rev?*%
%TF.SameCoordinates,Original*%
%TF.FileFunction,Drillmap*%
%TF.FilePolarity,Positive*%
%FSLAX45Y45*%
G04 Gerber Fmt 4.5, Leading zero omitted, Abs format (unit mm)*
G04 Created by KiCad (PCBNEW (6.0.11-0)) date 2023-06-06 19:27:01*
%MOMM*%
%LPD*%
G01*
G04 APERTURE LIST*
%ADD10C,0.050000*%
%ADD11C,0.200000*%
G04 APERTURE END LIST*
D10*
X14551660Y-10342880D02*
X14551660Y-6154420D01*
X16352520Y-10342880D02*
X14551660Y-10342880D01*
X16352520Y-6154420D02*
X16352520Y-10342880D01*
X14551660Y-6154420D02*
X16352520Y-6154420D01*
D11*
X14806779Y-10655856D02*
X14806779Y-10455856D01*
X14854398Y-10455856D01*
X14882969Y-10465380D01*
X14902017Y-10484428D01*
X14911541Y-10503475D01*
X14921065Y-10541570D01*
X14921065Y-10570142D01*
X14911541Y-10608237D01*
X14902017Y-10627285D01*
X14882969Y-10646332D01*
X14854398Y-10655856D01*
X14806779Y-10655856D01*
X15006779Y-10655856D02*
X15006779Y-10522523D01*
X15006779Y-10560618D02*
X15016303Y-10541570D01*
X15025827Y-10532047D01*
X15044874Y-10522523D01*
X15063922Y-10522523D01*
X15130588Y-10655856D02*
X15130588Y-10522523D01*
X15130588Y-10455856D02*
X15121065Y-10465380D01*
X15130588Y-10474904D01*
X15140112Y-10465380D01*
X15130588Y-10455856D01*
X15130588Y-10474904D01*
X15254398Y-10655856D02*
X15235350Y-10646332D01*
X15225827Y-10627285D01*
X15225827Y-10455856D01*
X15359160Y-10655856D02*
X15340112Y-10646332D01*
X15330588Y-10627285D01*
X15330588Y-10455856D01*
X15587731Y-10655856D02*
X15587731Y-10455856D01*
X15654398Y-10598713D01*
X15721065Y-10455856D01*
X15721065Y-10655856D01*
X15902017Y-10655856D02*
X15902017Y-10551094D01*
X15892493Y-10532047D01*
X15873446Y-10522523D01*
X15835350Y-10522523D01*
X15816303Y-10532047D01*
X15902017Y-10646332D02*
X15882969Y-10655856D01*
X15835350Y-10655856D01*
X15816303Y-10646332D01*
X15806779Y-10627285D01*
X15806779Y-10608237D01*
X15816303Y-10589190D01*
X15835350Y-10579666D01*
X15882969Y-10579666D01*
X15902017Y-10570142D01*
X15997255Y-10522523D02*
X15997255Y-10722523D01*
X15997255Y-10532047D02*
X16016303Y-10522523D01*
X16054398Y-10522523D01*
X16073446Y-10532047D01*
X16082969Y-10541570D01*
X16092493Y-10560618D01*
X16092493Y-10617761D01*
X16082969Y-10636809D01*
X16073446Y-10646332D01*
X16054398Y-10655856D01*
X16016303Y-10655856D01*
X15997255Y-10646332D01*
X16178208Y-10636809D02*
X16187731Y-10646332D01*
X16178208Y-10655856D01*
X16168684Y-10646332D01*
X16178208Y-10636809D01*
X16178208Y-10655856D01*
X16178208Y-10532047D02*
X16187731Y-10541570D01*
X16178208Y-10551094D01*
X16168684Y-10541570D01*
X16178208Y-10532047D01*
X16178208Y-10551094D01*
M02*
