%FSLAX45Y45*%
G04 Gerber Fmt 4.5, Leading zero omitted, Abs format (unit mm)*
G04 Created by KiCad (PCBNEW (5.1.10-1-10_14)) date 2021-10-29 12:58:24*
%MOMM*%
%LPD*%
G01*
G04 APERTURE LIST*
%TA.AperFunction,Profile*%
%ADD10C,0.050000*%
%TD*%
%ADD11C,0.200000*%
%ADD12C,0.300000*%
G04 APERTURE END LIST*
D10*
X14551660Y-10342880D02*
X14551660Y-6154420D01*
X16352520Y-10342880D02*
X14551660Y-10342880D01*
X16352520Y-6154420D02*
X16352520Y-10342880D01*
X14551660Y-6154420D02*
X16352520Y-6154420D01*
D11*
X14790740Y-7688900D02*
X14830740Y-7728900D01*
X14830740Y-7688900D02*
X14790740Y-7728900D01*
X14811060Y-7422200D02*
X14851060Y-7462200D01*
X14851060Y-7422200D02*
X14811060Y-7462200D01*
X14922820Y-9606600D02*
X14962820Y-9646600D01*
X14962820Y-9606600D02*
X14922820Y-9646600D01*
X14925360Y-6716080D02*
X14965360Y-6756080D01*
X14965360Y-6716080D02*
X14925360Y-6756080D01*
X15039888Y-8662753D02*
X15079888Y-8702753D01*
X15079888Y-8662753D02*
X15039888Y-8702753D01*
X15052097Y-7406062D02*
X15092097Y-7446062D01*
X15092097Y-7406062D02*
X15052097Y-7446062D01*
X15067352Y-7307231D02*
X15107352Y-7347231D01*
X15107352Y-7307231D02*
X15067352Y-7347231D01*
X15110780Y-8979220D02*
X15150780Y-9019220D01*
X15150780Y-8979220D02*
X15110780Y-9019220D01*
X15115198Y-9108752D02*
X15155198Y-9148752D01*
X15155198Y-9108752D02*
X15115198Y-9148752D01*
X15115198Y-9208753D02*
X15155198Y-9248753D01*
X15155198Y-9208753D02*
X15115198Y-9248753D01*
X15120614Y-8813794D02*
X15160614Y-8853794D01*
X15160614Y-8813794D02*
X15120614Y-8853794D01*
X15123480Y-8288340D02*
X15163480Y-8328340D01*
X15163480Y-8288340D02*
X15123480Y-8328340D01*
X15132245Y-8701098D02*
X15172245Y-8741098D01*
X15172245Y-8701098D02*
X15132245Y-8741098D01*
X15146340Y-6296980D02*
X15186340Y-6336980D01*
X15186340Y-6296980D02*
X15146340Y-6336980D01*
X15160199Y-9298881D02*
X15200199Y-9338881D01*
X15200199Y-9298881D02*
X15160199Y-9338881D01*
X15169200Y-7912420D02*
X15209200Y-7952420D01*
X15209200Y-7912420D02*
X15169200Y-7952420D01*
X15189520Y-9027480D02*
X15229520Y-9067480D01*
X15229520Y-9027480D02*
X15189520Y-9067480D01*
X15204760Y-6967540D02*
X15244760Y-7007540D01*
X15244760Y-6967540D02*
X15204760Y-7007540D01*
X15211392Y-7583881D02*
X15251392Y-7623881D01*
X15251392Y-7583881D02*
X15211392Y-7623881D01*
X15212353Y-7272497D02*
X15252353Y-7312497D01*
X15252353Y-7272497D02*
X15212353Y-7312497D01*
X15214920Y-7727000D02*
X15254920Y-7767000D01*
X15254920Y-7727000D02*
X15214920Y-7767000D01*
X15291120Y-7523800D02*
X15331120Y-7563800D01*
X15331120Y-7523800D02*
X15291120Y-7563800D01*
X15368643Y-8287042D02*
X15408643Y-8327042D01*
X15408643Y-8287042D02*
X15368643Y-8327042D01*
X15374940Y-7854000D02*
X15414940Y-7894000D01*
X15414940Y-7854000D02*
X15374940Y-7894000D01*
X15385100Y-7152960D02*
X15425100Y-7192960D01*
X15425100Y-7152960D02*
X15385100Y-7192960D01*
X15407960Y-8654100D02*
X15447960Y-8694100D01*
X15447960Y-8654100D02*
X15407960Y-8694100D01*
X15413644Y-8065484D02*
X15453644Y-8105484D01*
X15453644Y-8065484D02*
X15413644Y-8105484D01*
X15518561Y-8416333D02*
X15558561Y-8456333D01*
X15558561Y-8416333D02*
X15518561Y-8456333D01*
X15555280Y-9022400D02*
X15595280Y-9062400D01*
X15595280Y-9022400D02*
X15555280Y-9062400D01*
X15565862Y-8504440D02*
X15605862Y-8544440D01*
X15605862Y-8504440D02*
X15565862Y-8544440D01*
X15595241Y-8767801D02*
X15635241Y-8807801D01*
X15635241Y-8767801D02*
X15595241Y-8807801D01*
X15621099Y-7406397D02*
X15661099Y-7446397D01*
X15661099Y-7406397D02*
X15621099Y-7446397D01*
X15644180Y-7719380D02*
X15684180Y-7759380D01*
X15684180Y-7719380D02*
X15644180Y-7759380D01*
X15728000Y-7955600D02*
X15768000Y-7995600D01*
X15768000Y-7955600D02*
X15728000Y-7995600D01*
X15728000Y-9045260D02*
X15768000Y-9085260D01*
X15768000Y-9045260D02*
X15728000Y-9085260D01*
X15755940Y-8168960D02*
X15795940Y-8208960D01*
X15795940Y-8168960D02*
X15755940Y-8208960D01*
X15766100Y-7013260D02*
X15806100Y-7053260D01*
X15806100Y-7013260D02*
X15766100Y-7053260D01*
X15766100Y-7541580D02*
X15806100Y-7581580D01*
X15806100Y-7541580D02*
X15766100Y-7581580D01*
X15845867Y-8577900D02*
X15885867Y-8617900D01*
X15885867Y-8577900D02*
X15845867Y-8617900D01*
X15858360Y-7266629D02*
X15898360Y-7306629D01*
X15898360Y-7266629D02*
X15858360Y-7306629D01*
X15867700Y-6335080D02*
X15907700Y-6375080D01*
X15907700Y-6335080D02*
X15867700Y-6375080D01*
X15954060Y-9863140D02*
X15994060Y-9903140D01*
X15994060Y-9863140D02*
X15954060Y-9903140D01*
X16027720Y-8466140D02*
X16067720Y-8506140D01*
X16067720Y-8466140D02*
X16027720Y-8506140D01*
X16032800Y-8235000D02*
X16072800Y-8275000D01*
X16072800Y-8235000D02*
X16032800Y-8275000D01*
X16115278Y-8753758D02*
X16155278Y-8793758D01*
X16155278Y-8753758D02*
X16115278Y-8793758D01*
X14730860Y-6348940D02*
G75*
G03*
X14730860Y-6348940I-40000J0D01*
G01*
X14730860Y-6602940D02*
G75*
G03*
X14730860Y-6602940I-40000J0D01*
G01*
X14730860Y-6856940D02*
G75*
G03*
X14730860Y-6856940I-40000J0D01*
G01*
X14730860Y-7110940D02*
G75*
G03*
X14730860Y-7110940I-40000J0D01*
G01*
X14730860Y-7364940D02*
G75*
G03*
X14730860Y-7364940I-40000J0D01*
G01*
X14730860Y-7618940D02*
G75*
G03*
X14730860Y-7618940I-40000J0D01*
G01*
X14730860Y-7872940D02*
G75*
G03*
X14730860Y-7872940I-40000J0D01*
G01*
X14730860Y-8126940D02*
G75*
G03*
X14730860Y-8126940I-40000J0D01*
G01*
X14730860Y-8380940D02*
G75*
G03*
X14730860Y-8380940I-40000J0D01*
G01*
X14730860Y-8634940D02*
G75*
G03*
X14730860Y-8634940I-40000J0D01*
G01*
X14730860Y-8888940D02*
G75*
G03*
X14730860Y-8888940I-40000J0D01*
G01*
X14730860Y-9142940D02*
G75*
G03*
X14730860Y-9142940I-40000J0D01*
G01*
X14730860Y-9396940D02*
G75*
G03*
X14730860Y-9396940I-40000J0D01*
G01*
X14730860Y-9650940D02*
G75*
G03*
X14730860Y-9650940I-40000J0D01*
G01*
X14730860Y-9904940D02*
G75*
G03*
X14730860Y-9904940I-40000J0D01*
G01*
X14730860Y-10158940D02*
G75*
G03*
X14730860Y-10158940I-40000J0D01*
G01*
X16254860Y-6348940D02*
G75*
G03*
X16254860Y-6348940I-40000J0D01*
G01*
X16254860Y-6602940D02*
G75*
G03*
X16254860Y-6602940I-40000J0D01*
G01*
X16254860Y-6856940D02*
G75*
G03*
X16254860Y-6856940I-40000J0D01*
G01*
X16254860Y-7110940D02*
G75*
G03*
X16254860Y-7110940I-40000J0D01*
G01*
X16254860Y-7364940D02*
G75*
G03*
X16254860Y-7364940I-40000J0D01*
G01*
X16254860Y-7618940D02*
G75*
G03*
X16254860Y-7618940I-40000J0D01*
G01*
X16254860Y-7872940D02*
G75*
G03*
X16254860Y-7872940I-40000J0D01*
G01*
X16254860Y-8126940D02*
G75*
G03*
X16254860Y-8126940I-40000J0D01*
G01*
X16254860Y-8380940D02*
G75*
G03*
X16254860Y-8380940I-40000J0D01*
G01*
X16254860Y-8634940D02*
G75*
G03*
X16254860Y-8634940I-40000J0D01*
G01*
X16254860Y-8888940D02*
G75*
G03*
X16254860Y-8888940I-40000J0D01*
G01*
X16254860Y-9142940D02*
G75*
G03*
X16254860Y-9142940I-40000J0D01*
G01*
X16254860Y-9396940D02*
G75*
G03*
X16254860Y-9396940I-40000J0D01*
G01*
X16254860Y-9650940D02*
G75*
G03*
X16254860Y-9650940I-40000J0D01*
G01*
X16254860Y-9904940D02*
G75*
G03*
X16254860Y-9904940I-40000J0D01*
G01*
X16254860Y-10158940D02*
G75*
G03*
X16254860Y-10158940I-40000J0D01*
G01*
D12*
X14835588Y-10811094D02*
X14835588Y-10511094D01*
X14907017Y-10511094D01*
X14949874Y-10525380D01*
X14978446Y-10553952D01*
X14992731Y-10582523D01*
X15007017Y-10639666D01*
X15007017Y-10682523D01*
X14992731Y-10739666D01*
X14978446Y-10768237D01*
X14949874Y-10796809D01*
X14907017Y-10811094D01*
X14835588Y-10811094D01*
X15135588Y-10811094D02*
X15135588Y-10611094D01*
X15135588Y-10668237D02*
X15149874Y-10639666D01*
X15164160Y-10625380D01*
X15192731Y-10611094D01*
X15221303Y-10611094D01*
X15321303Y-10811094D02*
X15321303Y-10611094D01*
X15321303Y-10511094D02*
X15307017Y-10525380D01*
X15321303Y-10539666D01*
X15335588Y-10525380D01*
X15321303Y-10511094D01*
X15321303Y-10539666D01*
X15507017Y-10811094D02*
X15478446Y-10796809D01*
X15464160Y-10768237D01*
X15464160Y-10511094D01*
X15664160Y-10811094D02*
X15635588Y-10796809D01*
X15621303Y-10768237D01*
X15621303Y-10511094D01*
X16007017Y-10811094D02*
X16007017Y-10511094D01*
X16107017Y-10725380D01*
X16207017Y-10511094D01*
X16207017Y-10811094D01*
X16478446Y-10811094D02*
X16478446Y-10653952D01*
X16464160Y-10625380D01*
X16435588Y-10611094D01*
X16378446Y-10611094D01*
X16349874Y-10625380D01*
X16478446Y-10796809D02*
X16449874Y-10811094D01*
X16378446Y-10811094D01*
X16349874Y-10796809D01*
X16335588Y-10768237D01*
X16335588Y-10739666D01*
X16349874Y-10711094D01*
X16378446Y-10696809D01*
X16449874Y-10696809D01*
X16478446Y-10682523D01*
X16621303Y-10611094D02*
X16621303Y-10911094D01*
X16621303Y-10625380D02*
X16649874Y-10611094D01*
X16707017Y-10611094D01*
X16735588Y-10625380D01*
X16749874Y-10639666D01*
X16764160Y-10668237D01*
X16764160Y-10753952D01*
X16749874Y-10782523D01*
X16735588Y-10796809D01*
X16707017Y-10811094D01*
X16649874Y-10811094D01*
X16621303Y-10796809D01*
X16892731Y-10782523D02*
X16907017Y-10796809D01*
X16892731Y-10811094D01*
X16878446Y-10796809D01*
X16892731Y-10782523D01*
X16892731Y-10811094D01*
X16892731Y-10625380D02*
X16907017Y-10639666D01*
X16892731Y-10653952D01*
X16878446Y-10639666D01*
X16892731Y-10625380D01*
X16892731Y-10653952D01*
X14509160Y-11285380D02*
X14549160Y-11325380D01*
X14549160Y-11285380D02*
X14509160Y-11325380D01*
X14892731Y-11141094D02*
X14921303Y-11141094D01*
X14949874Y-11155380D01*
X14964160Y-11169666D01*
X14978446Y-11198237D01*
X14992731Y-11255380D01*
X14992731Y-11326809D01*
X14978446Y-11383951D01*
X14964160Y-11412523D01*
X14949874Y-11426809D01*
X14921303Y-11441094D01*
X14892731Y-11441094D01*
X14864160Y-11426809D01*
X14849874Y-11412523D01*
X14835588Y-11383951D01*
X14821303Y-11326809D01*
X14821303Y-11255380D01*
X14835588Y-11198237D01*
X14849874Y-11169666D01*
X14864160Y-11155380D01*
X14892731Y-11141094D01*
X15121303Y-11412523D02*
X15135588Y-11426809D01*
X15121303Y-11441094D01*
X15107017Y-11426809D01*
X15121303Y-11412523D01*
X15121303Y-11441094D01*
X15392731Y-11241094D02*
X15392731Y-11441094D01*
X15321303Y-11126809D02*
X15249874Y-11341094D01*
X15435588Y-11341094D01*
X15607017Y-11141094D02*
X15635588Y-11141094D01*
X15664160Y-11155380D01*
X15678446Y-11169666D01*
X15692731Y-11198237D01*
X15707017Y-11255380D01*
X15707017Y-11326809D01*
X15692731Y-11383951D01*
X15678446Y-11412523D01*
X15664160Y-11426809D01*
X15635588Y-11441094D01*
X15607017Y-11441094D01*
X15578446Y-11426809D01*
X15564160Y-11412523D01*
X15549874Y-11383951D01*
X15535588Y-11326809D01*
X15535588Y-11255380D01*
X15549874Y-11198237D01*
X15564160Y-11169666D01*
X15578446Y-11155380D01*
X15607017Y-11141094D01*
X15892731Y-11141094D02*
X15921303Y-11141094D01*
X15949874Y-11155380D01*
X15964160Y-11169666D01*
X15978446Y-11198237D01*
X15992731Y-11255380D01*
X15992731Y-11326809D01*
X15978446Y-11383951D01*
X15964160Y-11412523D01*
X15949874Y-11426809D01*
X15921303Y-11441094D01*
X15892731Y-11441094D01*
X15864160Y-11426809D01*
X15849874Y-11412523D01*
X15835588Y-11383951D01*
X15821303Y-11326809D01*
X15821303Y-11255380D01*
X15835588Y-11198237D01*
X15849874Y-11169666D01*
X15864160Y-11155380D01*
X15892731Y-11141094D01*
X16121303Y-11441094D02*
X16121303Y-11241094D01*
X16121303Y-11269666D02*
X16135588Y-11255380D01*
X16164160Y-11241094D01*
X16207017Y-11241094D01*
X16235588Y-11255380D01*
X16249874Y-11283951D01*
X16249874Y-11441094D01*
X16249874Y-11283951D02*
X16264160Y-11255380D01*
X16292731Y-11241094D01*
X16335588Y-11241094D01*
X16364160Y-11255380D01*
X16378446Y-11283951D01*
X16378446Y-11441094D01*
X16521303Y-11441094D02*
X16521303Y-11241094D01*
X16521303Y-11269666D02*
X16535588Y-11255380D01*
X16564160Y-11241094D01*
X16607017Y-11241094D01*
X16635588Y-11255380D01*
X16649874Y-11283951D01*
X16649874Y-11441094D01*
X16649874Y-11283951D02*
X16664160Y-11255380D01*
X16692731Y-11241094D01*
X16735588Y-11241094D01*
X16764160Y-11255380D01*
X16778446Y-11283951D01*
X16778446Y-11441094D01*
X17364160Y-11126809D02*
X17107017Y-11512523D01*
X17749874Y-11141094D02*
X17778446Y-11141094D01*
X17807017Y-11155380D01*
X17821303Y-11169666D01*
X17835588Y-11198237D01*
X17849874Y-11255380D01*
X17849874Y-11326809D01*
X17835588Y-11383951D01*
X17821303Y-11412523D01*
X17807017Y-11426809D01*
X17778446Y-11441094D01*
X17749874Y-11441094D01*
X17721303Y-11426809D01*
X17707017Y-11412523D01*
X17692731Y-11383951D01*
X17678446Y-11326809D01*
X17678446Y-11255380D01*
X17692731Y-11198237D01*
X17707017Y-11169666D01*
X17721303Y-11155380D01*
X17749874Y-11141094D01*
X17978446Y-11412523D02*
X17992731Y-11426809D01*
X17978446Y-11441094D01*
X17964160Y-11426809D01*
X17978446Y-11412523D01*
X17978446Y-11441094D01*
X18178446Y-11141094D02*
X18207017Y-11141094D01*
X18235588Y-11155380D01*
X18249874Y-11169666D01*
X18264160Y-11198237D01*
X18278446Y-11255380D01*
X18278446Y-11326809D01*
X18264160Y-11383951D01*
X18249874Y-11412523D01*
X18235588Y-11426809D01*
X18207017Y-11441094D01*
X18178446Y-11441094D01*
X18149874Y-11426809D01*
X18135588Y-11412523D01*
X18121303Y-11383951D01*
X18107017Y-11326809D01*
X18107017Y-11255380D01*
X18121303Y-11198237D01*
X18135588Y-11169666D01*
X18149874Y-11155380D01*
X18178446Y-11141094D01*
X18564160Y-11441094D02*
X18392731Y-11441094D01*
X18478446Y-11441094D02*
X18478446Y-11141094D01*
X18449874Y-11183952D01*
X18421303Y-11212523D01*
X18392731Y-11226809D01*
X18835588Y-11141094D02*
X18692731Y-11141094D01*
X18678446Y-11283951D01*
X18692731Y-11269666D01*
X18721303Y-11255380D01*
X18792731Y-11255380D01*
X18821303Y-11269666D01*
X18835588Y-11283951D01*
X18849874Y-11312523D01*
X18849874Y-11383951D01*
X18835588Y-11412523D01*
X18821303Y-11426809D01*
X18792731Y-11441094D01*
X18721303Y-11441094D01*
X18692731Y-11426809D01*
X18678446Y-11412523D01*
X18949874Y-11141094D02*
X19149874Y-11141094D01*
X19021303Y-11441094D01*
X19249874Y-11141094D02*
X19249874Y-11198237D01*
X19364160Y-11141094D02*
X19364160Y-11198237D01*
X19807017Y-11555380D02*
X19792731Y-11541094D01*
X19764160Y-11498237D01*
X19749874Y-11469666D01*
X19735588Y-11426809D01*
X19721303Y-11355380D01*
X19721303Y-11298237D01*
X19735588Y-11226809D01*
X19749874Y-11183952D01*
X19764160Y-11155380D01*
X19792731Y-11112523D01*
X19807017Y-11098237D01*
X20049874Y-11241094D02*
X20049874Y-11441094D01*
X19978446Y-11126809D02*
X19907017Y-11341094D01*
X20092731Y-11341094D01*
X20349874Y-11141094D02*
X20207017Y-11141094D01*
X20192731Y-11283951D01*
X20207017Y-11269666D01*
X20235588Y-11255380D01*
X20307017Y-11255380D01*
X20335588Y-11269666D01*
X20349874Y-11283951D01*
X20364160Y-11312523D01*
X20364160Y-11383951D01*
X20349874Y-11412523D01*
X20335588Y-11426809D01*
X20307017Y-11441094D01*
X20235588Y-11441094D01*
X20207017Y-11426809D01*
X20192731Y-11412523D01*
X20721303Y-11441094D02*
X20721303Y-11141094D01*
X20849874Y-11441094D02*
X20849874Y-11283951D01*
X20835588Y-11255380D01*
X20807017Y-11241094D01*
X20764160Y-11241094D01*
X20735588Y-11255380D01*
X20721303Y-11269666D01*
X21035588Y-11441094D02*
X21007017Y-11426809D01*
X20992731Y-11412523D01*
X20978446Y-11383951D01*
X20978446Y-11298237D01*
X20992731Y-11269666D01*
X21007017Y-11255380D01*
X21035588Y-11241094D01*
X21078446Y-11241094D01*
X21107017Y-11255380D01*
X21121303Y-11269666D01*
X21135588Y-11298237D01*
X21135588Y-11383951D01*
X21121303Y-11412523D01*
X21107017Y-11426809D01*
X21078446Y-11441094D01*
X21035588Y-11441094D01*
X21307017Y-11441094D02*
X21278446Y-11426809D01*
X21264160Y-11398237D01*
X21264160Y-11141094D01*
X21535588Y-11426809D02*
X21507017Y-11441094D01*
X21449874Y-11441094D01*
X21421303Y-11426809D01*
X21407017Y-11398237D01*
X21407017Y-11283951D01*
X21421303Y-11255380D01*
X21449874Y-11241094D01*
X21507017Y-11241094D01*
X21535588Y-11255380D01*
X21549874Y-11283951D01*
X21549874Y-11312523D01*
X21407017Y-11341094D01*
X21664160Y-11426809D02*
X21692731Y-11441094D01*
X21749874Y-11441094D01*
X21778446Y-11426809D01*
X21792731Y-11398237D01*
X21792731Y-11383951D01*
X21778446Y-11355380D01*
X21749874Y-11341094D01*
X21707017Y-11341094D01*
X21678446Y-11326809D01*
X21664160Y-11298237D01*
X21664160Y-11283951D01*
X21678446Y-11255380D01*
X21707017Y-11241094D01*
X21749874Y-11241094D01*
X21778446Y-11255380D01*
X21892731Y-11555380D02*
X21907017Y-11541094D01*
X21935588Y-11498237D01*
X21949874Y-11469666D01*
X21964160Y-11426809D01*
X21978446Y-11355380D01*
X21978446Y-11298237D01*
X21964160Y-11226809D01*
X21949874Y-11183952D01*
X21935588Y-11155380D01*
X21907017Y-11112523D01*
X21892731Y-11098237D01*
X14549160Y-11701380D02*
G75*
G03*
X14549160Y-11701380I-40000J0D01*
G01*
X14892731Y-11537094D02*
X14921303Y-11537094D01*
X14949874Y-11551380D01*
X14964160Y-11565666D01*
X14978446Y-11594237D01*
X14992731Y-11651380D01*
X14992731Y-11722809D01*
X14978446Y-11779951D01*
X14964160Y-11808523D01*
X14949874Y-11822809D01*
X14921303Y-11837094D01*
X14892731Y-11837094D01*
X14864160Y-11822809D01*
X14849874Y-11808523D01*
X14835588Y-11779951D01*
X14821303Y-11722809D01*
X14821303Y-11651380D01*
X14835588Y-11594237D01*
X14849874Y-11565666D01*
X14864160Y-11551380D01*
X14892731Y-11537094D01*
X15121303Y-11808523D02*
X15135588Y-11822809D01*
X15121303Y-11837094D01*
X15107017Y-11822809D01*
X15121303Y-11808523D01*
X15121303Y-11837094D01*
X15307017Y-11665666D02*
X15278446Y-11651380D01*
X15264160Y-11637094D01*
X15249874Y-11608523D01*
X15249874Y-11594237D01*
X15264160Y-11565666D01*
X15278446Y-11551380D01*
X15307017Y-11537094D01*
X15364160Y-11537094D01*
X15392731Y-11551380D01*
X15407017Y-11565666D01*
X15421303Y-11594237D01*
X15421303Y-11608523D01*
X15407017Y-11637094D01*
X15392731Y-11651380D01*
X15364160Y-11665666D01*
X15307017Y-11665666D01*
X15278446Y-11679951D01*
X15264160Y-11694237D01*
X15249874Y-11722809D01*
X15249874Y-11779951D01*
X15264160Y-11808523D01*
X15278446Y-11822809D01*
X15307017Y-11837094D01*
X15364160Y-11837094D01*
X15392731Y-11822809D01*
X15407017Y-11808523D01*
X15421303Y-11779951D01*
X15421303Y-11722809D01*
X15407017Y-11694237D01*
X15392731Y-11679951D01*
X15364160Y-11665666D01*
X15607017Y-11537094D02*
X15635588Y-11537094D01*
X15664160Y-11551380D01*
X15678446Y-11565666D01*
X15692731Y-11594237D01*
X15707017Y-11651380D01*
X15707017Y-11722809D01*
X15692731Y-11779951D01*
X15678446Y-11808523D01*
X15664160Y-11822809D01*
X15635588Y-11837094D01*
X15607017Y-11837094D01*
X15578446Y-11822809D01*
X15564160Y-11808523D01*
X15549874Y-11779951D01*
X15535588Y-11722809D01*
X15535588Y-11651380D01*
X15549874Y-11594237D01*
X15564160Y-11565666D01*
X15578446Y-11551380D01*
X15607017Y-11537094D01*
X15892731Y-11537094D02*
X15921303Y-11537094D01*
X15949874Y-11551380D01*
X15964160Y-11565666D01*
X15978446Y-11594237D01*
X15992731Y-11651380D01*
X15992731Y-11722809D01*
X15978446Y-11779951D01*
X15964160Y-11808523D01*
X15949874Y-11822809D01*
X15921303Y-11837094D01*
X15892731Y-11837094D01*
X15864160Y-11822809D01*
X15849874Y-11808523D01*
X15835588Y-11779951D01*
X15821303Y-11722809D01*
X15821303Y-11651380D01*
X15835588Y-11594237D01*
X15849874Y-11565666D01*
X15864160Y-11551380D01*
X15892731Y-11537094D01*
X16121303Y-11837094D02*
X16121303Y-11637094D01*
X16121303Y-11665666D02*
X16135588Y-11651380D01*
X16164160Y-11637094D01*
X16207017Y-11637094D01*
X16235588Y-11651380D01*
X16249874Y-11679951D01*
X16249874Y-11837094D01*
X16249874Y-11679951D02*
X16264160Y-11651380D01*
X16292731Y-11637094D01*
X16335588Y-11637094D01*
X16364160Y-11651380D01*
X16378446Y-11679951D01*
X16378446Y-11837094D01*
X16521303Y-11837094D02*
X16521303Y-11637094D01*
X16521303Y-11665666D02*
X16535588Y-11651380D01*
X16564160Y-11637094D01*
X16607017Y-11637094D01*
X16635588Y-11651380D01*
X16649874Y-11679951D01*
X16649874Y-11837094D01*
X16649874Y-11679951D02*
X16664160Y-11651380D01*
X16692731Y-11637094D01*
X16735588Y-11637094D01*
X16764160Y-11651380D01*
X16778446Y-11679951D01*
X16778446Y-11837094D01*
X17364160Y-11522809D02*
X17107017Y-11908523D01*
X17749874Y-11537094D02*
X17778446Y-11537094D01*
X17807017Y-11551380D01*
X17821303Y-11565666D01*
X17835588Y-11594237D01*
X17849874Y-11651380D01*
X17849874Y-11722809D01*
X17835588Y-11779951D01*
X17821303Y-11808523D01*
X17807017Y-11822809D01*
X17778446Y-11837094D01*
X17749874Y-11837094D01*
X17721303Y-11822809D01*
X17707017Y-11808523D01*
X17692731Y-11779951D01*
X17678446Y-11722809D01*
X17678446Y-11651380D01*
X17692731Y-11594237D01*
X17707017Y-11565666D01*
X17721303Y-11551380D01*
X17749874Y-11537094D01*
X17978446Y-11808523D02*
X17992731Y-11822809D01*
X17978446Y-11837094D01*
X17964160Y-11822809D01*
X17978446Y-11808523D01*
X17978446Y-11837094D01*
X18178446Y-11537094D02*
X18207017Y-11537094D01*
X18235588Y-11551380D01*
X18249874Y-11565666D01*
X18264160Y-11594237D01*
X18278446Y-11651380D01*
X18278446Y-11722809D01*
X18264160Y-11779951D01*
X18249874Y-11808523D01*
X18235588Y-11822809D01*
X18207017Y-11837094D01*
X18178446Y-11837094D01*
X18149874Y-11822809D01*
X18135588Y-11808523D01*
X18121303Y-11779951D01*
X18107017Y-11722809D01*
X18107017Y-11651380D01*
X18121303Y-11594237D01*
X18135588Y-11565666D01*
X18149874Y-11551380D01*
X18178446Y-11537094D01*
X18378446Y-11537094D02*
X18564160Y-11537094D01*
X18464160Y-11651380D01*
X18507017Y-11651380D01*
X18535588Y-11665666D01*
X18549874Y-11679951D01*
X18564160Y-11708523D01*
X18564160Y-11779951D01*
X18549874Y-11808523D01*
X18535588Y-11822809D01*
X18507017Y-11837094D01*
X18421303Y-11837094D01*
X18392731Y-11822809D01*
X18378446Y-11808523D01*
X18849874Y-11837094D02*
X18678446Y-11837094D01*
X18764160Y-11837094D02*
X18764160Y-11537094D01*
X18735588Y-11579951D01*
X18707017Y-11608523D01*
X18678446Y-11622809D01*
X19121303Y-11537094D02*
X18978446Y-11537094D01*
X18964160Y-11679951D01*
X18978446Y-11665666D01*
X19007017Y-11651380D01*
X19078446Y-11651380D01*
X19107017Y-11665666D01*
X19121303Y-11679951D01*
X19135588Y-11708523D01*
X19135588Y-11779951D01*
X19121303Y-11808523D01*
X19107017Y-11822809D01*
X19078446Y-11837094D01*
X19007017Y-11837094D01*
X18978446Y-11822809D01*
X18964160Y-11808523D01*
X19249874Y-11537094D02*
X19249874Y-11594237D01*
X19364160Y-11537094D02*
X19364160Y-11594237D01*
X19807017Y-11951380D02*
X19792731Y-11937094D01*
X19764160Y-11894237D01*
X19749874Y-11865666D01*
X19735588Y-11822809D01*
X19721303Y-11751380D01*
X19721303Y-11694237D01*
X19735588Y-11622809D01*
X19749874Y-11579951D01*
X19764160Y-11551380D01*
X19792731Y-11508523D01*
X19807017Y-11494237D01*
X19892731Y-11537094D02*
X20078446Y-11537094D01*
X19978446Y-11651380D01*
X20021303Y-11651380D01*
X20049874Y-11665666D01*
X20064160Y-11679951D01*
X20078446Y-11708523D01*
X20078446Y-11779951D01*
X20064160Y-11808523D01*
X20049874Y-11822809D01*
X20021303Y-11837094D01*
X19935588Y-11837094D01*
X19907017Y-11822809D01*
X19892731Y-11808523D01*
X20192731Y-11565666D02*
X20207017Y-11551380D01*
X20235588Y-11537094D01*
X20307017Y-11537094D01*
X20335588Y-11551380D01*
X20349874Y-11565666D01*
X20364160Y-11594237D01*
X20364160Y-11622809D01*
X20349874Y-11665666D01*
X20178446Y-11837094D01*
X20364160Y-11837094D01*
X20721303Y-11837094D02*
X20721303Y-11537094D01*
X20849874Y-11837094D02*
X20849874Y-11679951D01*
X20835588Y-11651380D01*
X20807017Y-11637094D01*
X20764160Y-11637094D01*
X20735588Y-11651380D01*
X20721303Y-11665666D01*
X21035588Y-11837094D02*
X21007017Y-11822809D01*
X20992731Y-11808523D01*
X20978446Y-11779951D01*
X20978446Y-11694237D01*
X20992731Y-11665666D01*
X21007017Y-11651380D01*
X21035588Y-11637094D01*
X21078446Y-11637094D01*
X21107017Y-11651380D01*
X21121303Y-11665666D01*
X21135588Y-11694237D01*
X21135588Y-11779951D01*
X21121303Y-11808523D01*
X21107017Y-11822809D01*
X21078446Y-11837094D01*
X21035588Y-11837094D01*
X21307017Y-11837094D02*
X21278446Y-11822809D01*
X21264160Y-11794237D01*
X21264160Y-11537094D01*
X21535588Y-11822809D02*
X21507017Y-11837094D01*
X21449874Y-11837094D01*
X21421303Y-11822809D01*
X21407017Y-11794237D01*
X21407017Y-11679951D01*
X21421303Y-11651380D01*
X21449874Y-11637094D01*
X21507017Y-11637094D01*
X21535588Y-11651380D01*
X21549874Y-11679951D01*
X21549874Y-11708523D01*
X21407017Y-11737094D01*
X21664160Y-11822809D02*
X21692731Y-11837094D01*
X21749874Y-11837094D01*
X21778446Y-11822809D01*
X21792731Y-11794237D01*
X21792731Y-11779951D01*
X21778446Y-11751380D01*
X21749874Y-11737094D01*
X21707017Y-11737094D01*
X21678446Y-11722809D01*
X21664160Y-11694237D01*
X21664160Y-11679951D01*
X21678446Y-11651380D01*
X21707017Y-11637094D01*
X21749874Y-11637094D01*
X21778446Y-11651380D01*
X21892731Y-11951380D02*
X21907017Y-11937094D01*
X21935588Y-11894237D01*
X21949874Y-11865666D01*
X21964160Y-11822809D01*
X21978446Y-11751380D01*
X21978446Y-11694237D01*
X21964160Y-11622809D01*
X21949874Y-11579951D01*
X21935588Y-11551380D01*
X21907017Y-11508523D01*
X21892731Y-11494237D01*
M02*
