M48
; DRILL file {KiCad (5.1.10-1-10_14)} date Friday, October 29, 2021 at 12:58:23 PM
; FORMAT={-:-/ absolute / metric / decimal}
; #@! TF.CreationDate,2021-10-29T12:58:23+02:00
; #@! TF.GenerationSoftware,Kicad,Pcbnew,(5.1.10-1-10_14)
; #@! TF.FileFunction,Plated,1,4,PTH
FMAT,2
METRIC
T1C0.400
T2C0.800
%
G90
G05
T1
X148.107Y-77.089
X148.311Y-74.422
X149.428Y-96.266
X149.454Y-67.361
X150.599Y-86.828
X150.721Y-74.261
X150.874Y-73.272
X151.308Y-89.992
X151.352Y-91.288
X151.352Y-92.288
X151.406Y-88.338
X151.435Y-83.083
X151.522Y-87.211
X151.663Y-63.17
X151.802Y-93.189
X151.892Y-79.324
X152.095Y-90.475
X152.248Y-69.875
X152.314Y-76.039
X152.324Y-72.925
X152.349Y-77.47
X153.111Y-75.438
X153.886Y-83.07
X153.949Y-78.74
X154.051Y-71.73
X154.28Y-86.741
X154.336Y-80.855
X155.386Y-84.363
X155.753Y-90.424
X155.859Y-85.244
X156.152Y-87.878
X156.411Y-74.264
X156.642Y-77.394
X157.48Y-79.756
X157.48Y-90.653
X157.759Y-81.89
X157.861Y-70.333
X157.861Y-75.616
X158.659Y-85.979
X158.784Y-72.866
X158.877Y-63.551
X159.741Y-98.831
X160.477Y-84.861
X160.528Y-82.55
X161.353Y-87.738
T2
X146.909Y-63.489
X146.909Y-66.029
X146.909Y-68.569
X146.909Y-71.109
X146.909Y-73.649
X146.909Y-76.189
X146.909Y-78.729
X146.909Y-81.269
X146.909Y-83.809
X146.909Y-86.349
X146.909Y-88.889
X146.909Y-91.429
X146.909Y-93.969
X146.909Y-96.509
X146.909Y-99.049
X146.909Y-101.589
X162.149Y-63.489
X162.149Y-66.029
X162.149Y-68.569
X162.149Y-71.109
X162.149Y-73.649
X162.149Y-76.189
X162.149Y-78.729
X162.149Y-81.269
X162.149Y-83.809
X162.149Y-86.349
X162.149Y-88.889
X162.149Y-91.429
X162.149Y-93.969
X162.149Y-96.509
X162.149Y-99.049
X162.149Y-101.589
T0
M30
