G04 #@! TF.GenerationSoftware,KiCad,Pcbnew,(6.0.11-0)*
G04 #@! TF.CreationDate,2023-06-06T19:26:52+02:00*
G04 #@! TF.ProjectId,soj36_to_dip,736f6a33-365f-4746-9f5f-6469702e6b69,rev?*
G04 #@! TF.SameCoordinates,Original*
G04 #@! TF.FileFunction,Copper,L3,Inr*
G04 #@! TF.FilePolarity,Positive*
%FSLAX46Y46*%
G04 Gerber Fmt 4.6, Leading zero omitted, Abs format (unit mm)*
G04 Created by KiCad (PCBNEW (6.0.11-0)) date 2023-06-06 19:26:52*
%MOMM*%
%LPD*%
G01*
G04 APERTURE LIST*
G04 #@! TA.AperFunction,ComponentPad*
%ADD10O,1.600000X1.600000*%
G04 #@! TD*
G04 #@! TA.AperFunction,ComponentPad*
%ADD11R,1.600000X1.600000*%
G04 #@! TD*
G04 #@! TA.AperFunction,ViaPad*
%ADD12C,0.800000*%
G04 #@! TD*
G04 APERTURE END LIST*
D10*
X162148600Y-63489400D03*
X146908600Y-101589400D03*
X162148600Y-66029400D03*
X146908600Y-99049400D03*
X162148600Y-68569400D03*
X146908600Y-96509400D03*
X162148600Y-71109400D03*
X146908600Y-93969400D03*
X162148600Y-73649400D03*
X146908600Y-91429400D03*
X162148600Y-76189400D03*
X146908600Y-88889400D03*
X162148600Y-78729400D03*
X146908600Y-86349400D03*
X162148600Y-81269400D03*
X146908600Y-83809400D03*
X162148600Y-83809400D03*
X146908600Y-81269400D03*
X162148600Y-86349400D03*
X146908600Y-78729400D03*
X162148600Y-88889400D03*
X146908600Y-76189400D03*
X162148600Y-91429400D03*
X146908600Y-73649400D03*
X162148600Y-93969400D03*
X146908600Y-71109400D03*
X162148600Y-96509400D03*
X146908600Y-68569400D03*
X162148600Y-99049400D03*
X146908600Y-66029400D03*
X162148600Y-101589400D03*
D11*
X146908600Y-63489400D03*
D12*
X158783600Y-72866288D03*
X157861000Y-75615800D03*
X161352784Y-87737583D03*
X160528000Y-82550000D03*
X153111200Y-75438000D03*
X154279600Y-86741000D03*
X152400000Y-90474800D03*
X157759400Y-81889600D03*
X151434800Y-83083400D03*
X155752800Y-90424000D03*
X152247600Y-69875400D03*
X156641800Y-77393800D03*
X154051000Y-71729600D03*
X157480000Y-79756000D03*
X149428200Y-96266000D03*
X159740600Y-98831400D03*
X149453600Y-67360800D03*
X158877000Y-63550800D03*
X151663400Y-63169800D03*
X160477200Y-84861400D03*
X158658669Y-85979000D03*
X155858625Y-85244400D03*
X156152415Y-87878011D03*
X153886433Y-83070422D03*
X153949400Y-78740000D03*
X157480000Y-90652600D03*
X151351979Y-92287532D03*
X151351979Y-91287519D03*
X152313925Y-76038810D03*
X151307799Y-89992199D03*
X152349200Y-77470000D03*
X151406136Y-88337936D03*
X151892000Y-79324200D03*
X151522452Y-87210980D03*
X157861000Y-70332600D03*
X150598878Y-86827528D03*
X156410988Y-74263972D03*
X151801990Y-93188813D03*
X154336444Y-80854837D03*
X155385610Y-84363332D03*
X148107400Y-77089000D03*
X148310600Y-74421998D03*
X150720970Y-74260620D03*
X150873518Y-73272312D03*
X152323529Y-72924972D03*
G04 #@! TA.AperFunction,Conductor*
G36*
X161633210Y-62072702D02*
G01*
X161679703Y-62126358D01*
X161689807Y-62196632D01*
X161660313Y-62261212D01*
X161618339Y-62292895D01*
X161496838Y-62349551D01*
X161496833Y-62349554D01*
X161491851Y-62351877D01*
X161386989Y-62425302D01*
X161308811Y-62480043D01*
X161308808Y-62480045D01*
X161304300Y-62483202D01*
X161142402Y-62645100D01*
X161011077Y-62832651D01*
X161008754Y-62837633D01*
X161008751Y-62837638D01*
X160916639Y-63035175D01*
X160914316Y-63040157D01*
X160855057Y-63261313D01*
X160835102Y-63489400D01*
X160855057Y-63717487D01*
X160914316Y-63938643D01*
X160916639Y-63943624D01*
X160916639Y-63943625D01*
X161008751Y-64141162D01*
X161008754Y-64141167D01*
X161011077Y-64146149D01*
X161142402Y-64333700D01*
X161304300Y-64495598D01*
X161308808Y-64498755D01*
X161308811Y-64498757D01*
X161350142Y-64527697D01*
X161491851Y-64626923D01*
X161496833Y-64629246D01*
X161496838Y-64629249D01*
X161531057Y-64645205D01*
X161584342Y-64692122D01*
X161603803Y-64760399D01*
X161583261Y-64828359D01*
X161531057Y-64873595D01*
X161496838Y-64889551D01*
X161496833Y-64889554D01*
X161491851Y-64891877D01*
X161386989Y-64965302D01*
X161308811Y-65020043D01*
X161308808Y-65020045D01*
X161304300Y-65023202D01*
X161142402Y-65185100D01*
X161011077Y-65372651D01*
X161008754Y-65377633D01*
X161008751Y-65377638D01*
X160916639Y-65575175D01*
X160914316Y-65580157D01*
X160855057Y-65801313D01*
X160835102Y-66029400D01*
X160855057Y-66257487D01*
X160914316Y-66478643D01*
X160916639Y-66483624D01*
X160916639Y-66483625D01*
X161008751Y-66681162D01*
X161008754Y-66681167D01*
X161011077Y-66686149D01*
X161142402Y-66873700D01*
X161304300Y-67035598D01*
X161308808Y-67038755D01*
X161308811Y-67038757D01*
X161386989Y-67093498D01*
X161491851Y-67166923D01*
X161496833Y-67169246D01*
X161496838Y-67169249D01*
X161531057Y-67185205D01*
X161584342Y-67232122D01*
X161603803Y-67300399D01*
X161583261Y-67368359D01*
X161531057Y-67413595D01*
X161496838Y-67429551D01*
X161496833Y-67429554D01*
X161491851Y-67431877D01*
X161386989Y-67505302D01*
X161308811Y-67560043D01*
X161308808Y-67560045D01*
X161304300Y-67563202D01*
X161142402Y-67725100D01*
X161011077Y-67912651D01*
X161008754Y-67917633D01*
X161008751Y-67917638D01*
X160916639Y-68115175D01*
X160914316Y-68120157D01*
X160855057Y-68341313D01*
X160835102Y-68569400D01*
X160855057Y-68797487D01*
X160914316Y-69018643D01*
X160916639Y-69023624D01*
X160916639Y-69023625D01*
X161008751Y-69221162D01*
X161008754Y-69221167D01*
X161011077Y-69226149D01*
X161142402Y-69413700D01*
X161304300Y-69575598D01*
X161308808Y-69578755D01*
X161308811Y-69578757D01*
X161386989Y-69633498D01*
X161491851Y-69706923D01*
X161496833Y-69709246D01*
X161496838Y-69709249D01*
X161531057Y-69725205D01*
X161584342Y-69772122D01*
X161603803Y-69840399D01*
X161583261Y-69908359D01*
X161531057Y-69953595D01*
X161496838Y-69969551D01*
X161496833Y-69969554D01*
X161491851Y-69971877D01*
X161386989Y-70045302D01*
X161308811Y-70100043D01*
X161308808Y-70100045D01*
X161304300Y-70103202D01*
X161142402Y-70265100D01*
X161011077Y-70452651D01*
X161008754Y-70457633D01*
X161008751Y-70457638D01*
X160916639Y-70655175D01*
X160914316Y-70660157D01*
X160912894Y-70665465D01*
X160912893Y-70665467D01*
X160856895Y-70874452D01*
X160855057Y-70881313D01*
X160835102Y-71109400D01*
X160855057Y-71337487D01*
X160914316Y-71558643D01*
X160916639Y-71563624D01*
X160916639Y-71563625D01*
X161008751Y-71761162D01*
X161008754Y-71761167D01*
X161011077Y-71766149D01*
X161142402Y-71953700D01*
X161304300Y-72115598D01*
X161308808Y-72118755D01*
X161308811Y-72118757D01*
X161386989Y-72173498D01*
X161491851Y-72246923D01*
X161496833Y-72249246D01*
X161496838Y-72249249D01*
X161531057Y-72265205D01*
X161584342Y-72312122D01*
X161603803Y-72380399D01*
X161583261Y-72448359D01*
X161531057Y-72493595D01*
X161496838Y-72509551D01*
X161496833Y-72509554D01*
X161491851Y-72511877D01*
X161386989Y-72585302D01*
X161308811Y-72640043D01*
X161308808Y-72640045D01*
X161304300Y-72643202D01*
X161142402Y-72805100D01*
X161139245Y-72809608D01*
X161139243Y-72809611D01*
X161094961Y-72872853D01*
X161011077Y-72992651D01*
X161008754Y-72997633D01*
X161008751Y-72997638D01*
X160951144Y-73121178D01*
X160914316Y-73200157D01*
X160912894Y-73205465D01*
X160912893Y-73205467D01*
X160862060Y-73395178D01*
X160855057Y-73421313D01*
X160835102Y-73649400D01*
X160855057Y-73877487D01*
X160856481Y-73882800D01*
X160856481Y-73882802D01*
X160907725Y-74074044D01*
X160914316Y-74098643D01*
X160916639Y-74103624D01*
X160916639Y-74103625D01*
X161008751Y-74301162D01*
X161008754Y-74301167D01*
X161011077Y-74306149D01*
X161014234Y-74310657D01*
X161118930Y-74460178D01*
X161142402Y-74493700D01*
X161304300Y-74655598D01*
X161308808Y-74658755D01*
X161308811Y-74658757D01*
X161353201Y-74689839D01*
X161491851Y-74786923D01*
X161496833Y-74789246D01*
X161496838Y-74789249D01*
X161531057Y-74805205D01*
X161584342Y-74852122D01*
X161603803Y-74920399D01*
X161583261Y-74988359D01*
X161531057Y-75033595D01*
X161496838Y-75049551D01*
X161496833Y-75049554D01*
X161491851Y-75051877D01*
X161445155Y-75084574D01*
X161308811Y-75180043D01*
X161308808Y-75180045D01*
X161304300Y-75183202D01*
X161142402Y-75345100D01*
X161011077Y-75532651D01*
X161008754Y-75537633D01*
X161008751Y-75537638D01*
X160948311Y-75667254D01*
X160914316Y-75740157D01*
X160855057Y-75961313D01*
X160835102Y-76189400D01*
X160855057Y-76417487D01*
X160856481Y-76422800D01*
X160856481Y-76422802D01*
X160898779Y-76580657D01*
X160914316Y-76638643D01*
X160916639Y-76643624D01*
X160916639Y-76643625D01*
X161008751Y-76841162D01*
X161008754Y-76841167D01*
X161011077Y-76846149D01*
X161142402Y-77033700D01*
X161304300Y-77195598D01*
X161308808Y-77198755D01*
X161308811Y-77198757D01*
X161386989Y-77253498D01*
X161491851Y-77326923D01*
X161496833Y-77329246D01*
X161496838Y-77329249D01*
X161531057Y-77345205D01*
X161584342Y-77392122D01*
X161603803Y-77460399D01*
X161583261Y-77528359D01*
X161531057Y-77573595D01*
X161496838Y-77589551D01*
X161496833Y-77589554D01*
X161491851Y-77591877D01*
X161436189Y-77630852D01*
X161308811Y-77720043D01*
X161308808Y-77720045D01*
X161304300Y-77723202D01*
X161142402Y-77885100D01*
X161011077Y-78072651D01*
X161008754Y-78077633D01*
X161008751Y-78077638D01*
X160947602Y-78208774D01*
X160914316Y-78280157D01*
X160912894Y-78285465D01*
X160912893Y-78285467D01*
X160877997Y-78415700D01*
X160855057Y-78501313D01*
X160835102Y-78729400D01*
X160855057Y-78957487D01*
X160856481Y-78962800D01*
X160856481Y-78962802D01*
X160900745Y-79127994D01*
X160914316Y-79178643D01*
X160916639Y-79183624D01*
X160916639Y-79183625D01*
X161008751Y-79381162D01*
X161008754Y-79381167D01*
X161011077Y-79386149D01*
X161014234Y-79390657D01*
X161112586Y-79531118D01*
X161142402Y-79573700D01*
X161304300Y-79735598D01*
X161308808Y-79738755D01*
X161308811Y-79738757D01*
X161386989Y-79793498D01*
X161491851Y-79866923D01*
X161496833Y-79869246D01*
X161496838Y-79869249D01*
X161531057Y-79885205D01*
X161584342Y-79932122D01*
X161603803Y-80000399D01*
X161583261Y-80068359D01*
X161531057Y-80113595D01*
X161496838Y-80129551D01*
X161496833Y-80129554D01*
X161491851Y-80131877D01*
X161421865Y-80180882D01*
X161308811Y-80260043D01*
X161308808Y-80260045D01*
X161304300Y-80263202D01*
X161142402Y-80425100D01*
X161011077Y-80612651D01*
X161008754Y-80617633D01*
X161008751Y-80617638D01*
X160983648Y-80671472D01*
X160914316Y-80820157D01*
X160912894Y-80825465D01*
X160912893Y-80825467D01*
X160905023Y-80854837D01*
X160855057Y-81041313D01*
X160835102Y-81269400D01*
X160855057Y-81497487D01*
X160856480Y-81502799D01*
X160856483Y-81502814D01*
X160856746Y-81503795D01*
X160856735Y-81504243D01*
X160857436Y-81508217D01*
X160856637Y-81508358D01*
X160855051Y-81574771D01*
X160815252Y-81633564D01*
X160749986Y-81661506D01*
X160708839Y-81659642D01*
X160629951Y-81642873D01*
X160629942Y-81642872D01*
X160623487Y-81641500D01*
X160432513Y-81641500D01*
X160426061Y-81642872D01*
X160426056Y-81642872D01*
X160347162Y-81659642D01*
X160245712Y-81681206D01*
X160239682Y-81683891D01*
X160239681Y-81683891D01*
X160077278Y-81756197D01*
X160077276Y-81756198D01*
X160071248Y-81758882D01*
X159916747Y-81871134D01*
X159912326Y-81876044D01*
X159912325Y-81876045D01*
X159871702Y-81921162D01*
X159788960Y-82013056D01*
X159693473Y-82178444D01*
X159634458Y-82360072D01*
X159633768Y-82366633D01*
X159633768Y-82366635D01*
X159615715Y-82538401D01*
X159614496Y-82550000D01*
X159615186Y-82556565D01*
X159627306Y-82671877D01*
X159634458Y-82739928D01*
X159693473Y-82921556D01*
X159788960Y-83086944D01*
X159916747Y-83228866D01*
X160071248Y-83341118D01*
X160077276Y-83343802D01*
X160077278Y-83343803D01*
X160239681Y-83416109D01*
X160245712Y-83418794D01*
X160325215Y-83435693D01*
X160426056Y-83457128D01*
X160426061Y-83457128D01*
X160432513Y-83458500D01*
X160623487Y-83458500D01*
X160629942Y-83457128D01*
X160629951Y-83457127D01*
X160704356Y-83441311D01*
X160775147Y-83446712D01*
X160831780Y-83489528D01*
X160856274Y-83556166D01*
X160854917Y-83581301D01*
X160855057Y-83581313D01*
X160854579Y-83586778D01*
X160854578Y-83586783D01*
X160840791Y-83744377D01*
X160835102Y-83809400D01*
X160835581Y-83814875D01*
X160835581Y-83814876D01*
X160838026Y-83842823D01*
X160824037Y-83912427D01*
X160774637Y-83963420D01*
X160705511Y-83979610D01*
X160686308Y-83977051D01*
X160579144Y-83954272D01*
X160579139Y-83954272D01*
X160572687Y-83952900D01*
X160381713Y-83952900D01*
X160375261Y-83954272D01*
X160375256Y-83954272D01*
X160288313Y-83972753D01*
X160194912Y-83992606D01*
X160188882Y-83995291D01*
X160188881Y-83995291D01*
X160026478Y-84067597D01*
X160026476Y-84067598D01*
X160020448Y-84070282D01*
X159865947Y-84182534D01*
X159738160Y-84324456D01*
X159734859Y-84330174D01*
X159659233Y-84461162D01*
X159642673Y-84489844D01*
X159583658Y-84671472D01*
X159582968Y-84678033D01*
X159582968Y-84678035D01*
X159568510Y-84815598D01*
X159563696Y-84861400D01*
X159564386Y-84867965D01*
X159582855Y-85043684D01*
X159583658Y-85051328D01*
X159642673Y-85232956D01*
X159645976Y-85238678D01*
X159645977Y-85238679D01*
X159679216Y-85296251D01*
X159738160Y-85398344D01*
X159742578Y-85403251D01*
X159742579Y-85403252D01*
X159834283Y-85505100D01*
X159865947Y-85540266D01*
X160020448Y-85652518D01*
X160026476Y-85655202D01*
X160026478Y-85655203D01*
X160188048Y-85727138D01*
X160194912Y-85730194D01*
X160288312Y-85750047D01*
X160375256Y-85768528D01*
X160375261Y-85768528D01*
X160381713Y-85769900D01*
X160572687Y-85769900D01*
X160579139Y-85768528D01*
X160579144Y-85768528D01*
X160690462Y-85744866D01*
X160759488Y-85730194D01*
X160761896Y-85729122D01*
X160831394Y-85727138D01*
X160892191Y-85763802D01*
X160923515Y-85827514D01*
X160917761Y-85892093D01*
X160916639Y-85895174D01*
X160914316Y-85900157D01*
X160855057Y-86121313D01*
X160835102Y-86349400D01*
X160855057Y-86577487D01*
X160914316Y-86798643D01*
X160916642Y-86803631D01*
X160917279Y-86804997D01*
X160917379Y-86805656D01*
X160918522Y-86808796D01*
X160917891Y-86809026D01*
X160927942Y-86875188D01*
X160898964Y-86940002D01*
X160877147Y-86960186D01*
X160798322Y-87017456D01*
X160741531Y-87058717D01*
X160737110Y-87063627D01*
X160737109Y-87063628D01*
X160624054Y-87189189D01*
X160613744Y-87200639D01*
X160518257Y-87366027D01*
X160459242Y-87547655D01*
X160458552Y-87554216D01*
X160458552Y-87554218D01*
X160445142Y-87681805D01*
X160439280Y-87737583D01*
X160439970Y-87744148D01*
X160454995Y-87887099D01*
X160459242Y-87927511D01*
X160518257Y-88109139D01*
X160613744Y-88274527D01*
X160618162Y-88279434D01*
X160618163Y-88279435D01*
X160670838Y-88337936D01*
X160741531Y-88416449D01*
X160821420Y-88474492D01*
X160864772Y-88530714D01*
X160870847Y-88601450D01*
X160869064Y-88609038D01*
X160855057Y-88661313D01*
X160835102Y-88889400D01*
X160855057Y-89117487D01*
X160856481Y-89122800D01*
X160856481Y-89122802D01*
X160889628Y-89246505D01*
X160914316Y-89338643D01*
X160916639Y-89343624D01*
X160916639Y-89343625D01*
X161008751Y-89541162D01*
X161008754Y-89541167D01*
X161011077Y-89546149D01*
X161142402Y-89733700D01*
X161304300Y-89895598D01*
X161308808Y-89898755D01*
X161308811Y-89898757D01*
X161386989Y-89953498D01*
X161491851Y-90026923D01*
X161496833Y-90029246D01*
X161496838Y-90029249D01*
X161531057Y-90045205D01*
X161584342Y-90092122D01*
X161603803Y-90160399D01*
X161583261Y-90228359D01*
X161531057Y-90273595D01*
X161496838Y-90289551D01*
X161496833Y-90289554D01*
X161491851Y-90291877D01*
X161398175Y-90357470D01*
X161308811Y-90420043D01*
X161308808Y-90420045D01*
X161304300Y-90423202D01*
X161142402Y-90585100D01*
X161011077Y-90772651D01*
X161008754Y-90777633D01*
X161008751Y-90777638D01*
X160944250Y-90915963D01*
X160914316Y-90980157D01*
X160912894Y-90985465D01*
X160912893Y-90985467D01*
X160856895Y-91194452D01*
X160855057Y-91201313D01*
X160835102Y-91429400D01*
X160855057Y-91657487D01*
X160914316Y-91878643D01*
X160916639Y-91883624D01*
X160916639Y-91883625D01*
X161008751Y-92081162D01*
X161008754Y-92081167D01*
X161011077Y-92086149D01*
X161142402Y-92273700D01*
X161304300Y-92435598D01*
X161308808Y-92438755D01*
X161308811Y-92438757D01*
X161354712Y-92470897D01*
X161491851Y-92566923D01*
X161496833Y-92569246D01*
X161496838Y-92569249D01*
X161531057Y-92585205D01*
X161584342Y-92632122D01*
X161603803Y-92700399D01*
X161583261Y-92768359D01*
X161531057Y-92813595D01*
X161496838Y-92829551D01*
X161496833Y-92829554D01*
X161491851Y-92831877D01*
X161386989Y-92905302D01*
X161308811Y-92960043D01*
X161308808Y-92960045D01*
X161304300Y-92963202D01*
X161142402Y-93125100D01*
X161139245Y-93129608D01*
X161139243Y-93129611D01*
X161093193Y-93195378D01*
X161011077Y-93312651D01*
X161008754Y-93317633D01*
X161008751Y-93317638D01*
X160983319Y-93372178D01*
X160914316Y-93520157D01*
X160912894Y-93525465D01*
X160912893Y-93525467D01*
X160860757Y-93720039D01*
X160855057Y-93741313D01*
X160835102Y-93969400D01*
X160855057Y-94197487D01*
X160914316Y-94418643D01*
X160916639Y-94423624D01*
X160916639Y-94423625D01*
X161008751Y-94621162D01*
X161008754Y-94621167D01*
X161011077Y-94626149D01*
X161142402Y-94813700D01*
X161304300Y-94975598D01*
X161308808Y-94978755D01*
X161308811Y-94978757D01*
X161386989Y-95033498D01*
X161491851Y-95106923D01*
X161496833Y-95109246D01*
X161496838Y-95109249D01*
X161531057Y-95125205D01*
X161584342Y-95172122D01*
X161603803Y-95240399D01*
X161583261Y-95308359D01*
X161531057Y-95353595D01*
X161496838Y-95369551D01*
X161496833Y-95369554D01*
X161491851Y-95371877D01*
X161386989Y-95445302D01*
X161308811Y-95500043D01*
X161308808Y-95500045D01*
X161304300Y-95503202D01*
X161142402Y-95665100D01*
X161011077Y-95852651D01*
X161008754Y-95857633D01*
X161008751Y-95857638D01*
X160916639Y-96055175D01*
X160914316Y-96060157D01*
X160855057Y-96281313D01*
X160835102Y-96509400D01*
X160855057Y-96737487D01*
X160914316Y-96958643D01*
X160916639Y-96963624D01*
X160916639Y-96963625D01*
X161008751Y-97161162D01*
X161008754Y-97161167D01*
X161011077Y-97166149D01*
X161142402Y-97353700D01*
X161304300Y-97515598D01*
X161308808Y-97518755D01*
X161308811Y-97518757D01*
X161386989Y-97573498D01*
X161491851Y-97646923D01*
X161496833Y-97649246D01*
X161496838Y-97649249D01*
X161531057Y-97665205D01*
X161584342Y-97712122D01*
X161603803Y-97780399D01*
X161583261Y-97848359D01*
X161531057Y-97893595D01*
X161496838Y-97909551D01*
X161496833Y-97909554D01*
X161491851Y-97911877D01*
X161386989Y-97985302D01*
X161308811Y-98040043D01*
X161308808Y-98040045D01*
X161304300Y-98043202D01*
X161142402Y-98205100D01*
X161011077Y-98392651D01*
X161008754Y-98397633D01*
X161008751Y-98397638D01*
X160916639Y-98595175D01*
X160914316Y-98600157D01*
X160855057Y-98821313D01*
X160835102Y-99049400D01*
X160855057Y-99277487D01*
X160914316Y-99498643D01*
X160916639Y-99503624D01*
X160916639Y-99503625D01*
X161008751Y-99701162D01*
X161008754Y-99701167D01*
X161011077Y-99706149D01*
X161142402Y-99893700D01*
X161304300Y-100055598D01*
X161308808Y-100058755D01*
X161308811Y-100058757D01*
X161386989Y-100113498D01*
X161491851Y-100186923D01*
X161496833Y-100189246D01*
X161496838Y-100189249D01*
X161531057Y-100205205D01*
X161584342Y-100252122D01*
X161603803Y-100320399D01*
X161583261Y-100388359D01*
X161531057Y-100433595D01*
X161496838Y-100449551D01*
X161496833Y-100449554D01*
X161491851Y-100451877D01*
X161386989Y-100525302D01*
X161308811Y-100580043D01*
X161308808Y-100580045D01*
X161304300Y-100583202D01*
X161142402Y-100745100D01*
X161011077Y-100932651D01*
X161008754Y-100937633D01*
X161008751Y-100937638D01*
X161008634Y-100937889D01*
X160914316Y-101140157D01*
X160912894Y-101145465D01*
X160912893Y-101145467D01*
X160856481Y-101355998D01*
X160855057Y-101361313D01*
X160835102Y-101589400D01*
X160855057Y-101817487D01*
X160914316Y-102038643D01*
X160916639Y-102043624D01*
X160916639Y-102043625D01*
X161008751Y-102241162D01*
X161008754Y-102241167D01*
X161011077Y-102246149D01*
X161142402Y-102433700D01*
X161304300Y-102595598D01*
X161308808Y-102598755D01*
X161308811Y-102598757D01*
X161440672Y-102691087D01*
X161485000Y-102746544D01*
X161492309Y-102817164D01*
X161460278Y-102880524D01*
X161399077Y-102916509D01*
X161368401Y-102920300D01*
X147687927Y-102920300D01*
X147619806Y-102900298D01*
X147573313Y-102846642D01*
X147563209Y-102776368D01*
X147592703Y-102711788D01*
X147615656Y-102691087D01*
X147748067Y-102598372D01*
X147756475Y-102591316D01*
X147910516Y-102437275D01*
X147917572Y-102428867D01*
X148042531Y-102250407D01*
X148048014Y-102240911D01*
X148140090Y-102043453D01*
X148143836Y-102033161D01*
X148189994Y-101860897D01*
X148189658Y-101846801D01*
X148181716Y-101843400D01*
X146780600Y-101843400D01*
X146712479Y-101823398D01*
X146665986Y-101769742D01*
X146654600Y-101717400D01*
X146654600Y-101461400D01*
X146674602Y-101393279D01*
X146728258Y-101346786D01*
X146780600Y-101335400D01*
X148176567Y-101335400D01*
X148190098Y-101331427D01*
X148191327Y-101322878D01*
X148143836Y-101145639D01*
X148140090Y-101135347D01*
X148048014Y-100937889D01*
X148042531Y-100928393D01*
X147917572Y-100749933D01*
X147910516Y-100741525D01*
X147756475Y-100587484D01*
X147748067Y-100580428D01*
X147569607Y-100455469D01*
X147560111Y-100449986D01*
X147525551Y-100433871D01*
X147472266Y-100386954D01*
X147452805Y-100318677D01*
X147473347Y-100250717D01*
X147525551Y-100205481D01*
X147560362Y-100189249D01*
X147560367Y-100189246D01*
X147565349Y-100186923D01*
X147670211Y-100113498D01*
X147748389Y-100058757D01*
X147748392Y-100058755D01*
X147752900Y-100055598D01*
X147914798Y-99893700D01*
X148046123Y-99706149D01*
X148048446Y-99701167D01*
X148048449Y-99701162D01*
X148140561Y-99503625D01*
X148140561Y-99503624D01*
X148142884Y-99498643D01*
X148202143Y-99277487D01*
X148222098Y-99049400D01*
X148202143Y-98821313D01*
X148142884Y-98600157D01*
X148140561Y-98595175D01*
X148048449Y-98397638D01*
X148048446Y-98397633D01*
X148046123Y-98392651D01*
X147914798Y-98205100D01*
X147752900Y-98043202D01*
X147748392Y-98040045D01*
X147748389Y-98040043D01*
X147670211Y-97985302D01*
X147565349Y-97911877D01*
X147560367Y-97909554D01*
X147560362Y-97909551D01*
X147526143Y-97893595D01*
X147472858Y-97846678D01*
X147453397Y-97778401D01*
X147473939Y-97710441D01*
X147526143Y-97665205D01*
X147560362Y-97649249D01*
X147560367Y-97649246D01*
X147565349Y-97646923D01*
X147670211Y-97573498D01*
X147748389Y-97518757D01*
X147748392Y-97518755D01*
X147752900Y-97515598D01*
X147914798Y-97353700D01*
X148046123Y-97166149D01*
X148048446Y-97161167D01*
X148048449Y-97161162D01*
X148140561Y-96963625D01*
X148140561Y-96963624D01*
X148142884Y-96958643D01*
X148202143Y-96737487D01*
X148222098Y-96509400D01*
X148202143Y-96281313D01*
X148142884Y-96060157D01*
X148140561Y-96055175D01*
X148048449Y-95857638D01*
X148048446Y-95857633D01*
X148046123Y-95852651D01*
X147914798Y-95665100D01*
X147752900Y-95503202D01*
X147748392Y-95500045D01*
X147748389Y-95500043D01*
X147670211Y-95445302D01*
X147565349Y-95371877D01*
X147560367Y-95369554D01*
X147560362Y-95369551D01*
X147526143Y-95353595D01*
X147472858Y-95306678D01*
X147453397Y-95238401D01*
X147473939Y-95170441D01*
X147526143Y-95125205D01*
X147560362Y-95109249D01*
X147560367Y-95109246D01*
X147565349Y-95106923D01*
X147670211Y-95033498D01*
X147748389Y-94978757D01*
X147748392Y-94978755D01*
X147752900Y-94975598D01*
X147914798Y-94813700D01*
X148046123Y-94626149D01*
X148048446Y-94621167D01*
X148048449Y-94621162D01*
X148140561Y-94423625D01*
X148140561Y-94423624D01*
X148142884Y-94418643D01*
X148202143Y-94197487D01*
X148222098Y-93969400D01*
X148202143Y-93741313D01*
X148196443Y-93720039D01*
X148144307Y-93525467D01*
X148144306Y-93525465D01*
X148142884Y-93520157D01*
X148073881Y-93372178D01*
X148048449Y-93317638D01*
X148048446Y-93317633D01*
X148046123Y-93312651D01*
X147964007Y-93195378D01*
X147917957Y-93129611D01*
X147917955Y-93129608D01*
X147914798Y-93125100D01*
X147752900Y-92963202D01*
X147748392Y-92960045D01*
X147748389Y-92960043D01*
X147670211Y-92905302D01*
X147565349Y-92831877D01*
X147560367Y-92829554D01*
X147560362Y-92829551D01*
X147526143Y-92813595D01*
X147472858Y-92766678D01*
X147453397Y-92698401D01*
X147473939Y-92630441D01*
X147526143Y-92585205D01*
X147560362Y-92569249D01*
X147560367Y-92569246D01*
X147565349Y-92566923D01*
X147702488Y-92470897D01*
X147748389Y-92438757D01*
X147748392Y-92438755D01*
X147752900Y-92435598D01*
X147914798Y-92273700D01*
X148046123Y-92086149D01*
X148048446Y-92081167D01*
X148048449Y-92081162D01*
X148140561Y-91883625D01*
X148140561Y-91883624D01*
X148142884Y-91878643D01*
X148202143Y-91657487D01*
X148222098Y-91429400D01*
X148202143Y-91201313D01*
X148200305Y-91194452D01*
X148144307Y-90985467D01*
X148144306Y-90985465D01*
X148142884Y-90980157D01*
X148112950Y-90915963D01*
X148048449Y-90777638D01*
X148048446Y-90777633D01*
X148046123Y-90772651D01*
X147914798Y-90585100D01*
X147752900Y-90423202D01*
X147748392Y-90420045D01*
X147748389Y-90420043D01*
X147659025Y-90357470D01*
X147565349Y-90291877D01*
X147560367Y-90289554D01*
X147560362Y-90289551D01*
X147526143Y-90273595D01*
X147472858Y-90226678D01*
X147453397Y-90158401D01*
X147473939Y-90090441D01*
X147526143Y-90045205D01*
X147560362Y-90029249D01*
X147560367Y-90029246D01*
X147565349Y-90026923D01*
X147670211Y-89953498D01*
X147748389Y-89898757D01*
X147748392Y-89898755D01*
X147752900Y-89895598D01*
X147914798Y-89733700D01*
X148046123Y-89546149D01*
X148048446Y-89541167D01*
X148048449Y-89541162D01*
X148140561Y-89343625D01*
X148140561Y-89343624D01*
X148142884Y-89338643D01*
X148167573Y-89246505D01*
X148200719Y-89122802D01*
X148200719Y-89122800D01*
X148202143Y-89117487D01*
X148222098Y-88889400D01*
X148202143Y-88661313D01*
X148174159Y-88556877D01*
X148144307Y-88445467D01*
X148144306Y-88445465D01*
X148142884Y-88440157D01*
X148056680Y-88255290D01*
X148048449Y-88237638D01*
X148048446Y-88237633D01*
X148046123Y-88232651D01*
X147914798Y-88045100D01*
X147752900Y-87883202D01*
X147748392Y-87880045D01*
X147748389Y-87880043D01*
X147635492Y-87800992D01*
X147565349Y-87751877D01*
X147560367Y-87749554D01*
X147560362Y-87749551D01*
X147526143Y-87733595D01*
X147472858Y-87686678D01*
X147453397Y-87618401D01*
X147473939Y-87550441D01*
X147526143Y-87505205D01*
X147560362Y-87489249D01*
X147560367Y-87489246D01*
X147565349Y-87486923D01*
X147729030Y-87372312D01*
X147748389Y-87358757D01*
X147748393Y-87358754D01*
X147752900Y-87355598D01*
X147914798Y-87193700D01*
X148046123Y-87006149D01*
X148048446Y-87001167D01*
X148048449Y-87001162D01*
X148129415Y-86827528D01*
X149685374Y-86827528D01*
X149686064Y-86834093D01*
X149704148Y-87006149D01*
X149705336Y-87017456D01*
X149764351Y-87199084D01*
X149859838Y-87364472D01*
X149864256Y-87369379D01*
X149864257Y-87369380D01*
X149982527Y-87500732D01*
X149987625Y-87506394D01*
X150142126Y-87618646D01*
X150148154Y-87621330D01*
X150148156Y-87621331D01*
X150310559Y-87693637D01*
X150316590Y-87696322D01*
X150434365Y-87721356D01*
X150496935Y-87734656D01*
X150496938Y-87734656D01*
X150502436Y-87735825D01*
X150503391Y-87736028D01*
X150503354Y-87736203D01*
X150566164Y-87762042D01*
X150606795Y-87820263D01*
X150609500Y-87891208D01*
X150596460Y-87923336D01*
X150571609Y-87966380D01*
X150512594Y-88148008D01*
X150511904Y-88154569D01*
X150511904Y-88154571D01*
X150503698Y-88232651D01*
X150492632Y-88337936D01*
X150512594Y-88527864D01*
X150571609Y-88709492D01*
X150574912Y-88715214D01*
X150574913Y-88715215D01*
X150593152Y-88746805D01*
X150667096Y-88874880D01*
X150671514Y-88879787D01*
X150671515Y-88879788D01*
X150790461Y-89011891D01*
X150794883Y-89016802D01*
X150800225Y-89020683D01*
X150800227Y-89020685D01*
X150809481Y-89027408D01*
X150852835Y-89083630D01*
X150858910Y-89154366D01*
X150825779Y-89217158D01*
X150809481Y-89231280D01*
X150788526Y-89246505D01*
X150696546Y-89313333D01*
X150568759Y-89455255D01*
X150473272Y-89620643D01*
X150414257Y-89802271D01*
X150413567Y-89808832D01*
X150413567Y-89808834D01*
X150404858Y-89891701D01*
X150394295Y-89992199D01*
X150394985Y-89998764D01*
X150404621Y-90090441D01*
X150414257Y-90182127D01*
X150473272Y-90363755D01*
X150568759Y-90529143D01*
X150573177Y-90534050D01*
X150573178Y-90534051D01*
X150614624Y-90580081D01*
X150645341Y-90644089D01*
X150636578Y-90714542D01*
X150620403Y-90739716D01*
X150621240Y-90740324D01*
X150617358Y-90745667D01*
X150612939Y-90750575D01*
X150517452Y-90915963D01*
X150458437Y-91097591D01*
X150457747Y-91104152D01*
X150457747Y-91104154D01*
X150439165Y-91280954D01*
X150438475Y-91287519D01*
X150439165Y-91294084D01*
X150453963Y-91434875D01*
X150458437Y-91477447D01*
X150517452Y-91659075D01*
X150520755Y-91664797D01*
X150520756Y-91664798D01*
X150555240Y-91724526D01*
X150571978Y-91793522D01*
X150555241Y-91850524D01*
X150517452Y-91915976D01*
X150458437Y-92097604D01*
X150438475Y-92287532D01*
X150439165Y-92294097D01*
X150453628Y-92431701D01*
X150458437Y-92477460D01*
X150517452Y-92659088D01*
X150612939Y-92824476D01*
X150617357Y-92829383D01*
X150617358Y-92829384D01*
X150619603Y-92831877D01*
X150740726Y-92966398D01*
X150800604Y-93009902D01*
X150840868Y-93039156D01*
X150884222Y-93095379D01*
X150892117Y-93154261D01*
X150888486Y-93188813D01*
X150908448Y-93378741D01*
X150967463Y-93560369D01*
X151062950Y-93725757D01*
X151067368Y-93730664D01*
X151067369Y-93730665D01*
X151081891Y-93746793D01*
X151190737Y-93867679D01*
X151345238Y-93979931D01*
X151351266Y-93982615D01*
X151351268Y-93982616D01*
X151513671Y-94054922D01*
X151519702Y-94057607D01*
X151613103Y-94077460D01*
X151700046Y-94095941D01*
X151700051Y-94095941D01*
X151706503Y-94097313D01*
X151897477Y-94097313D01*
X151903929Y-94095941D01*
X151903934Y-94095941D01*
X151990877Y-94077460D01*
X152084278Y-94057607D01*
X152090309Y-94054922D01*
X152252712Y-93982616D01*
X152252714Y-93982615D01*
X152258742Y-93979931D01*
X152413243Y-93867679D01*
X152522089Y-93746793D01*
X152536611Y-93730665D01*
X152536612Y-93730664D01*
X152541030Y-93725757D01*
X152636517Y-93560369D01*
X152695532Y-93378741D01*
X152715494Y-93188813D01*
X152714804Y-93182246D01*
X152696222Y-93005448D01*
X152696222Y-93005446D01*
X152695532Y-92998885D01*
X152636517Y-92817257D01*
X152541030Y-92651869D01*
X152464545Y-92566923D01*
X152417665Y-92514858D01*
X152417664Y-92514857D01*
X152413243Y-92509947D01*
X152313101Y-92437189D01*
X152269747Y-92380966D01*
X152261852Y-92322084D01*
X152264793Y-92294099D01*
X152264793Y-92294097D01*
X152265483Y-92287532D01*
X152245521Y-92097604D01*
X152186506Y-91915976D01*
X152148717Y-91850525D01*
X152131980Y-91781531D01*
X152148718Y-91724526D01*
X152183202Y-91664798D01*
X152183203Y-91664797D01*
X152186506Y-91659075D01*
X152245521Y-91477447D01*
X152249996Y-91434875D01*
X152264793Y-91294084D01*
X152265483Y-91287519D01*
X152264793Y-91280954D01*
X152246211Y-91104154D01*
X152246211Y-91104152D01*
X152245521Y-91097591D01*
X152186506Y-90915963D01*
X152091019Y-90750575D01*
X152081242Y-90739716D01*
X152045154Y-90699637D01*
X152022581Y-90652600D01*
X156566496Y-90652600D01*
X156586458Y-90842528D01*
X156645473Y-91024156D01*
X156740960Y-91189544D01*
X156868747Y-91331466D01*
X156967843Y-91403464D01*
X157011077Y-91434875D01*
X157023248Y-91443718D01*
X157029276Y-91446402D01*
X157029278Y-91446403D01*
X157191681Y-91518709D01*
X157197712Y-91521394D01*
X157291113Y-91541247D01*
X157378056Y-91559728D01*
X157378061Y-91559728D01*
X157384513Y-91561100D01*
X157575487Y-91561100D01*
X157581939Y-91559728D01*
X157581944Y-91559728D01*
X157668887Y-91541247D01*
X157762288Y-91521394D01*
X157768319Y-91518709D01*
X157930722Y-91446403D01*
X157930724Y-91446402D01*
X157936752Y-91443718D01*
X157948924Y-91434875D01*
X157992157Y-91403464D01*
X158091253Y-91331466D01*
X158219040Y-91189544D01*
X158314527Y-91024156D01*
X158373542Y-90842528D01*
X158393504Y-90652600D01*
X158385882Y-90580081D01*
X158374232Y-90469235D01*
X158374232Y-90469233D01*
X158373542Y-90462672D01*
X158314527Y-90281044D01*
X158219040Y-90115656D01*
X158196337Y-90090441D01*
X158095675Y-89978645D01*
X158095674Y-89978644D01*
X158091253Y-89973734D01*
X157988056Y-89898757D01*
X157942094Y-89865363D01*
X157942093Y-89865362D01*
X157936752Y-89861482D01*
X157930724Y-89858798D01*
X157930722Y-89858797D01*
X157768319Y-89786491D01*
X157768318Y-89786491D01*
X157762288Y-89783806D01*
X157668887Y-89763953D01*
X157581944Y-89745472D01*
X157581939Y-89745472D01*
X157575487Y-89744100D01*
X157384513Y-89744100D01*
X157378061Y-89745472D01*
X157378056Y-89745472D01*
X157291113Y-89763953D01*
X157197712Y-89783806D01*
X157191682Y-89786491D01*
X157191681Y-89786491D01*
X157029278Y-89858797D01*
X157029276Y-89858798D01*
X157023248Y-89861482D01*
X157017907Y-89865362D01*
X157017906Y-89865363D01*
X156971944Y-89898757D01*
X156868747Y-89973734D01*
X156864326Y-89978644D01*
X156864325Y-89978645D01*
X156763664Y-90090441D01*
X156740960Y-90115656D01*
X156645473Y-90281044D01*
X156586458Y-90462672D01*
X156585768Y-90469233D01*
X156585768Y-90469235D01*
X156574118Y-90580081D01*
X156566496Y-90652600D01*
X152022581Y-90652600D01*
X152014437Y-90635629D01*
X152023200Y-90565176D01*
X152039375Y-90540002D01*
X152038538Y-90539394D01*
X152042420Y-90534051D01*
X152046839Y-90529143D01*
X152094264Y-90447002D01*
X152139022Y-90369478D01*
X152139023Y-90369477D01*
X152142326Y-90363755D01*
X152201341Y-90182127D01*
X152210978Y-90090441D01*
X152220613Y-89998764D01*
X152221303Y-89992199D01*
X152210740Y-89891701D01*
X152202031Y-89808834D01*
X152202031Y-89808832D01*
X152201341Y-89802271D01*
X152142326Y-89620643D01*
X152046839Y-89455255D01*
X151919052Y-89313333D01*
X151904454Y-89302727D01*
X151861100Y-89246505D01*
X151855025Y-89175769D01*
X151888156Y-89112977D01*
X151904454Y-89098855D01*
X152002791Y-89027408D01*
X152017389Y-89016802D01*
X152021811Y-89011891D01*
X152140757Y-88879788D01*
X152140758Y-88879787D01*
X152145176Y-88874880D01*
X152219120Y-88746805D01*
X152237359Y-88715215D01*
X152237360Y-88715214D01*
X152240663Y-88709492D01*
X152299678Y-88527864D01*
X152319640Y-88337936D01*
X152308574Y-88232651D01*
X152300368Y-88154571D01*
X152300368Y-88154569D01*
X152299678Y-88148008D01*
X152240663Y-87966380D01*
X152217723Y-87926647D01*
X152205924Y-87878011D01*
X155238911Y-87878011D01*
X155239601Y-87884576D01*
X155256947Y-88049611D01*
X155258873Y-88067939D01*
X155317888Y-88249567D01*
X155413375Y-88414955D01*
X155417793Y-88419862D01*
X155417794Y-88419863D01*
X155517605Y-88530714D01*
X155541162Y-88556877D01*
X155695663Y-88669129D01*
X155701691Y-88671813D01*
X155701693Y-88671814D01*
X155786320Y-88709492D01*
X155870127Y-88746805D01*
X155963528Y-88766658D01*
X156050471Y-88785139D01*
X156050476Y-88785139D01*
X156056928Y-88786511D01*
X156247902Y-88786511D01*
X156254354Y-88785139D01*
X156254359Y-88785139D01*
X156341302Y-88766658D01*
X156434703Y-88746805D01*
X156518510Y-88709492D01*
X156603137Y-88671814D01*
X156603139Y-88671813D01*
X156609167Y-88669129D01*
X156763668Y-88556877D01*
X156787225Y-88530714D01*
X156887036Y-88419863D01*
X156887037Y-88419862D01*
X156891455Y-88414955D01*
X156986942Y-88249567D01*
X157045957Y-88067939D01*
X157047884Y-88049611D01*
X157065229Y-87884576D01*
X157065919Y-87878011D01*
X157052662Y-87751877D01*
X157046647Y-87694646D01*
X157046647Y-87694644D01*
X157045957Y-87688083D01*
X156986942Y-87506455D01*
X156973843Y-87483766D01*
X156909494Y-87372312D01*
X156891455Y-87341067D01*
X156780236Y-87217545D01*
X156768090Y-87204056D01*
X156768089Y-87204055D01*
X156763668Y-87199145D01*
X156609167Y-87086893D01*
X156603139Y-87084209D01*
X156603137Y-87084208D01*
X156440734Y-87011902D01*
X156440733Y-87011902D01*
X156434703Y-87009217D01*
X156341303Y-86989364D01*
X156254359Y-86970883D01*
X156254354Y-86970883D01*
X156247902Y-86969511D01*
X156056928Y-86969511D01*
X156050476Y-86970883D01*
X156050471Y-86970883D01*
X155963528Y-86989364D01*
X155870127Y-87009217D01*
X155864097Y-87011902D01*
X155864096Y-87011902D01*
X155701693Y-87084208D01*
X155701691Y-87084209D01*
X155695663Y-87086893D01*
X155541162Y-87199145D01*
X155536741Y-87204055D01*
X155536740Y-87204056D01*
X155524595Y-87217545D01*
X155413375Y-87341067D01*
X155395336Y-87372312D01*
X155330988Y-87483766D01*
X155317888Y-87506455D01*
X155258873Y-87688083D01*
X155258183Y-87694644D01*
X155258183Y-87694646D01*
X155252168Y-87751877D01*
X155238911Y-87878011D01*
X152205924Y-87878011D01*
X152200986Y-87857654D01*
X152224206Y-87790562D01*
X152233206Y-87779339D01*
X152248780Y-87762042D01*
X152261492Y-87747924D01*
X152267463Y-87737583D01*
X152353675Y-87588259D01*
X152353676Y-87588258D01*
X152356979Y-87582536D01*
X152415994Y-87400908D01*
X152421683Y-87346785D01*
X152435266Y-87217545D01*
X152435956Y-87210980D01*
X152415994Y-87021052D01*
X152356979Y-86839424D01*
X152261492Y-86674036D01*
X152246933Y-86657866D01*
X152138127Y-86537025D01*
X152138126Y-86537024D01*
X152133705Y-86532114D01*
X151979204Y-86419862D01*
X151973176Y-86417178D01*
X151973174Y-86417177D01*
X151810771Y-86344871D01*
X151810770Y-86344871D01*
X151804740Y-86342186D01*
X151711339Y-86322333D01*
X151624396Y-86303852D01*
X151624391Y-86303852D01*
X151617939Y-86302480D01*
X151426965Y-86302480D01*
X151420507Y-86303853D01*
X151419819Y-86303925D01*
X151349981Y-86291152D01*
X151313016Y-86262928D01*
X151210131Y-86148662D01*
X151055630Y-86036410D01*
X151049602Y-86033726D01*
X151049600Y-86033725D01*
X150887197Y-85961419D01*
X150887196Y-85961419D01*
X150881166Y-85958734D01*
X150787766Y-85938881D01*
X150700822Y-85920400D01*
X150700817Y-85920400D01*
X150694365Y-85919028D01*
X150503391Y-85919028D01*
X150496939Y-85920400D01*
X150496934Y-85920400D01*
X150409990Y-85938881D01*
X150316590Y-85958734D01*
X150310560Y-85961419D01*
X150310559Y-85961419D01*
X150148156Y-86033725D01*
X150148154Y-86033726D01*
X150142126Y-86036410D01*
X149987625Y-86148662D01*
X149859838Y-86290584D01*
X149764351Y-86455972D01*
X149705336Y-86637600D01*
X149704646Y-86644161D01*
X149704646Y-86644163D01*
X149688968Y-86793333D01*
X149685374Y-86827528D01*
X148129415Y-86827528D01*
X148140561Y-86803625D01*
X148140561Y-86803624D01*
X148142884Y-86798643D01*
X148174741Y-86679754D01*
X148200719Y-86582802D01*
X148200719Y-86582800D01*
X148202143Y-86577487D01*
X148222098Y-86349400D01*
X148202143Y-86121313D01*
X148142884Y-85900157D01*
X148139124Y-85892093D01*
X148048449Y-85697638D01*
X148048446Y-85697633D01*
X148046123Y-85692651D01*
X147972698Y-85587789D01*
X147917957Y-85509611D01*
X147917955Y-85509608D01*
X147914798Y-85505100D01*
X147752900Y-85343202D01*
X147748392Y-85340045D01*
X147748389Y-85340043D01*
X147621172Y-85250965D01*
X147565349Y-85211877D01*
X147560367Y-85209554D01*
X147560362Y-85209551D01*
X147526143Y-85193595D01*
X147472858Y-85146678D01*
X147453397Y-85078401D01*
X147473939Y-85010441D01*
X147526143Y-84965205D01*
X147560362Y-84949249D01*
X147560367Y-84949246D01*
X147565349Y-84946923D01*
X147696864Y-84854835D01*
X147748389Y-84818757D01*
X147748392Y-84818755D01*
X147752900Y-84815598D01*
X147914798Y-84653700D01*
X148046123Y-84466149D01*
X148048446Y-84461167D01*
X148048449Y-84461162D01*
X148140561Y-84263625D01*
X148140561Y-84263624D01*
X148142884Y-84258643D01*
X148163278Y-84182534D01*
X148200719Y-84042802D01*
X148200719Y-84042800D01*
X148202143Y-84037487D01*
X148222098Y-83809400D01*
X148202143Y-83581313D01*
X148199705Y-83572214D01*
X148144307Y-83365467D01*
X148144306Y-83365465D01*
X148142884Y-83360157D01*
X148096344Y-83260350D01*
X148048449Y-83157638D01*
X148048446Y-83157633D01*
X148046123Y-83152651D01*
X147988545Y-83070422D01*
X152972929Y-83070422D01*
X152973619Y-83076987D01*
X152981572Y-83152651D01*
X152992891Y-83260350D01*
X153051906Y-83441978D01*
X153147393Y-83607366D01*
X153275180Y-83749288D01*
X153429681Y-83861540D01*
X153435709Y-83864224D01*
X153435711Y-83864225D01*
X153598114Y-83936531D01*
X153604145Y-83939216D01*
X153674978Y-83954272D01*
X153784489Y-83977550D01*
X153784494Y-83977550D01*
X153790946Y-83978922D01*
X153981920Y-83978922D01*
X153988372Y-83977550D01*
X153988377Y-83977550D01*
X154097888Y-83954272D01*
X154168721Y-83939216D01*
X154174752Y-83936531D01*
X154337155Y-83864225D01*
X154337157Y-83864224D01*
X154343185Y-83861540D01*
X154348526Y-83857659D01*
X154348532Y-83857656D01*
X154356994Y-83851508D01*
X154423861Y-83827649D01*
X154493013Y-83843730D01*
X154542493Y-83894644D01*
X154556592Y-83964227D01*
X154550888Y-83992376D01*
X154492068Y-84173404D01*
X154491378Y-84179965D01*
X154491378Y-84179967D01*
X154476708Y-84319548D01*
X154472106Y-84363332D01*
X154472796Y-84369897D01*
X154478321Y-84422460D01*
X154492068Y-84553260D01*
X154551083Y-84734888D01*
X154646570Y-84900276D01*
X154650988Y-84905183D01*
X154650989Y-84905184D01*
X154688571Y-84946923D01*
X154774357Y-85042198D01*
X154815200Y-85071872D01*
X154893898Y-85129050D01*
X154937252Y-85185272D01*
X154943380Y-85231230D01*
X154945811Y-85231230D01*
X154945811Y-85237835D01*
X154945121Y-85244400D01*
X154965083Y-85434328D01*
X155024098Y-85615956D01*
X155119585Y-85781344D01*
X155124003Y-85786251D01*
X155124004Y-85786252D01*
X155231346Y-85905467D01*
X155247372Y-85923266D01*
X155401873Y-86035518D01*
X155407901Y-86038202D01*
X155407903Y-86038203D01*
X155412593Y-86040291D01*
X155576337Y-86113194D01*
X155669738Y-86133047D01*
X155756681Y-86151528D01*
X155756686Y-86151528D01*
X155763138Y-86152900D01*
X155954112Y-86152900D01*
X155960564Y-86151528D01*
X155960569Y-86151528D01*
X156047513Y-86133047D01*
X156140913Y-86113194D01*
X156304657Y-86040291D01*
X156309347Y-86038203D01*
X156309349Y-86038202D01*
X156315377Y-86035518D01*
X156393167Y-85979000D01*
X157745165Y-85979000D01*
X157745855Y-85985565D01*
X157760123Y-86121313D01*
X157765127Y-86168928D01*
X157824142Y-86350556D01*
X157919629Y-86515944D01*
X157924047Y-86520851D01*
X157924048Y-86520852D01*
X157979828Y-86582802D01*
X158047416Y-86657866D01*
X158201917Y-86770118D01*
X158207945Y-86772802D01*
X158207947Y-86772803D01*
X158370350Y-86845109D01*
X158376381Y-86847794D01*
X158469781Y-86867647D01*
X158556725Y-86886128D01*
X158556730Y-86886128D01*
X158563182Y-86887500D01*
X158754156Y-86887500D01*
X158760608Y-86886128D01*
X158760613Y-86886128D01*
X158847557Y-86867647D01*
X158940957Y-86847794D01*
X158946988Y-86845109D01*
X159109391Y-86772803D01*
X159109393Y-86772802D01*
X159115421Y-86770118D01*
X159269922Y-86657866D01*
X159337510Y-86582802D01*
X159393290Y-86520852D01*
X159393291Y-86520851D01*
X159397709Y-86515944D01*
X159493196Y-86350556D01*
X159552211Y-86168928D01*
X159557216Y-86121313D01*
X159571483Y-85985565D01*
X159572173Y-85979000D01*
X159565799Y-85918355D01*
X159552901Y-85795635D01*
X159552901Y-85795633D01*
X159552211Y-85789072D01*
X159493196Y-85607444D01*
X159397709Y-85442056D01*
X159384842Y-85427765D01*
X159274344Y-85305045D01*
X159274343Y-85305044D01*
X159269922Y-85300134D01*
X159145246Y-85209551D01*
X159120763Y-85191763D01*
X159120762Y-85191762D01*
X159115421Y-85187882D01*
X159109393Y-85185198D01*
X159109391Y-85185197D01*
X158946988Y-85112891D01*
X158946987Y-85112891D01*
X158940957Y-85110206D01*
X158847557Y-85090353D01*
X158760613Y-85071872D01*
X158760608Y-85071872D01*
X158754156Y-85070500D01*
X158563182Y-85070500D01*
X158556730Y-85071872D01*
X158556725Y-85071872D01*
X158469782Y-85090353D01*
X158376381Y-85110206D01*
X158370351Y-85112891D01*
X158370350Y-85112891D01*
X158207947Y-85185197D01*
X158207945Y-85185198D01*
X158201917Y-85187882D01*
X158196576Y-85191762D01*
X158196575Y-85191763D01*
X158172092Y-85209551D01*
X158047416Y-85300134D01*
X158042995Y-85305044D01*
X158042994Y-85305045D01*
X157932497Y-85427765D01*
X157919629Y-85442056D01*
X157824142Y-85607444D01*
X157765127Y-85789072D01*
X157764437Y-85795633D01*
X157764437Y-85795635D01*
X157751539Y-85918355D01*
X157745165Y-85979000D01*
X156393167Y-85979000D01*
X156469878Y-85923266D01*
X156485904Y-85905467D01*
X156593246Y-85786252D01*
X156593247Y-85786251D01*
X156597665Y-85781344D01*
X156693152Y-85615956D01*
X156752167Y-85434328D01*
X156772129Y-85244400D01*
X156766189Y-85187882D01*
X156752857Y-85061035D01*
X156752857Y-85061033D01*
X156752167Y-85054472D01*
X156693152Y-84872844D01*
X156682755Y-84854835D01*
X156600966Y-84713174D01*
X156597665Y-84707456D01*
X156469878Y-84565534D01*
X156350337Y-84478682D01*
X156306983Y-84422460D01*
X156300855Y-84376502D01*
X156298424Y-84376502D01*
X156298424Y-84369897D01*
X156299114Y-84363332D01*
X156294512Y-84319548D01*
X156279842Y-84179967D01*
X156279842Y-84179965D01*
X156279152Y-84173404D01*
X156220137Y-83991776D01*
X156124650Y-83826388D01*
X155996863Y-83684466D01*
X155862428Y-83586793D01*
X155847704Y-83576095D01*
X155847703Y-83576094D01*
X155842362Y-83572214D01*
X155836334Y-83569530D01*
X155836332Y-83569529D01*
X155673929Y-83497223D01*
X155673928Y-83497223D01*
X155667898Y-83494538D01*
X155574497Y-83474685D01*
X155487554Y-83456204D01*
X155487549Y-83456204D01*
X155481097Y-83454832D01*
X155290123Y-83454832D01*
X155283671Y-83456204D01*
X155283666Y-83456204D01*
X155196723Y-83474685D01*
X155103322Y-83494538D01*
X155097292Y-83497223D01*
X155097291Y-83497223D01*
X154934888Y-83569529D01*
X154934886Y-83569530D01*
X154928858Y-83572214D01*
X154923517Y-83576095D01*
X154923511Y-83576098D01*
X154915049Y-83582246D01*
X154848182Y-83606105D01*
X154779030Y-83590024D01*
X154729550Y-83539110D01*
X154715451Y-83469527D01*
X154721155Y-83441378D01*
X154779975Y-83260350D01*
X154791295Y-83152651D01*
X154799247Y-83076987D01*
X154799937Y-83070422D01*
X154799247Y-83063857D01*
X154780665Y-82887057D01*
X154780665Y-82887055D01*
X154779975Y-82880494D01*
X154720960Y-82698866D01*
X154625473Y-82533478D01*
X154598647Y-82503684D01*
X154502108Y-82396467D01*
X154502107Y-82396466D01*
X154497686Y-82391556D01*
X154343185Y-82279304D01*
X154337157Y-82276620D01*
X154337155Y-82276619D01*
X154174752Y-82204313D01*
X154174751Y-82204313D01*
X154168721Y-82201628D01*
X154075320Y-82181775D01*
X153988377Y-82163294D01*
X153988372Y-82163294D01*
X153981920Y-82161922D01*
X153790946Y-82161922D01*
X153784494Y-82163294D01*
X153784489Y-82163294D01*
X153697546Y-82181775D01*
X153604145Y-82201628D01*
X153598115Y-82204313D01*
X153598114Y-82204313D01*
X153435711Y-82276619D01*
X153435709Y-82276620D01*
X153429681Y-82279304D01*
X153275180Y-82391556D01*
X153270759Y-82396466D01*
X153270758Y-82396467D01*
X153174220Y-82503684D01*
X153147393Y-82533478D01*
X153051906Y-82698866D01*
X152992891Y-82880494D01*
X152992201Y-82887055D01*
X152992201Y-82887057D01*
X152973619Y-83063857D01*
X152972929Y-83070422D01*
X147988545Y-83070422D01*
X147914798Y-82965100D01*
X147752900Y-82803202D01*
X147748392Y-82800045D01*
X147748389Y-82800043D01*
X147603893Y-82698866D01*
X147565349Y-82671877D01*
X147560367Y-82669554D01*
X147560362Y-82669551D01*
X147526143Y-82653595D01*
X147472858Y-82606678D01*
X147453397Y-82538401D01*
X147473939Y-82470441D01*
X147526143Y-82425205D01*
X147560362Y-82409249D01*
X147560367Y-82409246D01*
X147565349Y-82406923D01*
X147742065Y-82283185D01*
X147748389Y-82278757D01*
X147748392Y-82278755D01*
X147752900Y-82275598D01*
X147914798Y-82113700D01*
X148046123Y-81926149D01*
X148048446Y-81921167D01*
X148048449Y-81921162D01*
X148140561Y-81723625D01*
X148140561Y-81723624D01*
X148142884Y-81718643D01*
X148158694Y-81659642D01*
X148200719Y-81502802D01*
X148200719Y-81502800D01*
X148202143Y-81497487D01*
X148222098Y-81269400D01*
X148202143Y-81041313D01*
X148152177Y-80854837D01*
X153422940Y-80854837D01*
X153423630Y-80861402D01*
X153441981Y-81035998D01*
X153442902Y-81044765D01*
X153501917Y-81226393D01*
X153597404Y-81391781D01*
X153725191Y-81533703D01*
X153879692Y-81645955D01*
X153885720Y-81648639D01*
X153885722Y-81648640D01*
X154048125Y-81720946D01*
X154054156Y-81723631D01*
X154147557Y-81743484D01*
X154234500Y-81761965D01*
X154234505Y-81761965D01*
X154240957Y-81763337D01*
X154431931Y-81763337D01*
X154438383Y-81761965D01*
X154438388Y-81761965D01*
X154525332Y-81743484D01*
X154618732Y-81723631D01*
X154624763Y-81720946D01*
X154787166Y-81648640D01*
X154787168Y-81648639D01*
X154793196Y-81645955D01*
X154947697Y-81533703D01*
X155075484Y-81391781D01*
X155170971Y-81226393D01*
X155229986Y-81044765D01*
X155230908Y-81035998D01*
X155249258Y-80861402D01*
X155249948Y-80854837D01*
X155229986Y-80664909D01*
X155170971Y-80483281D01*
X155075484Y-80317893D01*
X154947697Y-80175971D01*
X154848601Y-80103973D01*
X154798538Y-80067600D01*
X154798537Y-80067599D01*
X154793196Y-80063719D01*
X154787168Y-80061035D01*
X154787166Y-80061034D01*
X154624763Y-79988728D01*
X154624762Y-79988728D01*
X154618732Y-79986043D01*
X154513542Y-79963684D01*
X154438388Y-79947709D01*
X154438383Y-79947709D01*
X154431931Y-79946337D01*
X154240957Y-79946337D01*
X154234505Y-79947709D01*
X154234500Y-79947709D01*
X154159346Y-79963684D01*
X154054156Y-79986043D01*
X154048126Y-79988728D01*
X154048125Y-79988728D01*
X153885722Y-80061034D01*
X153885720Y-80061035D01*
X153879692Y-80063719D01*
X153874351Y-80067599D01*
X153874350Y-80067600D01*
X153824287Y-80103973D01*
X153725191Y-80175971D01*
X153597404Y-80317893D01*
X153501917Y-80483281D01*
X153442902Y-80664909D01*
X153422940Y-80854837D01*
X148152177Y-80854837D01*
X148144307Y-80825467D01*
X148144306Y-80825465D01*
X148142884Y-80820157D01*
X148073552Y-80671472D01*
X148048449Y-80617638D01*
X148048446Y-80617633D01*
X148046123Y-80612651D01*
X147914798Y-80425100D01*
X147752900Y-80263202D01*
X147748392Y-80260045D01*
X147748389Y-80260043D01*
X147635335Y-80180882D01*
X147565349Y-80131877D01*
X147560367Y-80129554D01*
X147560362Y-80129551D01*
X147526143Y-80113595D01*
X147472858Y-80066678D01*
X147453397Y-79998401D01*
X147473939Y-79930441D01*
X147526143Y-79885205D01*
X147560362Y-79869249D01*
X147560367Y-79869246D01*
X147565349Y-79866923D01*
X147670211Y-79793498D01*
X147748389Y-79738757D01*
X147748392Y-79738755D01*
X147752900Y-79735598D01*
X147914798Y-79573700D01*
X147944615Y-79531118D01*
X148042966Y-79390657D01*
X148046123Y-79386149D01*
X148048446Y-79381167D01*
X148048449Y-79381162D01*
X148075011Y-79324200D01*
X150978496Y-79324200D01*
X150979186Y-79330765D01*
X150987930Y-79413955D01*
X150998458Y-79514128D01*
X151057473Y-79695756D01*
X151152960Y-79861144D01*
X151157378Y-79866051D01*
X151157379Y-79866052D01*
X151215355Y-79930441D01*
X151280747Y-80003066D01*
X151435248Y-80115318D01*
X151441276Y-80118002D01*
X151441278Y-80118003D01*
X151603681Y-80190309D01*
X151609712Y-80192994D01*
X151703112Y-80212847D01*
X151790056Y-80231328D01*
X151790061Y-80231328D01*
X151796513Y-80232700D01*
X151987487Y-80232700D01*
X151993939Y-80231328D01*
X151993944Y-80231328D01*
X152080888Y-80212847D01*
X152174288Y-80192994D01*
X152180319Y-80190309D01*
X152342722Y-80118003D01*
X152342724Y-80118002D01*
X152348752Y-80115318D01*
X152503253Y-80003066D01*
X152568645Y-79930441D01*
X152626621Y-79866052D01*
X152626622Y-79866051D01*
X152631040Y-79861144D01*
X152726527Y-79695756D01*
X152785542Y-79514128D01*
X152796071Y-79413955D01*
X152804814Y-79330765D01*
X152805504Y-79324200D01*
X152790206Y-79178643D01*
X152786232Y-79140835D01*
X152786232Y-79140833D01*
X152785542Y-79134272D01*
X152726527Y-78952644D01*
X152717037Y-78936206D01*
X152634341Y-78792974D01*
X152631040Y-78787256D01*
X152582580Y-78733435D01*
X152507675Y-78650245D01*
X152507674Y-78650244D01*
X152503253Y-78645334D01*
X152434811Y-78595607D01*
X152391458Y-78539385D01*
X152385383Y-78468649D01*
X152418515Y-78405857D01*
X152482676Y-78370425D01*
X152631488Y-78338794D01*
X152637519Y-78336109D01*
X152799922Y-78263803D01*
X152799924Y-78263802D01*
X152805952Y-78261118D01*
X152811294Y-78257237D01*
X152955109Y-78152749D01*
X152955111Y-78152747D01*
X152960453Y-78148866D01*
X152960960Y-78149563D01*
X153020014Y-78121221D01*
X153090468Y-78129983D01*
X153145000Y-78175445D01*
X153166297Y-78243172D01*
X153149439Y-78308574D01*
X153114873Y-78368444D01*
X153055858Y-78550072D01*
X153055168Y-78556633D01*
X153055168Y-78556635D01*
X153037586Y-78723925D01*
X153035896Y-78740000D01*
X153055858Y-78929928D01*
X153114873Y-79111556D01*
X153118176Y-79117278D01*
X153118177Y-79117279D01*
X153127988Y-79134272D01*
X153210360Y-79276944D01*
X153214778Y-79281851D01*
X153214779Y-79281852D01*
X153333725Y-79413955D01*
X153338147Y-79418866D01*
X153492648Y-79531118D01*
X153498676Y-79533802D01*
X153498678Y-79533803D01*
X153578157Y-79569189D01*
X153667112Y-79608794D01*
X153760513Y-79628647D01*
X153847456Y-79647128D01*
X153847461Y-79647128D01*
X153853913Y-79648500D01*
X154044887Y-79648500D01*
X154051339Y-79647128D01*
X154051344Y-79647128D01*
X154138287Y-79628647D01*
X154231688Y-79608794D01*
X154320643Y-79569189D01*
X154400122Y-79533803D01*
X154400124Y-79533802D01*
X154406152Y-79531118D01*
X154560653Y-79418866D01*
X154565075Y-79413955D01*
X154684021Y-79281852D01*
X154684022Y-79281851D01*
X154688440Y-79276944D01*
X154770812Y-79134272D01*
X154780623Y-79117279D01*
X154780624Y-79117278D01*
X154783927Y-79111556D01*
X154842942Y-78929928D01*
X154862904Y-78740000D01*
X154861214Y-78723925D01*
X154843632Y-78556635D01*
X154843632Y-78556633D01*
X154842942Y-78550072D01*
X154783927Y-78368444D01*
X154688440Y-78203056D01*
X154643144Y-78152749D01*
X154565075Y-78066045D01*
X154565074Y-78066044D01*
X154560653Y-78061134D01*
X154461557Y-77989136D01*
X154411494Y-77952763D01*
X154411493Y-77952762D01*
X154406152Y-77948882D01*
X154400124Y-77946198D01*
X154400122Y-77946197D01*
X154237719Y-77873891D01*
X154237718Y-77873891D01*
X154231688Y-77871206D01*
X154119121Y-77847279D01*
X154051344Y-77832872D01*
X154051339Y-77832872D01*
X154044887Y-77831500D01*
X153853913Y-77831500D01*
X153847461Y-77832872D01*
X153847456Y-77832872D01*
X153779679Y-77847279D01*
X153667112Y-77871206D01*
X153661082Y-77873891D01*
X153661081Y-77873891D01*
X153498678Y-77946197D01*
X153498676Y-77946198D01*
X153492648Y-77948882D01*
X153487307Y-77952762D01*
X153487306Y-77952763D01*
X153365657Y-78041147D01*
X153338147Y-78061134D01*
X153337640Y-78060437D01*
X153278586Y-78088779D01*
X153208132Y-78080017D01*
X153153600Y-78034555D01*
X153132303Y-77966828D01*
X153149161Y-77901426D01*
X153180423Y-77847279D01*
X153180424Y-77847278D01*
X153183727Y-77841556D01*
X153242742Y-77659928D01*
X153249895Y-77591877D01*
X153262014Y-77476565D01*
X153262704Y-77470000D01*
X153247666Y-77326923D01*
X153243432Y-77286635D01*
X153243432Y-77286633D01*
X153242742Y-77280072D01*
X153183727Y-77098444D01*
X153178275Y-77089000D01*
X153091541Y-76938774D01*
X153088240Y-76933056D01*
X152985658Y-76819127D01*
X152954940Y-76755120D01*
X152963705Y-76684666D01*
X152985657Y-76650507D01*
X152991854Y-76643625D01*
X153052965Y-76575754D01*
X153148452Y-76410366D01*
X153207467Y-76228738D01*
X153212118Y-76184492D01*
X153226739Y-76045375D01*
X153227429Y-76038810D01*
X153222021Y-75987356D01*
X153208157Y-75855445D01*
X153208157Y-75855443D01*
X153207467Y-75848882D01*
X153148452Y-75667254D01*
X153052965Y-75501866D01*
X152925178Y-75359944D01*
X152770677Y-75247692D01*
X152764649Y-75245008D01*
X152764647Y-75245007D01*
X152602244Y-75172701D01*
X152602243Y-75172701D01*
X152596213Y-75170016D01*
X152502812Y-75150163D01*
X152415869Y-75131682D01*
X152415864Y-75131682D01*
X152409412Y-75130310D01*
X152218438Y-75130310D01*
X152211986Y-75131682D01*
X152211981Y-75131682D01*
X152125038Y-75150163D01*
X152031637Y-75170016D01*
X152025607Y-75172701D01*
X152025606Y-75172701D01*
X151863203Y-75245007D01*
X151863201Y-75245008D01*
X151857173Y-75247692D01*
X151702672Y-75359944D01*
X151574885Y-75501866D01*
X151479398Y-75667254D01*
X151420383Y-75848882D01*
X151419693Y-75855443D01*
X151419693Y-75855445D01*
X151405829Y-75987356D01*
X151400421Y-76038810D01*
X151401111Y-76045375D01*
X151415733Y-76184492D01*
X151420383Y-76228738D01*
X151479398Y-76410366D01*
X151574885Y-76575754D01*
X151579300Y-76580657D01*
X151579304Y-76580662D01*
X151677467Y-76689683D01*
X151708185Y-76753690D01*
X151699420Y-76824144D01*
X151677468Y-76858302D01*
X151610160Y-76933056D01*
X151606859Y-76938774D01*
X151520126Y-77089000D01*
X151514673Y-77098444D01*
X151455658Y-77280072D01*
X151454968Y-77286633D01*
X151454968Y-77286635D01*
X151450734Y-77326923D01*
X151435696Y-77470000D01*
X151436386Y-77476565D01*
X151448506Y-77591877D01*
X151455658Y-77659928D01*
X151514673Y-77841556D01*
X151610160Y-78006944D01*
X151614578Y-78011851D01*
X151614579Y-78011852D01*
X151656185Y-78058060D01*
X151737947Y-78148866D01*
X151805778Y-78198148D01*
X151806389Y-78198592D01*
X151849742Y-78254815D01*
X151855817Y-78325551D01*
X151822685Y-78388343D01*
X151758524Y-78423775D01*
X151609712Y-78455406D01*
X151603682Y-78458091D01*
X151603681Y-78458091D01*
X151441278Y-78530397D01*
X151441276Y-78530398D01*
X151435248Y-78533082D01*
X151429907Y-78536962D01*
X151429906Y-78536963D01*
X151420504Y-78543794D01*
X151280747Y-78645334D01*
X151276326Y-78650244D01*
X151276325Y-78650245D01*
X151201421Y-78733435D01*
X151152960Y-78787256D01*
X151149659Y-78792974D01*
X151066964Y-78936206D01*
X151057473Y-78952644D01*
X150998458Y-79134272D01*
X150997768Y-79140833D01*
X150997768Y-79140835D01*
X150993794Y-79178643D01*
X150978496Y-79324200D01*
X148075011Y-79324200D01*
X148140561Y-79183625D01*
X148140561Y-79183624D01*
X148142884Y-79178643D01*
X148156456Y-79127994D01*
X148200719Y-78962802D01*
X148200719Y-78962800D01*
X148202143Y-78957487D01*
X148222098Y-78729400D01*
X148202143Y-78501313D01*
X148179203Y-78415700D01*
X148144307Y-78285467D01*
X148144306Y-78285465D01*
X148142884Y-78280157D01*
X148094386Y-78176152D01*
X148083725Y-78105960D01*
X148112705Y-78041147D01*
X148172125Y-78002291D01*
X148195410Y-77997592D01*
X148196285Y-77997500D01*
X148202887Y-77997500D01*
X148389688Y-77957794D01*
X148409705Y-77948882D01*
X148558122Y-77882803D01*
X148558124Y-77882802D01*
X148564152Y-77880118D01*
X148576419Y-77871206D01*
X148631069Y-77831500D01*
X148718653Y-77767866D01*
X148846440Y-77625944D01*
X148933873Y-77474506D01*
X148938623Y-77466279D01*
X148938624Y-77466278D01*
X148941927Y-77460556D01*
X149000942Y-77278928D01*
X149020904Y-77089000D01*
X149004514Y-76933056D01*
X149001632Y-76905635D01*
X149001632Y-76905633D01*
X149000942Y-76899072D01*
X148941927Y-76717444D01*
X148846440Y-76552056D01*
X148821449Y-76524300D01*
X148723075Y-76415045D01*
X148723074Y-76415044D01*
X148718653Y-76410134D01*
X148564152Y-76297882D01*
X148558124Y-76295198D01*
X148558122Y-76295197D01*
X148395719Y-76222891D01*
X148395718Y-76222891D01*
X148389688Y-76220206D01*
X148312867Y-76203877D01*
X148250393Y-76170148D01*
X148216072Y-76107999D01*
X148213543Y-76091612D01*
X148204922Y-75993079D01*
X148202143Y-75961313D01*
X148142884Y-75740157D01*
X148108889Y-75667254D01*
X148048449Y-75537638D01*
X148048446Y-75537633D01*
X148046123Y-75532651D01*
X148033744Y-75514972D01*
X148011056Y-75447698D01*
X148028341Y-75378837D01*
X148080111Y-75330253D01*
X148149929Y-75317370D01*
X148163153Y-75319454D01*
X148201753Y-75327658D01*
X148215113Y-75330498D01*
X148406087Y-75330498D01*
X148412539Y-75329126D01*
X148412544Y-75329126D01*
X148499488Y-75310645D01*
X148592888Y-75290792D01*
X148689693Y-75247692D01*
X148761322Y-75215801D01*
X148761324Y-75215800D01*
X148767352Y-75213116D01*
X148921853Y-75100864D01*
X148955540Y-75063451D01*
X149045221Y-74963850D01*
X149045222Y-74963849D01*
X149049640Y-74958942D01*
X149128241Y-74822801D01*
X149141823Y-74799277D01*
X149141824Y-74799276D01*
X149145127Y-74793554D01*
X149204142Y-74611926D01*
X149220444Y-74456826D01*
X149223414Y-74428563D01*
X149224104Y-74421998D01*
X149207143Y-74260620D01*
X149807466Y-74260620D01*
X149827428Y-74450548D01*
X149886443Y-74632176D01*
X149889746Y-74637898D01*
X149889747Y-74637899D01*
X149919735Y-74689839D01*
X149981930Y-74797564D01*
X149986348Y-74802471D01*
X149986349Y-74802472D01*
X150092531Y-74920399D01*
X150109717Y-74939486D01*
X150264218Y-75051738D01*
X150270246Y-75054422D01*
X150270248Y-75054423D01*
X150415871Y-75119258D01*
X150438682Y-75129414D01*
X150532082Y-75149267D01*
X150619026Y-75167748D01*
X150619031Y-75167748D01*
X150625483Y-75169120D01*
X150816457Y-75169120D01*
X150822909Y-75167748D01*
X150822914Y-75167748D01*
X150909858Y-75149267D01*
X151003258Y-75129414D01*
X151026069Y-75119258D01*
X151171692Y-75054423D01*
X151171694Y-75054422D01*
X151177722Y-75051738D01*
X151332223Y-74939486D01*
X151349409Y-74920399D01*
X151455591Y-74802472D01*
X151455592Y-74802471D01*
X151460010Y-74797564D01*
X151522205Y-74689839D01*
X151552193Y-74637899D01*
X151552194Y-74637898D01*
X151555497Y-74632176D01*
X151614512Y-74450548D01*
X151634122Y-74263972D01*
X155497484Y-74263972D01*
X155517446Y-74453900D01*
X155576461Y-74635528D01*
X155579764Y-74641250D01*
X155579765Y-74641251D01*
X155588048Y-74655598D01*
X155671948Y-74800916D01*
X155676366Y-74805823D01*
X155676367Y-74805824D01*
X155778631Y-74919400D01*
X155799735Y-74942838D01*
X155862389Y-74988359D01*
X155944281Y-75047857D01*
X155954236Y-75055090D01*
X155960264Y-75057774D01*
X155960266Y-75057775D01*
X156121171Y-75129414D01*
X156128700Y-75132766D01*
X156222101Y-75152619D01*
X156309044Y-75171100D01*
X156309049Y-75171100D01*
X156315501Y-75172472D01*
X156506475Y-75172472D01*
X156512927Y-75171100D01*
X156512932Y-75171100D01*
X156599875Y-75152619D01*
X156693276Y-75132766D01*
X156700805Y-75129414D01*
X156861710Y-75057775D01*
X156861712Y-75057774D01*
X156864008Y-75056751D01*
X156864010Y-75056751D01*
X156867740Y-75055090D01*
X156868044Y-75055772D01*
X156932097Y-75040232D01*
X156999190Y-75063451D01*
X157043078Y-75119258D01*
X157049827Y-75189933D01*
X157035222Y-75229090D01*
X157026473Y-75244244D01*
X156967458Y-75425872D01*
X156947496Y-75615800D01*
X156948186Y-75622365D01*
X156953565Y-75673539D01*
X156967458Y-75805728D01*
X157026473Y-75987356D01*
X157121960Y-76152744D01*
X157126378Y-76157651D01*
X157126379Y-76157652D01*
X157190385Y-76228738D01*
X157249747Y-76294666D01*
X157404248Y-76406918D01*
X157410276Y-76409602D01*
X157410278Y-76409603D01*
X157427986Y-76417487D01*
X157578712Y-76484594D01*
X157672112Y-76504447D01*
X157759056Y-76522928D01*
X157759061Y-76522928D01*
X157765513Y-76524300D01*
X157956487Y-76524300D01*
X157962939Y-76522928D01*
X157962944Y-76522928D01*
X158049888Y-76504447D01*
X158143288Y-76484594D01*
X158294014Y-76417487D01*
X158311722Y-76409603D01*
X158311724Y-76409602D01*
X158317752Y-76406918D01*
X158472253Y-76294666D01*
X158531615Y-76228738D01*
X158595621Y-76157652D01*
X158595622Y-76157651D01*
X158600040Y-76152744D01*
X158695527Y-75987356D01*
X158754542Y-75805728D01*
X158768436Y-75673539D01*
X158773814Y-75622365D01*
X158774504Y-75615800D01*
X158754542Y-75425872D01*
X158695527Y-75244244D01*
X158682917Y-75222402D01*
X158629230Y-75129414D01*
X158600040Y-75078856D01*
X158578041Y-75054423D01*
X158476675Y-74941845D01*
X158476674Y-74941844D01*
X158472253Y-74936934D01*
X158317752Y-74824682D01*
X158311724Y-74821998D01*
X158311722Y-74821997D01*
X158149319Y-74749691D01*
X158149318Y-74749691D01*
X158143288Y-74747006D01*
X158049888Y-74727153D01*
X157962944Y-74708672D01*
X157962939Y-74708672D01*
X157956487Y-74707300D01*
X157765513Y-74707300D01*
X157759061Y-74708672D01*
X157759056Y-74708672D01*
X157672112Y-74727153D01*
X157578712Y-74747006D01*
X157572682Y-74749691D01*
X157572681Y-74749691D01*
X157410278Y-74821997D01*
X157410276Y-74821998D01*
X157407980Y-74823021D01*
X157407978Y-74823021D01*
X157404248Y-74824682D01*
X157403944Y-74824000D01*
X157339891Y-74839540D01*
X157272798Y-74816321D01*
X157228910Y-74760514D01*
X157222161Y-74689839D01*
X157236766Y-74650682D01*
X157242210Y-74641253D01*
X157242211Y-74641250D01*
X157245515Y-74635528D01*
X157304530Y-74453900D01*
X157324492Y-74263972D01*
X157307639Y-74103625D01*
X157305220Y-74080607D01*
X157305220Y-74080605D01*
X157304530Y-74074044D01*
X157245515Y-73892416D01*
X157239965Y-73882802D01*
X157162161Y-73748043D01*
X157150028Y-73727028D01*
X157140180Y-73716090D01*
X157026663Y-73590017D01*
X157026662Y-73590016D01*
X157022241Y-73585106D01*
X156867740Y-73472854D01*
X156861712Y-73470170D01*
X156861710Y-73470169D01*
X156699307Y-73397863D01*
X156699306Y-73397863D01*
X156693276Y-73395178D01*
X156599876Y-73375325D01*
X156512932Y-73356844D01*
X156512927Y-73356844D01*
X156506475Y-73355472D01*
X156315501Y-73355472D01*
X156309049Y-73356844D01*
X156309044Y-73356844D01*
X156222100Y-73375325D01*
X156128700Y-73395178D01*
X156122670Y-73397863D01*
X156122669Y-73397863D01*
X155960266Y-73470169D01*
X155960264Y-73470170D01*
X155954236Y-73472854D01*
X155799735Y-73585106D01*
X155795314Y-73590016D01*
X155795313Y-73590017D01*
X155681797Y-73716090D01*
X155671948Y-73727028D01*
X155659815Y-73748043D01*
X155582012Y-73882802D01*
X155576461Y-73892416D01*
X155517446Y-74074044D01*
X155516756Y-74080605D01*
X155516756Y-74080607D01*
X155514337Y-74103625D01*
X155497484Y-74263972D01*
X151634122Y-74263972D01*
X151634474Y-74260620D01*
X151631473Y-74232070D01*
X151615202Y-74077255D01*
X151615202Y-74077253D01*
X151614512Y-74070692D01*
X151574053Y-73946173D01*
X151572025Y-73875206D01*
X151600248Y-73822929D01*
X151608135Y-73814169D01*
X151608138Y-73814165D01*
X151612558Y-73809256D01*
X151655608Y-73734691D01*
X151706990Y-73685698D01*
X151776704Y-73672262D01*
X151838787Y-73695755D01*
X151861430Y-73712206D01*
X151861436Y-73712209D01*
X151866777Y-73716090D01*
X151872805Y-73718774D01*
X151872807Y-73718775D01*
X152035210Y-73791081D01*
X152041241Y-73793766D01*
X152134642Y-73813619D01*
X152221585Y-73832100D01*
X152221590Y-73832100D01*
X152228042Y-73833472D01*
X152419016Y-73833472D01*
X152425468Y-73832100D01*
X152425473Y-73832100D01*
X152512416Y-73813619D01*
X152605817Y-73793766D01*
X152611848Y-73791081D01*
X152774251Y-73718775D01*
X152774253Y-73718774D01*
X152780281Y-73716090D01*
X152934782Y-73603838D01*
X152939204Y-73598927D01*
X153058150Y-73466824D01*
X153058151Y-73466823D01*
X153062569Y-73461916D01*
X153158056Y-73296528D01*
X153217071Y-73114900D01*
X153221149Y-73076106D01*
X153236343Y-72931537D01*
X153237033Y-72924972D01*
X153230865Y-72866288D01*
X157870096Y-72866288D01*
X157890058Y-73056216D01*
X157949073Y-73237844D01*
X158044560Y-73403232D01*
X158048978Y-73408139D01*
X158048979Y-73408140D01*
X158092251Y-73456198D01*
X158172347Y-73545154D01*
X158246359Y-73598927D01*
X158315829Y-73649400D01*
X158326848Y-73657406D01*
X158332876Y-73660090D01*
X158332878Y-73660091D01*
X158483222Y-73727028D01*
X158501312Y-73735082D01*
X158594713Y-73754935D01*
X158681656Y-73773416D01*
X158681661Y-73773416D01*
X158688113Y-73774788D01*
X158879087Y-73774788D01*
X158885539Y-73773416D01*
X158885544Y-73773416D01*
X158972487Y-73754935D01*
X159065888Y-73735082D01*
X159083978Y-73727028D01*
X159234322Y-73660091D01*
X159234324Y-73660090D01*
X159240352Y-73657406D01*
X159251372Y-73649400D01*
X159320841Y-73598927D01*
X159394853Y-73545154D01*
X159474949Y-73456198D01*
X159518221Y-73408140D01*
X159518222Y-73408139D01*
X159522640Y-73403232D01*
X159618127Y-73237844D01*
X159677142Y-73056216D01*
X159697104Y-72866288D01*
X159677142Y-72676360D01*
X159618127Y-72494732D01*
X159591354Y-72448359D01*
X159564672Y-72402146D01*
X159522640Y-72329344D01*
X159394853Y-72187422D01*
X159290632Y-72111701D01*
X159245694Y-72079051D01*
X159245693Y-72079050D01*
X159240352Y-72075170D01*
X159234324Y-72072486D01*
X159234322Y-72072485D01*
X159071919Y-72000179D01*
X159071918Y-72000179D01*
X159065888Y-71997494D01*
X158972488Y-71977641D01*
X158885544Y-71959160D01*
X158885539Y-71959160D01*
X158879087Y-71957788D01*
X158688113Y-71957788D01*
X158681661Y-71959160D01*
X158681656Y-71959160D01*
X158594712Y-71977641D01*
X158501312Y-71997494D01*
X158495282Y-72000179D01*
X158495281Y-72000179D01*
X158332878Y-72072485D01*
X158332876Y-72072486D01*
X158326848Y-72075170D01*
X158321507Y-72079050D01*
X158321506Y-72079051D01*
X158276568Y-72111701D01*
X158172347Y-72187422D01*
X158044560Y-72329344D01*
X158002528Y-72402146D01*
X157975847Y-72448359D01*
X157949073Y-72494732D01*
X157890058Y-72676360D01*
X157870096Y-72866288D01*
X153230865Y-72866288D01*
X153217071Y-72735044D01*
X153158056Y-72553416D01*
X153132731Y-72509551D01*
X153065870Y-72393746D01*
X153062569Y-72388028D01*
X152992710Y-72310441D01*
X152939204Y-72251017D01*
X152939203Y-72251016D01*
X152934782Y-72246106D01*
X152780281Y-72133854D01*
X152774253Y-72131170D01*
X152774251Y-72131169D01*
X152611848Y-72058863D01*
X152611847Y-72058863D01*
X152605817Y-72056178D01*
X152512416Y-72036325D01*
X152425473Y-72017844D01*
X152425468Y-72017844D01*
X152419016Y-72016472D01*
X152228042Y-72016472D01*
X152221590Y-72017844D01*
X152221585Y-72017844D01*
X152134642Y-72036325D01*
X152041241Y-72056178D01*
X152035211Y-72058863D01*
X152035210Y-72058863D01*
X151872807Y-72131169D01*
X151872805Y-72131170D01*
X151866777Y-72133854D01*
X151712276Y-72246106D01*
X151707855Y-72251016D01*
X151707854Y-72251017D01*
X151654349Y-72310441D01*
X151584489Y-72388028D01*
X151549657Y-72448359D01*
X151541439Y-72462593D01*
X151490057Y-72511586D01*
X151420343Y-72525022D01*
X151358260Y-72501529D01*
X151335617Y-72485078D01*
X151335611Y-72485075D01*
X151330270Y-72481194D01*
X151324242Y-72478510D01*
X151324240Y-72478509D01*
X151161837Y-72406203D01*
X151161836Y-72406203D01*
X151155806Y-72403518D01*
X151062405Y-72383665D01*
X150975462Y-72365184D01*
X150975457Y-72365184D01*
X150969005Y-72363812D01*
X150778031Y-72363812D01*
X150771579Y-72365184D01*
X150771574Y-72365184D01*
X150684631Y-72383665D01*
X150591230Y-72403518D01*
X150585200Y-72406203D01*
X150585199Y-72406203D01*
X150422796Y-72478509D01*
X150422794Y-72478510D01*
X150416766Y-72481194D01*
X150411425Y-72485074D01*
X150411424Y-72485075D01*
X150389482Y-72501017D01*
X150262265Y-72593446D01*
X150257844Y-72598356D01*
X150257843Y-72598357D01*
X150181700Y-72682923D01*
X150134478Y-72735368D01*
X150038991Y-72900756D01*
X149979976Y-73082384D01*
X149979286Y-73088945D01*
X149979286Y-73088947D01*
X149968121Y-73195175D01*
X149960014Y-73272312D01*
X149960704Y-73278877D01*
X149972928Y-73395178D01*
X149979976Y-73462240D01*
X149982016Y-73468518D01*
X150020435Y-73586759D01*
X150022463Y-73657726D01*
X149994240Y-73710003D01*
X149986353Y-73718763D01*
X149986350Y-73718767D01*
X149981930Y-73723676D01*
X149978627Y-73729397D01*
X149892225Y-73879050D01*
X149886443Y-73889064D01*
X149827428Y-74070692D01*
X149826738Y-74077253D01*
X149826738Y-74077255D01*
X149810467Y-74232070D01*
X149807466Y-74260620D01*
X149207143Y-74260620D01*
X149204142Y-74232070D01*
X149145127Y-74050442D01*
X149049640Y-73885054D01*
X149037893Y-73872007D01*
X148926275Y-73748043D01*
X148926274Y-73748042D01*
X148921853Y-73743132D01*
X148800378Y-73654875D01*
X148772694Y-73634761D01*
X148772693Y-73634760D01*
X148767352Y-73630880D01*
X148761324Y-73628196D01*
X148761322Y-73628195D01*
X148598919Y-73555889D01*
X148598918Y-73555889D01*
X148592888Y-73553204D01*
X148499488Y-73533351D01*
X148412544Y-73514870D01*
X148412539Y-73514870D01*
X148406087Y-73513498D01*
X148323527Y-73513498D01*
X148255406Y-73493496D01*
X148208913Y-73439840D01*
X148201820Y-73420109D01*
X148200719Y-73415998D01*
X148142884Y-73200157D01*
X148106056Y-73121178D01*
X148048449Y-72997638D01*
X148048446Y-72997633D01*
X148046123Y-72992651D01*
X147962239Y-72872853D01*
X147917957Y-72809611D01*
X147917955Y-72809608D01*
X147914798Y-72805100D01*
X147752900Y-72643202D01*
X147748392Y-72640045D01*
X147748389Y-72640043D01*
X147670211Y-72585302D01*
X147565349Y-72511877D01*
X147560367Y-72509554D01*
X147560362Y-72509551D01*
X147526143Y-72493595D01*
X147472858Y-72446678D01*
X147453397Y-72378401D01*
X147473939Y-72310441D01*
X147526143Y-72265205D01*
X147560362Y-72249249D01*
X147560367Y-72249246D01*
X147565349Y-72246923D01*
X147670211Y-72173498D01*
X147748389Y-72118757D01*
X147748392Y-72118755D01*
X147752900Y-72115598D01*
X147914798Y-71953700D01*
X148046123Y-71766149D01*
X148048446Y-71761167D01*
X148048449Y-71761162D01*
X148140561Y-71563625D01*
X148140561Y-71563624D01*
X148142884Y-71558643D01*
X148202143Y-71337487D01*
X148222098Y-71109400D01*
X148202143Y-70881313D01*
X148200305Y-70874452D01*
X148144307Y-70665467D01*
X148144306Y-70665465D01*
X148142884Y-70660157D01*
X148140561Y-70655175D01*
X148048449Y-70457638D01*
X148048446Y-70457633D01*
X148046123Y-70452651D01*
X147962062Y-70332600D01*
X156947496Y-70332600D01*
X156967458Y-70522528D01*
X157026473Y-70704156D01*
X157121960Y-70869544D01*
X157249747Y-71011466D01*
X157348843Y-71083464D01*
X157392077Y-71114875D01*
X157404248Y-71123718D01*
X157410276Y-71126402D01*
X157410278Y-71126403D01*
X157572681Y-71198709D01*
X157578712Y-71201394D01*
X157672112Y-71221247D01*
X157759056Y-71239728D01*
X157759061Y-71239728D01*
X157765513Y-71241100D01*
X157956487Y-71241100D01*
X157962939Y-71239728D01*
X157962944Y-71239728D01*
X158049888Y-71221247D01*
X158143288Y-71201394D01*
X158149319Y-71198709D01*
X158311722Y-71126403D01*
X158311724Y-71126402D01*
X158317752Y-71123718D01*
X158329924Y-71114875D01*
X158373157Y-71083464D01*
X158472253Y-71011466D01*
X158600040Y-70869544D01*
X158695527Y-70704156D01*
X158754542Y-70522528D01*
X158774504Y-70332600D01*
X158754542Y-70142672D01*
X158695527Y-69961044D01*
X158600040Y-69795656D01*
X158577337Y-69770441D01*
X158476675Y-69658645D01*
X158476674Y-69658644D01*
X158472253Y-69653734D01*
X158369056Y-69578757D01*
X158323094Y-69545363D01*
X158323093Y-69545362D01*
X158317752Y-69541482D01*
X158311724Y-69538798D01*
X158311722Y-69538797D01*
X158149319Y-69466491D01*
X158149318Y-69466491D01*
X158143288Y-69463806D01*
X158049887Y-69443953D01*
X157962944Y-69425472D01*
X157962939Y-69425472D01*
X157956487Y-69424100D01*
X157765513Y-69424100D01*
X157759061Y-69425472D01*
X157759056Y-69425472D01*
X157672113Y-69443953D01*
X157578712Y-69463806D01*
X157572682Y-69466491D01*
X157572681Y-69466491D01*
X157410278Y-69538797D01*
X157410276Y-69538798D01*
X157404248Y-69541482D01*
X157398907Y-69545362D01*
X157398906Y-69545363D01*
X157352944Y-69578757D01*
X157249747Y-69653734D01*
X157245326Y-69658644D01*
X157245325Y-69658645D01*
X157144664Y-69770441D01*
X157121960Y-69795656D01*
X157026473Y-69961044D01*
X156967458Y-70142672D01*
X156947496Y-70332600D01*
X147962062Y-70332600D01*
X147914798Y-70265100D01*
X147752900Y-70103202D01*
X147748392Y-70100045D01*
X147748389Y-70100043D01*
X147670211Y-70045302D01*
X147565349Y-69971877D01*
X147560367Y-69969554D01*
X147560362Y-69969551D01*
X147526143Y-69953595D01*
X147472858Y-69906678D01*
X147453397Y-69838401D01*
X147473939Y-69770441D01*
X147526143Y-69725205D01*
X147560362Y-69709249D01*
X147560367Y-69709246D01*
X147565349Y-69706923D01*
X147670211Y-69633498D01*
X147748389Y-69578757D01*
X147748392Y-69578755D01*
X147752900Y-69575598D01*
X147914798Y-69413700D01*
X148046123Y-69226149D01*
X148048446Y-69221167D01*
X148048449Y-69221162D01*
X148140561Y-69023625D01*
X148140561Y-69023624D01*
X148142884Y-69018643D01*
X148202143Y-68797487D01*
X148222098Y-68569400D01*
X148202143Y-68341313D01*
X148142884Y-68120157D01*
X148140561Y-68115175D01*
X148048449Y-67917638D01*
X148048446Y-67917633D01*
X148046123Y-67912651D01*
X147914798Y-67725100D01*
X147752900Y-67563202D01*
X147748392Y-67560045D01*
X147748389Y-67560043D01*
X147670211Y-67505302D01*
X147565349Y-67431877D01*
X147560367Y-67429554D01*
X147560362Y-67429551D01*
X147526143Y-67413595D01*
X147472858Y-67366678D01*
X147453397Y-67298401D01*
X147473939Y-67230441D01*
X147526143Y-67185205D01*
X147560362Y-67169249D01*
X147560367Y-67169246D01*
X147565349Y-67166923D01*
X147670211Y-67093498D01*
X147748389Y-67038757D01*
X147748392Y-67038755D01*
X147752900Y-67035598D01*
X147914798Y-66873700D01*
X148046123Y-66686149D01*
X148048446Y-66681167D01*
X148048449Y-66681162D01*
X148140561Y-66483625D01*
X148140561Y-66483624D01*
X148142884Y-66478643D01*
X148202143Y-66257487D01*
X148222098Y-66029400D01*
X148202143Y-65801313D01*
X148142884Y-65580157D01*
X148140561Y-65575175D01*
X148048449Y-65377638D01*
X148048446Y-65377633D01*
X148046123Y-65372651D01*
X147914798Y-65185100D01*
X147752900Y-65023202D01*
X147748389Y-65020043D01*
X147744176Y-65016508D01*
X147745127Y-65015374D01*
X147705129Y-64965329D01*
X147697824Y-64894710D01*
X147729858Y-64831351D01*
X147791062Y-64795370D01*
X147808117Y-64792318D01*
X147818916Y-64791145D01*
X147955305Y-64740015D01*
X148071861Y-64652661D01*
X148159215Y-64536105D01*
X148210345Y-64399716D01*
X148217100Y-64337534D01*
X148217100Y-62641266D01*
X148210345Y-62579084D01*
X148159215Y-62442695D01*
X148071861Y-62326139D01*
X148009666Y-62279526D01*
X147967151Y-62222666D01*
X147962126Y-62151848D01*
X147996185Y-62089555D01*
X148058517Y-62055565D01*
X148085231Y-62052700D01*
X161565089Y-62052700D01*
X161633210Y-62072702D01*
G37*
G04 #@! TD.AperFunction*
M02*
