G04 #@! TF.GenerationSoftware,KiCad,Pcbnew,(5.1.10-1-10_14)*
G04 #@! TF.CreationDate,2021-10-29T12:58:21+02:00*
G04 #@! TF.ProjectId,soj36_to_dip,736f6a33-365f-4746-9f5f-6469702e6b69,rev?*
G04 #@! TF.SameCoordinates,Original*
G04 #@! TF.FileFunction,Copper,L2,Inr*
G04 #@! TF.FilePolarity,Positive*
%FSLAX46Y46*%
G04 Gerber Fmt 4.6, Leading zero omitted, Abs format (unit mm)*
G04 Created by KiCad (PCBNEW (5.1.10-1-10_14)) date 2021-10-29 12:58:21*
%MOMM*%
%LPD*%
G01*
G04 APERTURE LIST*
G04 #@! TA.AperFunction,ComponentPad*
%ADD10O,1.600000X1.600000*%
G04 #@! TD*
G04 #@! TA.AperFunction,ComponentPad*
%ADD11R,1.600000X1.600000*%
G04 #@! TD*
G04 #@! TA.AperFunction,ViaPad*
%ADD12C,0.800000*%
G04 #@! TD*
G04 #@! TA.AperFunction,Conductor*
%ADD13C,0.254000*%
G04 #@! TD*
G04 #@! TA.AperFunction,Conductor*
%ADD14C,0.100000*%
G04 #@! TD*
G04 APERTURE END LIST*
D10*
X162148600Y-63489400D03*
X146908600Y-101589400D03*
X162148600Y-66029400D03*
X146908600Y-99049400D03*
X162148600Y-68569400D03*
X146908600Y-96509400D03*
X162148600Y-71109400D03*
X146908600Y-93969400D03*
X162148600Y-73649400D03*
X146908600Y-91429400D03*
X162148600Y-76189400D03*
X146908600Y-88889400D03*
X162148600Y-78729400D03*
X146908600Y-86349400D03*
X162148600Y-81269400D03*
X146908600Y-83809400D03*
X162148600Y-83809400D03*
X146908600Y-81269400D03*
X162148600Y-86349400D03*
X146908600Y-78729400D03*
X162148600Y-88889400D03*
X146908600Y-76189400D03*
X162148600Y-91429400D03*
X146908600Y-73649400D03*
X162148600Y-93969400D03*
X146908600Y-71109400D03*
X162148600Y-96509400D03*
X146908600Y-68569400D03*
X162148600Y-99049400D03*
X146908600Y-66029400D03*
X162148600Y-101589400D03*
D11*
X146908600Y-63489400D03*
D12*
X158783600Y-72866288D03*
X157861000Y-75615800D03*
X161352784Y-87737583D03*
X160528000Y-82550000D03*
X153111200Y-75438000D03*
X154279600Y-86741000D03*
X152095200Y-90474800D03*
X157759400Y-81889600D03*
X151434800Y-83083400D03*
X155752800Y-90424000D03*
X152247600Y-69875400D03*
X156641800Y-77393800D03*
X154051000Y-71729600D03*
X157480000Y-79756000D03*
X149428200Y-96266000D03*
X159740600Y-98831400D03*
X149453600Y-67360800D03*
X158877000Y-63550800D03*
X151663400Y-63169800D03*
X160477200Y-84861400D03*
X158658669Y-85979000D03*
X155858625Y-85244400D03*
X156152415Y-87878011D03*
X153886433Y-83070422D03*
X153949400Y-78740000D03*
X157480000Y-90652600D03*
X151351979Y-92287532D03*
X151351979Y-91287519D03*
X152313925Y-76038810D03*
X151307799Y-89992199D03*
X152349200Y-77470000D03*
X151406136Y-88337936D03*
X151892000Y-79324200D03*
X151522452Y-87210980D03*
X157861000Y-70332600D03*
X150598878Y-86827528D03*
X156410988Y-74263972D03*
X151801990Y-93188813D03*
X154336444Y-80854837D03*
X155385610Y-84363332D03*
X148107400Y-77089000D03*
X148310600Y-74421998D03*
X150720970Y-74260620D03*
X150873518Y-73272312D03*
X152323529Y-72924972D03*
D13*
X161468873Y-62217720D02*
X161233841Y-62374763D01*
X161033963Y-62574641D01*
X160876920Y-62809673D01*
X160768747Y-63070826D01*
X160713600Y-63348065D01*
X160713600Y-63630735D01*
X160768747Y-63907974D01*
X160876920Y-64169127D01*
X161033963Y-64404159D01*
X161233841Y-64604037D01*
X161466359Y-64759400D01*
X161233841Y-64914763D01*
X161033963Y-65114641D01*
X160876920Y-65349673D01*
X160768747Y-65610826D01*
X160713600Y-65888065D01*
X160713600Y-66170735D01*
X160768747Y-66447974D01*
X160876920Y-66709127D01*
X161033963Y-66944159D01*
X161233841Y-67144037D01*
X161466359Y-67299400D01*
X161233841Y-67454763D01*
X161033963Y-67654641D01*
X160876920Y-67889673D01*
X160768747Y-68150826D01*
X160713600Y-68428065D01*
X160713600Y-68710735D01*
X160768747Y-68987974D01*
X160876920Y-69249127D01*
X161033963Y-69484159D01*
X161233841Y-69684037D01*
X161466359Y-69839400D01*
X161233841Y-69994763D01*
X161033963Y-70194641D01*
X160876920Y-70429673D01*
X160768747Y-70690826D01*
X160713600Y-70968065D01*
X160713600Y-71250735D01*
X160768747Y-71527974D01*
X160876920Y-71789127D01*
X161033963Y-72024159D01*
X161233841Y-72224037D01*
X161466359Y-72379400D01*
X161233841Y-72534763D01*
X161033963Y-72734641D01*
X160876920Y-72969673D01*
X160768747Y-73230826D01*
X160713600Y-73508065D01*
X160713600Y-73790735D01*
X160768747Y-74067974D01*
X160876920Y-74329127D01*
X161033963Y-74564159D01*
X161233841Y-74764037D01*
X161466359Y-74919400D01*
X161233841Y-75074763D01*
X161033963Y-75274641D01*
X160876920Y-75509673D01*
X160768747Y-75770826D01*
X160713600Y-76048065D01*
X160713600Y-76330735D01*
X160768747Y-76607974D01*
X160876920Y-76869127D01*
X161033963Y-77104159D01*
X161233841Y-77304037D01*
X161466359Y-77459400D01*
X161233841Y-77614763D01*
X161033963Y-77814641D01*
X160876920Y-78049673D01*
X160768747Y-78310826D01*
X160713600Y-78588065D01*
X160713600Y-78870735D01*
X160768747Y-79147974D01*
X160876920Y-79409127D01*
X161033963Y-79644159D01*
X161233841Y-79844037D01*
X161466359Y-79999400D01*
X161233841Y-80154763D01*
X161033963Y-80354641D01*
X160876920Y-80589673D01*
X160768747Y-80850826D01*
X160713600Y-81128065D01*
X160713600Y-81410735D01*
X160738641Y-81536622D01*
X160629939Y-81515000D01*
X160426061Y-81515000D01*
X160226102Y-81554774D01*
X160037744Y-81632795D01*
X159868226Y-81746063D01*
X159724063Y-81890226D01*
X159610795Y-82059744D01*
X159532774Y-82248102D01*
X159493000Y-82448061D01*
X159493000Y-82651939D01*
X159532774Y-82851898D01*
X159610795Y-83040256D01*
X159724063Y-83209774D01*
X159868226Y-83353937D01*
X160037744Y-83467205D01*
X160226102Y-83545226D01*
X160426061Y-83585000D01*
X160629939Y-83585000D01*
X160734250Y-83564251D01*
X160713600Y-83668065D01*
X160713600Y-83853146D01*
X160579139Y-83826400D01*
X160375261Y-83826400D01*
X160175302Y-83866174D01*
X159986944Y-83944195D01*
X159817426Y-84057463D01*
X159673263Y-84201626D01*
X159559995Y-84371144D01*
X159481974Y-84559502D01*
X159442200Y-84759461D01*
X159442200Y-84963339D01*
X159481974Y-85163298D01*
X159559995Y-85351656D01*
X159673263Y-85521174D01*
X159817426Y-85665337D01*
X159986944Y-85778605D01*
X160175302Y-85856626D01*
X160375261Y-85896400D01*
X160579139Y-85896400D01*
X160779098Y-85856626D01*
X160803703Y-85846434D01*
X160768747Y-85930826D01*
X160713600Y-86208065D01*
X160713600Y-86490735D01*
X160768747Y-86767974D01*
X160806077Y-86858097D01*
X160693010Y-86933646D01*
X160548847Y-87077809D01*
X160435579Y-87247327D01*
X160357558Y-87435685D01*
X160317784Y-87635644D01*
X160317784Y-87839522D01*
X160357558Y-88039481D01*
X160435579Y-88227839D01*
X160548847Y-88397357D01*
X160693010Y-88541520D01*
X160747449Y-88577895D01*
X160713600Y-88748065D01*
X160713600Y-89030735D01*
X160768747Y-89307974D01*
X160876920Y-89569127D01*
X161033963Y-89804159D01*
X161233841Y-90004037D01*
X161466359Y-90159400D01*
X161233841Y-90314763D01*
X161033963Y-90514641D01*
X160876920Y-90749673D01*
X160768747Y-91010826D01*
X160713600Y-91288065D01*
X160713600Y-91570735D01*
X160768747Y-91847974D01*
X160876920Y-92109127D01*
X161033963Y-92344159D01*
X161233841Y-92544037D01*
X161466359Y-92699400D01*
X161233841Y-92854763D01*
X161033963Y-93054641D01*
X160876920Y-93289673D01*
X160768747Y-93550826D01*
X160713600Y-93828065D01*
X160713600Y-94110735D01*
X160768747Y-94387974D01*
X160876920Y-94649127D01*
X161033963Y-94884159D01*
X161233841Y-95084037D01*
X161466359Y-95239400D01*
X161233841Y-95394763D01*
X161033963Y-95594641D01*
X160876920Y-95829673D01*
X160768747Y-96090826D01*
X160713600Y-96368065D01*
X160713600Y-96650735D01*
X160768747Y-96927974D01*
X160876920Y-97189127D01*
X161033963Y-97424159D01*
X161233841Y-97624037D01*
X161466359Y-97779400D01*
X161233841Y-97934763D01*
X161033963Y-98134641D01*
X160876920Y-98369673D01*
X160768747Y-98630826D01*
X160713600Y-98908065D01*
X160713600Y-99190735D01*
X160768747Y-99467974D01*
X160876920Y-99729127D01*
X161033963Y-99964159D01*
X161233841Y-100164037D01*
X161466359Y-100319400D01*
X161233841Y-100474763D01*
X161033963Y-100674641D01*
X160876920Y-100909673D01*
X160768747Y-101170826D01*
X160713600Y-101448065D01*
X160713600Y-101730735D01*
X160768747Y-102007974D01*
X160876920Y-102269127D01*
X161033963Y-102504159D01*
X161233841Y-102704037D01*
X161330766Y-102768800D01*
X147718686Y-102768800D01*
X147763731Y-102741785D01*
X147972119Y-102552814D01*
X148139637Y-102326820D01*
X148259846Y-102072487D01*
X148300504Y-101938439D01*
X148178515Y-101716400D01*
X147035600Y-101716400D01*
X147035600Y-101736400D01*
X146781600Y-101736400D01*
X146781600Y-101716400D01*
X146761600Y-101716400D01*
X146761600Y-101462400D01*
X146781600Y-101462400D01*
X146781600Y-101442400D01*
X147035600Y-101442400D01*
X147035600Y-101462400D01*
X148178515Y-101462400D01*
X148300504Y-101240361D01*
X148259846Y-101106313D01*
X148139637Y-100851980D01*
X147972119Y-100625986D01*
X147763731Y-100437015D01*
X147577735Y-100325467D01*
X147588327Y-100321080D01*
X147823359Y-100164037D01*
X148023237Y-99964159D01*
X148180280Y-99729127D01*
X148288453Y-99467974D01*
X148343600Y-99190735D01*
X148343600Y-98908065D01*
X148288453Y-98630826D01*
X148180280Y-98369673D01*
X148023237Y-98134641D01*
X147823359Y-97934763D01*
X147590841Y-97779400D01*
X147823359Y-97624037D01*
X148023237Y-97424159D01*
X148180280Y-97189127D01*
X148288453Y-96927974D01*
X148343600Y-96650735D01*
X148343600Y-96368065D01*
X148288453Y-96090826D01*
X148180280Y-95829673D01*
X148023237Y-95594641D01*
X147823359Y-95394763D01*
X147590841Y-95239400D01*
X147823359Y-95084037D01*
X148023237Y-94884159D01*
X148180280Y-94649127D01*
X148288453Y-94387974D01*
X148343600Y-94110735D01*
X148343600Y-93828065D01*
X148288453Y-93550826D01*
X148180280Y-93289673D01*
X148023237Y-93054641D01*
X147823359Y-92854763D01*
X147590841Y-92699400D01*
X147823359Y-92544037D01*
X148023237Y-92344159D01*
X148180280Y-92109127D01*
X148288453Y-91847974D01*
X148343600Y-91570735D01*
X148343600Y-91288065D01*
X148288453Y-91010826D01*
X148180280Y-90749673D01*
X148023237Y-90514641D01*
X147823359Y-90314763D01*
X147590841Y-90159400D01*
X147823359Y-90004037D01*
X148023237Y-89804159D01*
X148180280Y-89569127D01*
X148288453Y-89307974D01*
X148343600Y-89030735D01*
X148343600Y-88748065D01*
X148288453Y-88470826D01*
X148180280Y-88209673D01*
X148023237Y-87974641D01*
X147823359Y-87774763D01*
X147590841Y-87619400D01*
X147823359Y-87464037D01*
X148023237Y-87264159D01*
X148180280Y-87029127D01*
X148288453Y-86767974D01*
X148296884Y-86725589D01*
X149563878Y-86725589D01*
X149563878Y-86929467D01*
X149603652Y-87129426D01*
X149681673Y-87317784D01*
X149794941Y-87487302D01*
X149939104Y-87631465D01*
X150108622Y-87744733D01*
X150296980Y-87822754D01*
X150483858Y-87859926D01*
X150410910Y-88036038D01*
X150371136Y-88235997D01*
X150371136Y-88439875D01*
X150410910Y-88639834D01*
X150488931Y-88828192D01*
X150602199Y-88997710D01*
X150734782Y-89130293D01*
X150648025Y-89188262D01*
X150503862Y-89332425D01*
X150390594Y-89501943D01*
X150312573Y-89690301D01*
X150272799Y-89890260D01*
X150272799Y-90094138D01*
X150312573Y-90294097D01*
X150390594Y-90482455D01*
X150503862Y-90651973D01*
X150520642Y-90668753D01*
X150434774Y-90797263D01*
X150356753Y-90985621D01*
X150316979Y-91185580D01*
X150316979Y-91389458D01*
X150356753Y-91589417D01*
X150434774Y-91777775D01*
X150441289Y-91787525D01*
X150434774Y-91797276D01*
X150356753Y-91985634D01*
X150316979Y-92185593D01*
X150316979Y-92389471D01*
X150356753Y-92589430D01*
X150434774Y-92777788D01*
X150548042Y-92947306D01*
X150692205Y-93091469D01*
X150766990Y-93141439D01*
X150766990Y-93290752D01*
X150806764Y-93490711D01*
X150884785Y-93679069D01*
X150998053Y-93848587D01*
X151142216Y-93992750D01*
X151311734Y-94106018D01*
X151500092Y-94184039D01*
X151700051Y-94223813D01*
X151903929Y-94223813D01*
X152103888Y-94184039D01*
X152292246Y-94106018D01*
X152461764Y-93992750D01*
X152605927Y-93848587D01*
X152719195Y-93679069D01*
X152797216Y-93490711D01*
X152836990Y-93290752D01*
X152836990Y-93086874D01*
X152797216Y-92886915D01*
X152719195Y-92698557D01*
X152605927Y-92529039D01*
X152461764Y-92384876D01*
X152386979Y-92334906D01*
X152386979Y-92185593D01*
X152347205Y-91985634D01*
X152269184Y-91797276D01*
X152262669Y-91787525D01*
X152269184Y-91777775D01*
X152347205Y-91589417D01*
X152386979Y-91389458D01*
X152386979Y-91185580D01*
X152347205Y-90985621D01*
X152269184Y-90797263D01*
X152155916Y-90627745D01*
X152139136Y-90610965D01*
X152179430Y-90550661D01*
X156445000Y-90550661D01*
X156445000Y-90754539D01*
X156484774Y-90954498D01*
X156562795Y-91142856D01*
X156676063Y-91312374D01*
X156820226Y-91456537D01*
X156989744Y-91569805D01*
X157178102Y-91647826D01*
X157378061Y-91687600D01*
X157581939Y-91687600D01*
X157781898Y-91647826D01*
X157970256Y-91569805D01*
X158139774Y-91456537D01*
X158283937Y-91312374D01*
X158397205Y-91142856D01*
X158475226Y-90954498D01*
X158515000Y-90754539D01*
X158515000Y-90550661D01*
X158475226Y-90350702D01*
X158397205Y-90162344D01*
X158283937Y-89992826D01*
X158139774Y-89848663D01*
X157970256Y-89735395D01*
X157781898Y-89657374D01*
X157581939Y-89617600D01*
X157378061Y-89617600D01*
X157178102Y-89657374D01*
X156989744Y-89735395D01*
X156820226Y-89848663D01*
X156676063Y-89992826D01*
X156562795Y-90162344D01*
X156484774Y-90350702D01*
X156445000Y-90550661D01*
X152179430Y-90550661D01*
X152225004Y-90482455D01*
X152303025Y-90294097D01*
X152342799Y-90094138D01*
X152342799Y-89890260D01*
X152303025Y-89690301D01*
X152225004Y-89501943D01*
X152111736Y-89332425D01*
X151979153Y-89199842D01*
X152065910Y-89141873D01*
X152210073Y-88997710D01*
X152323341Y-88828192D01*
X152401362Y-88639834D01*
X152441136Y-88439875D01*
X152441136Y-88235997D01*
X152401362Y-88036038D01*
X152330407Y-87864740D01*
X152389653Y-87776072D01*
X155117415Y-87776072D01*
X155117415Y-87979950D01*
X155157189Y-88179909D01*
X155235210Y-88368267D01*
X155348478Y-88537785D01*
X155492641Y-88681948D01*
X155662159Y-88795216D01*
X155850517Y-88873237D01*
X156050476Y-88913011D01*
X156254354Y-88913011D01*
X156454313Y-88873237D01*
X156642671Y-88795216D01*
X156812189Y-88681948D01*
X156956352Y-88537785D01*
X157069620Y-88368267D01*
X157147641Y-88179909D01*
X157187415Y-87979950D01*
X157187415Y-87776072D01*
X157147641Y-87576113D01*
X157069620Y-87387755D01*
X156956352Y-87218237D01*
X156812189Y-87074074D01*
X156642671Y-86960806D01*
X156454313Y-86882785D01*
X156254354Y-86843011D01*
X156050476Y-86843011D01*
X155850517Y-86882785D01*
X155662159Y-86960806D01*
X155492641Y-87074074D01*
X155348478Y-87218237D01*
X155235210Y-87387755D01*
X155157189Y-87576113D01*
X155117415Y-87776072D01*
X152389653Y-87776072D01*
X152439657Y-87701236D01*
X152517678Y-87512878D01*
X152557452Y-87312919D01*
X152557452Y-87109041D01*
X152517678Y-86909082D01*
X152439657Y-86720724D01*
X152326389Y-86551206D01*
X152182226Y-86407043D01*
X152012708Y-86293775D01*
X151824350Y-86215754D01*
X151624391Y-86175980D01*
X151420513Y-86175980D01*
X151409743Y-86178122D01*
X151402815Y-86167754D01*
X151258652Y-86023591D01*
X151089134Y-85910323D01*
X150900776Y-85832302D01*
X150700817Y-85792528D01*
X150496939Y-85792528D01*
X150296980Y-85832302D01*
X150108622Y-85910323D01*
X149939104Y-86023591D01*
X149794941Y-86167754D01*
X149681673Y-86337272D01*
X149603652Y-86525630D01*
X149563878Y-86725589D01*
X148296884Y-86725589D01*
X148343600Y-86490735D01*
X148343600Y-86208065D01*
X148288453Y-85930826D01*
X148180280Y-85669673D01*
X148023237Y-85434641D01*
X147823359Y-85234763D01*
X147590841Y-85079400D01*
X147823359Y-84924037D01*
X148023237Y-84724159D01*
X148180280Y-84489127D01*
X148288453Y-84227974D01*
X148343600Y-83950735D01*
X148343600Y-83668065D01*
X148288453Y-83390826D01*
X148180280Y-83129673D01*
X148072577Y-82968483D01*
X152851433Y-82968483D01*
X152851433Y-83172361D01*
X152891207Y-83372320D01*
X152969228Y-83560678D01*
X153082496Y-83730196D01*
X153226659Y-83874359D01*
X153396177Y-83987627D01*
X153584535Y-84065648D01*
X153784494Y-84105422D01*
X153988372Y-84105422D01*
X154188331Y-84065648D01*
X154376689Y-83987627D01*
X154437896Y-83946730D01*
X154390384Y-84061434D01*
X154350610Y-84261393D01*
X154350610Y-84465271D01*
X154390384Y-84665230D01*
X154468405Y-84853588D01*
X154581673Y-85023106D01*
X154725836Y-85167269D01*
X154823625Y-85232609D01*
X154823625Y-85346339D01*
X154863399Y-85546298D01*
X154941420Y-85734656D01*
X155054688Y-85904174D01*
X155198851Y-86048337D01*
X155368369Y-86161605D01*
X155556727Y-86239626D01*
X155756686Y-86279400D01*
X155960564Y-86279400D01*
X156160523Y-86239626D01*
X156348881Y-86161605D01*
X156518399Y-86048337D01*
X156662562Y-85904174D01*
X156680678Y-85877061D01*
X157623669Y-85877061D01*
X157623669Y-86080939D01*
X157663443Y-86280898D01*
X157741464Y-86469256D01*
X157854732Y-86638774D01*
X157998895Y-86782937D01*
X158168413Y-86896205D01*
X158356771Y-86974226D01*
X158556730Y-87014000D01*
X158760608Y-87014000D01*
X158960567Y-86974226D01*
X159148925Y-86896205D01*
X159318443Y-86782937D01*
X159462606Y-86638774D01*
X159575874Y-86469256D01*
X159653895Y-86280898D01*
X159693669Y-86080939D01*
X159693669Y-85877061D01*
X159653895Y-85677102D01*
X159575874Y-85488744D01*
X159462606Y-85319226D01*
X159318443Y-85175063D01*
X159148925Y-85061795D01*
X158960567Y-84983774D01*
X158760608Y-84944000D01*
X158556730Y-84944000D01*
X158356771Y-84983774D01*
X158168413Y-85061795D01*
X157998895Y-85175063D01*
X157854732Y-85319226D01*
X157741464Y-85488744D01*
X157663443Y-85677102D01*
X157623669Y-85877061D01*
X156680678Y-85877061D01*
X156775830Y-85734656D01*
X156853851Y-85546298D01*
X156893625Y-85346339D01*
X156893625Y-85142461D01*
X156853851Y-84942502D01*
X156775830Y-84754144D01*
X156662562Y-84584626D01*
X156518399Y-84440463D01*
X156420610Y-84375123D01*
X156420610Y-84261393D01*
X156380836Y-84061434D01*
X156302815Y-83873076D01*
X156189547Y-83703558D01*
X156045384Y-83559395D01*
X155875866Y-83446127D01*
X155687508Y-83368106D01*
X155487549Y-83328332D01*
X155283671Y-83328332D01*
X155083712Y-83368106D01*
X154895354Y-83446127D01*
X154834147Y-83487024D01*
X154881659Y-83372320D01*
X154921433Y-83172361D01*
X154921433Y-82968483D01*
X154881659Y-82768524D01*
X154803638Y-82580166D01*
X154690370Y-82410648D01*
X154546207Y-82266485D01*
X154376689Y-82153217D01*
X154188331Y-82075196D01*
X153988372Y-82035422D01*
X153784494Y-82035422D01*
X153584535Y-82075196D01*
X153396177Y-82153217D01*
X153226659Y-82266485D01*
X153082496Y-82410648D01*
X152969228Y-82580166D01*
X152891207Y-82768524D01*
X152851433Y-82968483D01*
X148072577Y-82968483D01*
X148023237Y-82894641D01*
X147823359Y-82694763D01*
X147590841Y-82539400D01*
X147823359Y-82384037D01*
X148023237Y-82184159D01*
X148180280Y-81949127D01*
X148288453Y-81687974D01*
X148343600Y-81410735D01*
X148343600Y-81128065D01*
X148288453Y-80850826D01*
X148247890Y-80752898D01*
X153301444Y-80752898D01*
X153301444Y-80956776D01*
X153341218Y-81156735D01*
X153419239Y-81345093D01*
X153532507Y-81514611D01*
X153676670Y-81658774D01*
X153846188Y-81772042D01*
X154034546Y-81850063D01*
X154234505Y-81889837D01*
X154438383Y-81889837D01*
X154638342Y-81850063D01*
X154826700Y-81772042D01*
X154996218Y-81658774D01*
X155140381Y-81514611D01*
X155253649Y-81345093D01*
X155331670Y-81156735D01*
X155371444Y-80956776D01*
X155371444Y-80752898D01*
X155331670Y-80552939D01*
X155253649Y-80364581D01*
X155140381Y-80195063D01*
X154996218Y-80050900D01*
X154826700Y-79937632D01*
X154638342Y-79859611D01*
X154438383Y-79819837D01*
X154234505Y-79819837D01*
X154034546Y-79859611D01*
X153846188Y-79937632D01*
X153676670Y-80050900D01*
X153532507Y-80195063D01*
X153419239Y-80364581D01*
X153341218Y-80552939D01*
X153301444Y-80752898D01*
X148247890Y-80752898D01*
X148180280Y-80589673D01*
X148023237Y-80354641D01*
X147823359Y-80154763D01*
X147590841Y-79999400D01*
X147823359Y-79844037D01*
X148023237Y-79644159D01*
X148180280Y-79409127D01*
X148257682Y-79222261D01*
X150857000Y-79222261D01*
X150857000Y-79426139D01*
X150896774Y-79626098D01*
X150974795Y-79814456D01*
X151088063Y-79983974D01*
X151232226Y-80128137D01*
X151401744Y-80241405D01*
X151590102Y-80319426D01*
X151790061Y-80359200D01*
X151993939Y-80359200D01*
X152193898Y-80319426D01*
X152382256Y-80241405D01*
X152551774Y-80128137D01*
X152695937Y-79983974D01*
X152809205Y-79814456D01*
X152887226Y-79626098D01*
X152927000Y-79426139D01*
X152927000Y-79222261D01*
X152887226Y-79022302D01*
X152809205Y-78833944D01*
X152695937Y-78664426D01*
X152551774Y-78520263D01*
X152511086Y-78493076D01*
X152651098Y-78465226D01*
X152839456Y-78387205D01*
X153008974Y-78273937D01*
X153031508Y-78251403D01*
X152954174Y-78438102D01*
X152914400Y-78638061D01*
X152914400Y-78841939D01*
X152954174Y-79041898D01*
X153032195Y-79230256D01*
X153145463Y-79399774D01*
X153289626Y-79543937D01*
X153459144Y-79657205D01*
X153647502Y-79735226D01*
X153847461Y-79775000D01*
X154051339Y-79775000D01*
X154251298Y-79735226D01*
X154439656Y-79657205D01*
X154609174Y-79543937D01*
X154753337Y-79399774D01*
X154866605Y-79230256D01*
X154944626Y-79041898D01*
X154984400Y-78841939D01*
X154984400Y-78638061D01*
X154944626Y-78438102D01*
X154866605Y-78249744D01*
X154753337Y-78080226D01*
X154609174Y-77936063D01*
X154439656Y-77822795D01*
X154251298Y-77744774D01*
X154051339Y-77705000D01*
X153847461Y-77705000D01*
X153647502Y-77744774D01*
X153459144Y-77822795D01*
X153289626Y-77936063D01*
X153267092Y-77958597D01*
X153344426Y-77771898D01*
X153384200Y-77571939D01*
X153384200Y-77368061D01*
X153344426Y-77168102D01*
X153266405Y-76979744D01*
X153153137Y-76810226D01*
X153079679Y-76736768D01*
X153117862Y-76698584D01*
X153231130Y-76529066D01*
X153309151Y-76340708D01*
X153348925Y-76140749D01*
X153348925Y-75936871D01*
X153309151Y-75736912D01*
X153231130Y-75548554D01*
X153117862Y-75379036D01*
X152973699Y-75234873D01*
X152804181Y-75121605D01*
X152615823Y-75043584D01*
X152415864Y-75003810D01*
X152211986Y-75003810D01*
X152012027Y-75043584D01*
X151823669Y-75121605D01*
X151654151Y-75234873D01*
X151509988Y-75379036D01*
X151396720Y-75548554D01*
X151318699Y-75736912D01*
X151278925Y-75936871D01*
X151278925Y-76140749D01*
X151318699Y-76340708D01*
X151396720Y-76529066D01*
X151509988Y-76698584D01*
X151583447Y-76772043D01*
X151545263Y-76810226D01*
X151431995Y-76979744D01*
X151353974Y-77168102D01*
X151314200Y-77368061D01*
X151314200Y-77571939D01*
X151353974Y-77771898D01*
X151431995Y-77960256D01*
X151545263Y-78129774D01*
X151689426Y-78273937D01*
X151730114Y-78301124D01*
X151590102Y-78328974D01*
X151401744Y-78406995D01*
X151232226Y-78520263D01*
X151088063Y-78664426D01*
X150974795Y-78833944D01*
X150896774Y-79022302D01*
X150857000Y-79222261D01*
X148257682Y-79222261D01*
X148288453Y-79147974D01*
X148343600Y-78870735D01*
X148343600Y-78588065D01*
X148288453Y-78310826D01*
X148210936Y-78123682D01*
X148409298Y-78084226D01*
X148597656Y-78006205D01*
X148767174Y-77892937D01*
X148911337Y-77748774D01*
X149024605Y-77579256D01*
X149102626Y-77390898D01*
X149142400Y-77190939D01*
X149142400Y-76987061D01*
X149102626Y-76787102D01*
X149024605Y-76598744D01*
X148911337Y-76429226D01*
X148767174Y-76285063D01*
X148597656Y-76171795D01*
X148409298Y-76093774D01*
X148343600Y-76080706D01*
X148343600Y-76048065D01*
X148288453Y-75770826D01*
X148180280Y-75509673D01*
X148135339Y-75442413D01*
X148208661Y-75456998D01*
X148412539Y-75456998D01*
X148612498Y-75417224D01*
X148800856Y-75339203D01*
X148970374Y-75225935D01*
X149114537Y-75081772D01*
X149227805Y-74912254D01*
X149305826Y-74723896D01*
X149345600Y-74523937D01*
X149345600Y-74320059D01*
X149313501Y-74158681D01*
X149685970Y-74158681D01*
X149685970Y-74362559D01*
X149725744Y-74562518D01*
X149803765Y-74750876D01*
X149917033Y-74920394D01*
X150061196Y-75064557D01*
X150230714Y-75177825D01*
X150419072Y-75255846D01*
X150619031Y-75295620D01*
X150822909Y-75295620D01*
X151022868Y-75255846D01*
X151211226Y-75177825D01*
X151380744Y-75064557D01*
X151524907Y-74920394D01*
X151638175Y-74750876D01*
X151716196Y-74562518D01*
X151755970Y-74362559D01*
X151755970Y-74162033D01*
X155375988Y-74162033D01*
X155375988Y-74365911D01*
X155415762Y-74565870D01*
X155493783Y-74754228D01*
X155607051Y-74923746D01*
X155751214Y-75067909D01*
X155920732Y-75181177D01*
X156109090Y-75259198D01*
X156309049Y-75298972D01*
X156512927Y-75298972D01*
X156712886Y-75259198D01*
X156901244Y-75181177D01*
X156928216Y-75163155D01*
X156865774Y-75313902D01*
X156826000Y-75513861D01*
X156826000Y-75717739D01*
X156865774Y-75917698D01*
X156943795Y-76106056D01*
X157057063Y-76275574D01*
X157201226Y-76419737D01*
X157370744Y-76533005D01*
X157559102Y-76611026D01*
X157759061Y-76650800D01*
X157962939Y-76650800D01*
X158162898Y-76611026D01*
X158351256Y-76533005D01*
X158520774Y-76419737D01*
X158664937Y-76275574D01*
X158778205Y-76106056D01*
X158856226Y-75917698D01*
X158896000Y-75717739D01*
X158896000Y-75513861D01*
X158856226Y-75313902D01*
X158778205Y-75125544D01*
X158664937Y-74956026D01*
X158520774Y-74811863D01*
X158351256Y-74698595D01*
X158162898Y-74620574D01*
X157962939Y-74580800D01*
X157759061Y-74580800D01*
X157559102Y-74620574D01*
X157370744Y-74698595D01*
X157343772Y-74716617D01*
X157406214Y-74565870D01*
X157445988Y-74365911D01*
X157445988Y-74162033D01*
X157406214Y-73962074D01*
X157328193Y-73773716D01*
X157214925Y-73604198D01*
X157070762Y-73460035D01*
X156901244Y-73346767D01*
X156712886Y-73268746D01*
X156512927Y-73228972D01*
X156309049Y-73228972D01*
X156109090Y-73268746D01*
X155920732Y-73346767D01*
X155751214Y-73460035D01*
X155607051Y-73604198D01*
X155493783Y-73773716D01*
X155415762Y-73962074D01*
X155375988Y-74162033D01*
X151755970Y-74162033D01*
X151755970Y-74158681D01*
X151716196Y-73958722D01*
X151694559Y-73906487D01*
X151767082Y-73797950D01*
X151833273Y-73842177D01*
X152021631Y-73920198D01*
X152221590Y-73959972D01*
X152425468Y-73959972D01*
X152625427Y-73920198D01*
X152813785Y-73842177D01*
X152983303Y-73728909D01*
X153127466Y-73584746D01*
X153240734Y-73415228D01*
X153318755Y-73226870D01*
X153358529Y-73026911D01*
X153358529Y-72823033D01*
X153346857Y-72764349D01*
X157748600Y-72764349D01*
X157748600Y-72968227D01*
X157788374Y-73168186D01*
X157866395Y-73356544D01*
X157979663Y-73526062D01*
X158123826Y-73670225D01*
X158293344Y-73783493D01*
X158481702Y-73861514D01*
X158681661Y-73901288D01*
X158885539Y-73901288D01*
X159085498Y-73861514D01*
X159273856Y-73783493D01*
X159443374Y-73670225D01*
X159587537Y-73526062D01*
X159700805Y-73356544D01*
X159778826Y-73168186D01*
X159818600Y-72968227D01*
X159818600Y-72764349D01*
X159778826Y-72564390D01*
X159700805Y-72376032D01*
X159587537Y-72206514D01*
X159443374Y-72062351D01*
X159273856Y-71949083D01*
X159085498Y-71871062D01*
X158885539Y-71831288D01*
X158681661Y-71831288D01*
X158481702Y-71871062D01*
X158293344Y-71949083D01*
X158123826Y-72062351D01*
X157979663Y-72206514D01*
X157866395Y-72376032D01*
X157788374Y-72564390D01*
X157748600Y-72764349D01*
X153346857Y-72764349D01*
X153318755Y-72623074D01*
X153240734Y-72434716D01*
X153127466Y-72265198D01*
X152983303Y-72121035D01*
X152813785Y-72007767D01*
X152625427Y-71929746D01*
X152425468Y-71889972D01*
X152221590Y-71889972D01*
X152021631Y-71929746D01*
X151833273Y-72007767D01*
X151663755Y-72121035D01*
X151519592Y-72265198D01*
X151429965Y-72399334D01*
X151363774Y-72355107D01*
X151175416Y-72277086D01*
X150975457Y-72237312D01*
X150771579Y-72237312D01*
X150571620Y-72277086D01*
X150383262Y-72355107D01*
X150213744Y-72468375D01*
X150069581Y-72612538D01*
X149956313Y-72782056D01*
X149878292Y-72970414D01*
X149838518Y-73170373D01*
X149838518Y-73374251D01*
X149878292Y-73574210D01*
X149899929Y-73626445D01*
X149803765Y-73770364D01*
X149725744Y-73958722D01*
X149685970Y-74158681D01*
X149313501Y-74158681D01*
X149305826Y-74120100D01*
X149227805Y-73931742D01*
X149114537Y-73762224D01*
X148970374Y-73618061D01*
X148800856Y-73504793D01*
X148612498Y-73426772D01*
X148412539Y-73386998D01*
X148319518Y-73386998D01*
X148288453Y-73230826D01*
X148180280Y-72969673D01*
X148023237Y-72734641D01*
X147823359Y-72534763D01*
X147590841Y-72379400D01*
X147823359Y-72224037D01*
X148023237Y-72024159D01*
X148180280Y-71789127D01*
X148288453Y-71527974D01*
X148343600Y-71250735D01*
X148343600Y-70968065D01*
X148288453Y-70690826D01*
X148180280Y-70429673D01*
X148047305Y-70230661D01*
X156826000Y-70230661D01*
X156826000Y-70434539D01*
X156865774Y-70634498D01*
X156943795Y-70822856D01*
X157057063Y-70992374D01*
X157201226Y-71136537D01*
X157370744Y-71249805D01*
X157559102Y-71327826D01*
X157759061Y-71367600D01*
X157962939Y-71367600D01*
X158162898Y-71327826D01*
X158351256Y-71249805D01*
X158520774Y-71136537D01*
X158664937Y-70992374D01*
X158778205Y-70822856D01*
X158856226Y-70634498D01*
X158896000Y-70434539D01*
X158896000Y-70230661D01*
X158856226Y-70030702D01*
X158778205Y-69842344D01*
X158664937Y-69672826D01*
X158520774Y-69528663D01*
X158351256Y-69415395D01*
X158162898Y-69337374D01*
X157962939Y-69297600D01*
X157759061Y-69297600D01*
X157559102Y-69337374D01*
X157370744Y-69415395D01*
X157201226Y-69528663D01*
X157057063Y-69672826D01*
X156943795Y-69842344D01*
X156865774Y-70030702D01*
X156826000Y-70230661D01*
X148047305Y-70230661D01*
X148023237Y-70194641D01*
X147823359Y-69994763D01*
X147590841Y-69839400D01*
X147823359Y-69684037D01*
X148023237Y-69484159D01*
X148180280Y-69249127D01*
X148288453Y-68987974D01*
X148343600Y-68710735D01*
X148343600Y-68428065D01*
X148288453Y-68150826D01*
X148180280Y-67889673D01*
X148023237Y-67654641D01*
X147823359Y-67454763D01*
X147590841Y-67299400D01*
X147823359Y-67144037D01*
X148023237Y-66944159D01*
X148180280Y-66709127D01*
X148288453Y-66447974D01*
X148343600Y-66170735D01*
X148343600Y-65888065D01*
X148288453Y-65610826D01*
X148180280Y-65349673D01*
X148023237Y-65114641D01*
X147824639Y-64916043D01*
X147833082Y-64915212D01*
X147952780Y-64878902D01*
X148063094Y-64819937D01*
X148159785Y-64740585D01*
X148239137Y-64643894D01*
X148298102Y-64533580D01*
X148334412Y-64413882D01*
X148346672Y-64289400D01*
X148346672Y-62689400D01*
X148334412Y-62564918D01*
X148298102Y-62445220D01*
X148239137Y-62334906D01*
X148159785Y-62238215D01*
X148118337Y-62204200D01*
X161501513Y-62204200D01*
X161468873Y-62217720D01*
G04 #@! TA.AperFunction,Conductor*
D14*
G36*
X161468873Y-62217720D02*
G01*
X161233841Y-62374763D01*
X161033963Y-62574641D01*
X160876920Y-62809673D01*
X160768747Y-63070826D01*
X160713600Y-63348065D01*
X160713600Y-63630735D01*
X160768747Y-63907974D01*
X160876920Y-64169127D01*
X161033963Y-64404159D01*
X161233841Y-64604037D01*
X161466359Y-64759400D01*
X161233841Y-64914763D01*
X161033963Y-65114641D01*
X160876920Y-65349673D01*
X160768747Y-65610826D01*
X160713600Y-65888065D01*
X160713600Y-66170735D01*
X160768747Y-66447974D01*
X160876920Y-66709127D01*
X161033963Y-66944159D01*
X161233841Y-67144037D01*
X161466359Y-67299400D01*
X161233841Y-67454763D01*
X161033963Y-67654641D01*
X160876920Y-67889673D01*
X160768747Y-68150826D01*
X160713600Y-68428065D01*
X160713600Y-68710735D01*
X160768747Y-68987974D01*
X160876920Y-69249127D01*
X161033963Y-69484159D01*
X161233841Y-69684037D01*
X161466359Y-69839400D01*
X161233841Y-69994763D01*
X161033963Y-70194641D01*
X160876920Y-70429673D01*
X160768747Y-70690826D01*
X160713600Y-70968065D01*
X160713600Y-71250735D01*
X160768747Y-71527974D01*
X160876920Y-71789127D01*
X161033963Y-72024159D01*
X161233841Y-72224037D01*
X161466359Y-72379400D01*
X161233841Y-72534763D01*
X161033963Y-72734641D01*
X160876920Y-72969673D01*
X160768747Y-73230826D01*
X160713600Y-73508065D01*
X160713600Y-73790735D01*
X160768747Y-74067974D01*
X160876920Y-74329127D01*
X161033963Y-74564159D01*
X161233841Y-74764037D01*
X161466359Y-74919400D01*
X161233841Y-75074763D01*
X161033963Y-75274641D01*
X160876920Y-75509673D01*
X160768747Y-75770826D01*
X160713600Y-76048065D01*
X160713600Y-76330735D01*
X160768747Y-76607974D01*
X160876920Y-76869127D01*
X161033963Y-77104159D01*
X161233841Y-77304037D01*
X161466359Y-77459400D01*
X161233841Y-77614763D01*
X161033963Y-77814641D01*
X160876920Y-78049673D01*
X160768747Y-78310826D01*
X160713600Y-78588065D01*
X160713600Y-78870735D01*
X160768747Y-79147974D01*
X160876920Y-79409127D01*
X161033963Y-79644159D01*
X161233841Y-79844037D01*
X161466359Y-79999400D01*
X161233841Y-80154763D01*
X161033963Y-80354641D01*
X160876920Y-80589673D01*
X160768747Y-80850826D01*
X160713600Y-81128065D01*
X160713600Y-81410735D01*
X160738641Y-81536622D01*
X160629939Y-81515000D01*
X160426061Y-81515000D01*
X160226102Y-81554774D01*
X160037744Y-81632795D01*
X159868226Y-81746063D01*
X159724063Y-81890226D01*
X159610795Y-82059744D01*
X159532774Y-82248102D01*
X159493000Y-82448061D01*
X159493000Y-82651939D01*
X159532774Y-82851898D01*
X159610795Y-83040256D01*
X159724063Y-83209774D01*
X159868226Y-83353937D01*
X160037744Y-83467205D01*
X160226102Y-83545226D01*
X160426061Y-83585000D01*
X160629939Y-83585000D01*
X160734250Y-83564251D01*
X160713600Y-83668065D01*
X160713600Y-83853146D01*
X160579139Y-83826400D01*
X160375261Y-83826400D01*
X160175302Y-83866174D01*
X159986944Y-83944195D01*
X159817426Y-84057463D01*
X159673263Y-84201626D01*
X159559995Y-84371144D01*
X159481974Y-84559502D01*
X159442200Y-84759461D01*
X159442200Y-84963339D01*
X159481974Y-85163298D01*
X159559995Y-85351656D01*
X159673263Y-85521174D01*
X159817426Y-85665337D01*
X159986944Y-85778605D01*
X160175302Y-85856626D01*
X160375261Y-85896400D01*
X160579139Y-85896400D01*
X160779098Y-85856626D01*
X160803703Y-85846434D01*
X160768747Y-85930826D01*
X160713600Y-86208065D01*
X160713600Y-86490735D01*
X160768747Y-86767974D01*
X160806077Y-86858097D01*
X160693010Y-86933646D01*
X160548847Y-87077809D01*
X160435579Y-87247327D01*
X160357558Y-87435685D01*
X160317784Y-87635644D01*
X160317784Y-87839522D01*
X160357558Y-88039481D01*
X160435579Y-88227839D01*
X160548847Y-88397357D01*
X160693010Y-88541520D01*
X160747449Y-88577895D01*
X160713600Y-88748065D01*
X160713600Y-89030735D01*
X160768747Y-89307974D01*
X160876920Y-89569127D01*
X161033963Y-89804159D01*
X161233841Y-90004037D01*
X161466359Y-90159400D01*
X161233841Y-90314763D01*
X161033963Y-90514641D01*
X160876920Y-90749673D01*
X160768747Y-91010826D01*
X160713600Y-91288065D01*
X160713600Y-91570735D01*
X160768747Y-91847974D01*
X160876920Y-92109127D01*
X161033963Y-92344159D01*
X161233841Y-92544037D01*
X161466359Y-92699400D01*
X161233841Y-92854763D01*
X161033963Y-93054641D01*
X160876920Y-93289673D01*
X160768747Y-93550826D01*
X160713600Y-93828065D01*
X160713600Y-94110735D01*
X160768747Y-94387974D01*
X160876920Y-94649127D01*
X161033963Y-94884159D01*
X161233841Y-95084037D01*
X161466359Y-95239400D01*
X161233841Y-95394763D01*
X161033963Y-95594641D01*
X160876920Y-95829673D01*
X160768747Y-96090826D01*
X160713600Y-96368065D01*
X160713600Y-96650735D01*
X160768747Y-96927974D01*
X160876920Y-97189127D01*
X161033963Y-97424159D01*
X161233841Y-97624037D01*
X161466359Y-97779400D01*
X161233841Y-97934763D01*
X161033963Y-98134641D01*
X160876920Y-98369673D01*
X160768747Y-98630826D01*
X160713600Y-98908065D01*
X160713600Y-99190735D01*
X160768747Y-99467974D01*
X160876920Y-99729127D01*
X161033963Y-99964159D01*
X161233841Y-100164037D01*
X161466359Y-100319400D01*
X161233841Y-100474763D01*
X161033963Y-100674641D01*
X160876920Y-100909673D01*
X160768747Y-101170826D01*
X160713600Y-101448065D01*
X160713600Y-101730735D01*
X160768747Y-102007974D01*
X160876920Y-102269127D01*
X161033963Y-102504159D01*
X161233841Y-102704037D01*
X161330766Y-102768800D01*
X147718686Y-102768800D01*
X147763731Y-102741785D01*
X147972119Y-102552814D01*
X148139637Y-102326820D01*
X148259846Y-102072487D01*
X148300504Y-101938439D01*
X148178515Y-101716400D01*
X147035600Y-101716400D01*
X147035600Y-101736400D01*
X146781600Y-101736400D01*
X146781600Y-101716400D01*
X146761600Y-101716400D01*
X146761600Y-101462400D01*
X146781600Y-101462400D01*
X146781600Y-101442400D01*
X147035600Y-101442400D01*
X147035600Y-101462400D01*
X148178515Y-101462400D01*
X148300504Y-101240361D01*
X148259846Y-101106313D01*
X148139637Y-100851980D01*
X147972119Y-100625986D01*
X147763731Y-100437015D01*
X147577735Y-100325467D01*
X147588327Y-100321080D01*
X147823359Y-100164037D01*
X148023237Y-99964159D01*
X148180280Y-99729127D01*
X148288453Y-99467974D01*
X148343600Y-99190735D01*
X148343600Y-98908065D01*
X148288453Y-98630826D01*
X148180280Y-98369673D01*
X148023237Y-98134641D01*
X147823359Y-97934763D01*
X147590841Y-97779400D01*
X147823359Y-97624037D01*
X148023237Y-97424159D01*
X148180280Y-97189127D01*
X148288453Y-96927974D01*
X148343600Y-96650735D01*
X148343600Y-96368065D01*
X148288453Y-96090826D01*
X148180280Y-95829673D01*
X148023237Y-95594641D01*
X147823359Y-95394763D01*
X147590841Y-95239400D01*
X147823359Y-95084037D01*
X148023237Y-94884159D01*
X148180280Y-94649127D01*
X148288453Y-94387974D01*
X148343600Y-94110735D01*
X148343600Y-93828065D01*
X148288453Y-93550826D01*
X148180280Y-93289673D01*
X148023237Y-93054641D01*
X147823359Y-92854763D01*
X147590841Y-92699400D01*
X147823359Y-92544037D01*
X148023237Y-92344159D01*
X148180280Y-92109127D01*
X148288453Y-91847974D01*
X148343600Y-91570735D01*
X148343600Y-91288065D01*
X148288453Y-91010826D01*
X148180280Y-90749673D01*
X148023237Y-90514641D01*
X147823359Y-90314763D01*
X147590841Y-90159400D01*
X147823359Y-90004037D01*
X148023237Y-89804159D01*
X148180280Y-89569127D01*
X148288453Y-89307974D01*
X148343600Y-89030735D01*
X148343600Y-88748065D01*
X148288453Y-88470826D01*
X148180280Y-88209673D01*
X148023237Y-87974641D01*
X147823359Y-87774763D01*
X147590841Y-87619400D01*
X147823359Y-87464037D01*
X148023237Y-87264159D01*
X148180280Y-87029127D01*
X148288453Y-86767974D01*
X148296884Y-86725589D01*
X149563878Y-86725589D01*
X149563878Y-86929467D01*
X149603652Y-87129426D01*
X149681673Y-87317784D01*
X149794941Y-87487302D01*
X149939104Y-87631465D01*
X150108622Y-87744733D01*
X150296980Y-87822754D01*
X150483858Y-87859926D01*
X150410910Y-88036038D01*
X150371136Y-88235997D01*
X150371136Y-88439875D01*
X150410910Y-88639834D01*
X150488931Y-88828192D01*
X150602199Y-88997710D01*
X150734782Y-89130293D01*
X150648025Y-89188262D01*
X150503862Y-89332425D01*
X150390594Y-89501943D01*
X150312573Y-89690301D01*
X150272799Y-89890260D01*
X150272799Y-90094138D01*
X150312573Y-90294097D01*
X150390594Y-90482455D01*
X150503862Y-90651973D01*
X150520642Y-90668753D01*
X150434774Y-90797263D01*
X150356753Y-90985621D01*
X150316979Y-91185580D01*
X150316979Y-91389458D01*
X150356753Y-91589417D01*
X150434774Y-91777775D01*
X150441289Y-91787525D01*
X150434774Y-91797276D01*
X150356753Y-91985634D01*
X150316979Y-92185593D01*
X150316979Y-92389471D01*
X150356753Y-92589430D01*
X150434774Y-92777788D01*
X150548042Y-92947306D01*
X150692205Y-93091469D01*
X150766990Y-93141439D01*
X150766990Y-93290752D01*
X150806764Y-93490711D01*
X150884785Y-93679069D01*
X150998053Y-93848587D01*
X151142216Y-93992750D01*
X151311734Y-94106018D01*
X151500092Y-94184039D01*
X151700051Y-94223813D01*
X151903929Y-94223813D01*
X152103888Y-94184039D01*
X152292246Y-94106018D01*
X152461764Y-93992750D01*
X152605927Y-93848587D01*
X152719195Y-93679069D01*
X152797216Y-93490711D01*
X152836990Y-93290752D01*
X152836990Y-93086874D01*
X152797216Y-92886915D01*
X152719195Y-92698557D01*
X152605927Y-92529039D01*
X152461764Y-92384876D01*
X152386979Y-92334906D01*
X152386979Y-92185593D01*
X152347205Y-91985634D01*
X152269184Y-91797276D01*
X152262669Y-91787525D01*
X152269184Y-91777775D01*
X152347205Y-91589417D01*
X152386979Y-91389458D01*
X152386979Y-91185580D01*
X152347205Y-90985621D01*
X152269184Y-90797263D01*
X152155916Y-90627745D01*
X152139136Y-90610965D01*
X152179430Y-90550661D01*
X156445000Y-90550661D01*
X156445000Y-90754539D01*
X156484774Y-90954498D01*
X156562795Y-91142856D01*
X156676063Y-91312374D01*
X156820226Y-91456537D01*
X156989744Y-91569805D01*
X157178102Y-91647826D01*
X157378061Y-91687600D01*
X157581939Y-91687600D01*
X157781898Y-91647826D01*
X157970256Y-91569805D01*
X158139774Y-91456537D01*
X158283937Y-91312374D01*
X158397205Y-91142856D01*
X158475226Y-90954498D01*
X158515000Y-90754539D01*
X158515000Y-90550661D01*
X158475226Y-90350702D01*
X158397205Y-90162344D01*
X158283937Y-89992826D01*
X158139774Y-89848663D01*
X157970256Y-89735395D01*
X157781898Y-89657374D01*
X157581939Y-89617600D01*
X157378061Y-89617600D01*
X157178102Y-89657374D01*
X156989744Y-89735395D01*
X156820226Y-89848663D01*
X156676063Y-89992826D01*
X156562795Y-90162344D01*
X156484774Y-90350702D01*
X156445000Y-90550661D01*
X152179430Y-90550661D01*
X152225004Y-90482455D01*
X152303025Y-90294097D01*
X152342799Y-90094138D01*
X152342799Y-89890260D01*
X152303025Y-89690301D01*
X152225004Y-89501943D01*
X152111736Y-89332425D01*
X151979153Y-89199842D01*
X152065910Y-89141873D01*
X152210073Y-88997710D01*
X152323341Y-88828192D01*
X152401362Y-88639834D01*
X152441136Y-88439875D01*
X152441136Y-88235997D01*
X152401362Y-88036038D01*
X152330407Y-87864740D01*
X152389653Y-87776072D01*
X155117415Y-87776072D01*
X155117415Y-87979950D01*
X155157189Y-88179909D01*
X155235210Y-88368267D01*
X155348478Y-88537785D01*
X155492641Y-88681948D01*
X155662159Y-88795216D01*
X155850517Y-88873237D01*
X156050476Y-88913011D01*
X156254354Y-88913011D01*
X156454313Y-88873237D01*
X156642671Y-88795216D01*
X156812189Y-88681948D01*
X156956352Y-88537785D01*
X157069620Y-88368267D01*
X157147641Y-88179909D01*
X157187415Y-87979950D01*
X157187415Y-87776072D01*
X157147641Y-87576113D01*
X157069620Y-87387755D01*
X156956352Y-87218237D01*
X156812189Y-87074074D01*
X156642671Y-86960806D01*
X156454313Y-86882785D01*
X156254354Y-86843011D01*
X156050476Y-86843011D01*
X155850517Y-86882785D01*
X155662159Y-86960806D01*
X155492641Y-87074074D01*
X155348478Y-87218237D01*
X155235210Y-87387755D01*
X155157189Y-87576113D01*
X155117415Y-87776072D01*
X152389653Y-87776072D01*
X152439657Y-87701236D01*
X152517678Y-87512878D01*
X152557452Y-87312919D01*
X152557452Y-87109041D01*
X152517678Y-86909082D01*
X152439657Y-86720724D01*
X152326389Y-86551206D01*
X152182226Y-86407043D01*
X152012708Y-86293775D01*
X151824350Y-86215754D01*
X151624391Y-86175980D01*
X151420513Y-86175980D01*
X151409743Y-86178122D01*
X151402815Y-86167754D01*
X151258652Y-86023591D01*
X151089134Y-85910323D01*
X150900776Y-85832302D01*
X150700817Y-85792528D01*
X150496939Y-85792528D01*
X150296980Y-85832302D01*
X150108622Y-85910323D01*
X149939104Y-86023591D01*
X149794941Y-86167754D01*
X149681673Y-86337272D01*
X149603652Y-86525630D01*
X149563878Y-86725589D01*
X148296884Y-86725589D01*
X148343600Y-86490735D01*
X148343600Y-86208065D01*
X148288453Y-85930826D01*
X148180280Y-85669673D01*
X148023237Y-85434641D01*
X147823359Y-85234763D01*
X147590841Y-85079400D01*
X147823359Y-84924037D01*
X148023237Y-84724159D01*
X148180280Y-84489127D01*
X148288453Y-84227974D01*
X148343600Y-83950735D01*
X148343600Y-83668065D01*
X148288453Y-83390826D01*
X148180280Y-83129673D01*
X148072577Y-82968483D01*
X152851433Y-82968483D01*
X152851433Y-83172361D01*
X152891207Y-83372320D01*
X152969228Y-83560678D01*
X153082496Y-83730196D01*
X153226659Y-83874359D01*
X153396177Y-83987627D01*
X153584535Y-84065648D01*
X153784494Y-84105422D01*
X153988372Y-84105422D01*
X154188331Y-84065648D01*
X154376689Y-83987627D01*
X154437896Y-83946730D01*
X154390384Y-84061434D01*
X154350610Y-84261393D01*
X154350610Y-84465271D01*
X154390384Y-84665230D01*
X154468405Y-84853588D01*
X154581673Y-85023106D01*
X154725836Y-85167269D01*
X154823625Y-85232609D01*
X154823625Y-85346339D01*
X154863399Y-85546298D01*
X154941420Y-85734656D01*
X155054688Y-85904174D01*
X155198851Y-86048337D01*
X155368369Y-86161605D01*
X155556727Y-86239626D01*
X155756686Y-86279400D01*
X155960564Y-86279400D01*
X156160523Y-86239626D01*
X156348881Y-86161605D01*
X156518399Y-86048337D01*
X156662562Y-85904174D01*
X156680678Y-85877061D01*
X157623669Y-85877061D01*
X157623669Y-86080939D01*
X157663443Y-86280898D01*
X157741464Y-86469256D01*
X157854732Y-86638774D01*
X157998895Y-86782937D01*
X158168413Y-86896205D01*
X158356771Y-86974226D01*
X158556730Y-87014000D01*
X158760608Y-87014000D01*
X158960567Y-86974226D01*
X159148925Y-86896205D01*
X159318443Y-86782937D01*
X159462606Y-86638774D01*
X159575874Y-86469256D01*
X159653895Y-86280898D01*
X159693669Y-86080939D01*
X159693669Y-85877061D01*
X159653895Y-85677102D01*
X159575874Y-85488744D01*
X159462606Y-85319226D01*
X159318443Y-85175063D01*
X159148925Y-85061795D01*
X158960567Y-84983774D01*
X158760608Y-84944000D01*
X158556730Y-84944000D01*
X158356771Y-84983774D01*
X158168413Y-85061795D01*
X157998895Y-85175063D01*
X157854732Y-85319226D01*
X157741464Y-85488744D01*
X157663443Y-85677102D01*
X157623669Y-85877061D01*
X156680678Y-85877061D01*
X156775830Y-85734656D01*
X156853851Y-85546298D01*
X156893625Y-85346339D01*
X156893625Y-85142461D01*
X156853851Y-84942502D01*
X156775830Y-84754144D01*
X156662562Y-84584626D01*
X156518399Y-84440463D01*
X156420610Y-84375123D01*
X156420610Y-84261393D01*
X156380836Y-84061434D01*
X156302815Y-83873076D01*
X156189547Y-83703558D01*
X156045384Y-83559395D01*
X155875866Y-83446127D01*
X155687508Y-83368106D01*
X155487549Y-83328332D01*
X155283671Y-83328332D01*
X155083712Y-83368106D01*
X154895354Y-83446127D01*
X154834147Y-83487024D01*
X154881659Y-83372320D01*
X154921433Y-83172361D01*
X154921433Y-82968483D01*
X154881659Y-82768524D01*
X154803638Y-82580166D01*
X154690370Y-82410648D01*
X154546207Y-82266485D01*
X154376689Y-82153217D01*
X154188331Y-82075196D01*
X153988372Y-82035422D01*
X153784494Y-82035422D01*
X153584535Y-82075196D01*
X153396177Y-82153217D01*
X153226659Y-82266485D01*
X153082496Y-82410648D01*
X152969228Y-82580166D01*
X152891207Y-82768524D01*
X152851433Y-82968483D01*
X148072577Y-82968483D01*
X148023237Y-82894641D01*
X147823359Y-82694763D01*
X147590841Y-82539400D01*
X147823359Y-82384037D01*
X148023237Y-82184159D01*
X148180280Y-81949127D01*
X148288453Y-81687974D01*
X148343600Y-81410735D01*
X148343600Y-81128065D01*
X148288453Y-80850826D01*
X148247890Y-80752898D01*
X153301444Y-80752898D01*
X153301444Y-80956776D01*
X153341218Y-81156735D01*
X153419239Y-81345093D01*
X153532507Y-81514611D01*
X153676670Y-81658774D01*
X153846188Y-81772042D01*
X154034546Y-81850063D01*
X154234505Y-81889837D01*
X154438383Y-81889837D01*
X154638342Y-81850063D01*
X154826700Y-81772042D01*
X154996218Y-81658774D01*
X155140381Y-81514611D01*
X155253649Y-81345093D01*
X155331670Y-81156735D01*
X155371444Y-80956776D01*
X155371444Y-80752898D01*
X155331670Y-80552939D01*
X155253649Y-80364581D01*
X155140381Y-80195063D01*
X154996218Y-80050900D01*
X154826700Y-79937632D01*
X154638342Y-79859611D01*
X154438383Y-79819837D01*
X154234505Y-79819837D01*
X154034546Y-79859611D01*
X153846188Y-79937632D01*
X153676670Y-80050900D01*
X153532507Y-80195063D01*
X153419239Y-80364581D01*
X153341218Y-80552939D01*
X153301444Y-80752898D01*
X148247890Y-80752898D01*
X148180280Y-80589673D01*
X148023237Y-80354641D01*
X147823359Y-80154763D01*
X147590841Y-79999400D01*
X147823359Y-79844037D01*
X148023237Y-79644159D01*
X148180280Y-79409127D01*
X148257682Y-79222261D01*
X150857000Y-79222261D01*
X150857000Y-79426139D01*
X150896774Y-79626098D01*
X150974795Y-79814456D01*
X151088063Y-79983974D01*
X151232226Y-80128137D01*
X151401744Y-80241405D01*
X151590102Y-80319426D01*
X151790061Y-80359200D01*
X151993939Y-80359200D01*
X152193898Y-80319426D01*
X152382256Y-80241405D01*
X152551774Y-80128137D01*
X152695937Y-79983974D01*
X152809205Y-79814456D01*
X152887226Y-79626098D01*
X152927000Y-79426139D01*
X152927000Y-79222261D01*
X152887226Y-79022302D01*
X152809205Y-78833944D01*
X152695937Y-78664426D01*
X152551774Y-78520263D01*
X152511086Y-78493076D01*
X152651098Y-78465226D01*
X152839456Y-78387205D01*
X153008974Y-78273937D01*
X153031508Y-78251403D01*
X152954174Y-78438102D01*
X152914400Y-78638061D01*
X152914400Y-78841939D01*
X152954174Y-79041898D01*
X153032195Y-79230256D01*
X153145463Y-79399774D01*
X153289626Y-79543937D01*
X153459144Y-79657205D01*
X153647502Y-79735226D01*
X153847461Y-79775000D01*
X154051339Y-79775000D01*
X154251298Y-79735226D01*
X154439656Y-79657205D01*
X154609174Y-79543937D01*
X154753337Y-79399774D01*
X154866605Y-79230256D01*
X154944626Y-79041898D01*
X154984400Y-78841939D01*
X154984400Y-78638061D01*
X154944626Y-78438102D01*
X154866605Y-78249744D01*
X154753337Y-78080226D01*
X154609174Y-77936063D01*
X154439656Y-77822795D01*
X154251298Y-77744774D01*
X154051339Y-77705000D01*
X153847461Y-77705000D01*
X153647502Y-77744774D01*
X153459144Y-77822795D01*
X153289626Y-77936063D01*
X153267092Y-77958597D01*
X153344426Y-77771898D01*
X153384200Y-77571939D01*
X153384200Y-77368061D01*
X153344426Y-77168102D01*
X153266405Y-76979744D01*
X153153137Y-76810226D01*
X153079679Y-76736768D01*
X153117862Y-76698584D01*
X153231130Y-76529066D01*
X153309151Y-76340708D01*
X153348925Y-76140749D01*
X153348925Y-75936871D01*
X153309151Y-75736912D01*
X153231130Y-75548554D01*
X153117862Y-75379036D01*
X152973699Y-75234873D01*
X152804181Y-75121605D01*
X152615823Y-75043584D01*
X152415864Y-75003810D01*
X152211986Y-75003810D01*
X152012027Y-75043584D01*
X151823669Y-75121605D01*
X151654151Y-75234873D01*
X151509988Y-75379036D01*
X151396720Y-75548554D01*
X151318699Y-75736912D01*
X151278925Y-75936871D01*
X151278925Y-76140749D01*
X151318699Y-76340708D01*
X151396720Y-76529066D01*
X151509988Y-76698584D01*
X151583447Y-76772043D01*
X151545263Y-76810226D01*
X151431995Y-76979744D01*
X151353974Y-77168102D01*
X151314200Y-77368061D01*
X151314200Y-77571939D01*
X151353974Y-77771898D01*
X151431995Y-77960256D01*
X151545263Y-78129774D01*
X151689426Y-78273937D01*
X151730114Y-78301124D01*
X151590102Y-78328974D01*
X151401744Y-78406995D01*
X151232226Y-78520263D01*
X151088063Y-78664426D01*
X150974795Y-78833944D01*
X150896774Y-79022302D01*
X150857000Y-79222261D01*
X148257682Y-79222261D01*
X148288453Y-79147974D01*
X148343600Y-78870735D01*
X148343600Y-78588065D01*
X148288453Y-78310826D01*
X148210936Y-78123682D01*
X148409298Y-78084226D01*
X148597656Y-78006205D01*
X148767174Y-77892937D01*
X148911337Y-77748774D01*
X149024605Y-77579256D01*
X149102626Y-77390898D01*
X149142400Y-77190939D01*
X149142400Y-76987061D01*
X149102626Y-76787102D01*
X149024605Y-76598744D01*
X148911337Y-76429226D01*
X148767174Y-76285063D01*
X148597656Y-76171795D01*
X148409298Y-76093774D01*
X148343600Y-76080706D01*
X148343600Y-76048065D01*
X148288453Y-75770826D01*
X148180280Y-75509673D01*
X148135339Y-75442413D01*
X148208661Y-75456998D01*
X148412539Y-75456998D01*
X148612498Y-75417224D01*
X148800856Y-75339203D01*
X148970374Y-75225935D01*
X149114537Y-75081772D01*
X149227805Y-74912254D01*
X149305826Y-74723896D01*
X149345600Y-74523937D01*
X149345600Y-74320059D01*
X149313501Y-74158681D01*
X149685970Y-74158681D01*
X149685970Y-74362559D01*
X149725744Y-74562518D01*
X149803765Y-74750876D01*
X149917033Y-74920394D01*
X150061196Y-75064557D01*
X150230714Y-75177825D01*
X150419072Y-75255846D01*
X150619031Y-75295620D01*
X150822909Y-75295620D01*
X151022868Y-75255846D01*
X151211226Y-75177825D01*
X151380744Y-75064557D01*
X151524907Y-74920394D01*
X151638175Y-74750876D01*
X151716196Y-74562518D01*
X151755970Y-74362559D01*
X151755970Y-74162033D01*
X155375988Y-74162033D01*
X155375988Y-74365911D01*
X155415762Y-74565870D01*
X155493783Y-74754228D01*
X155607051Y-74923746D01*
X155751214Y-75067909D01*
X155920732Y-75181177D01*
X156109090Y-75259198D01*
X156309049Y-75298972D01*
X156512927Y-75298972D01*
X156712886Y-75259198D01*
X156901244Y-75181177D01*
X156928216Y-75163155D01*
X156865774Y-75313902D01*
X156826000Y-75513861D01*
X156826000Y-75717739D01*
X156865774Y-75917698D01*
X156943795Y-76106056D01*
X157057063Y-76275574D01*
X157201226Y-76419737D01*
X157370744Y-76533005D01*
X157559102Y-76611026D01*
X157759061Y-76650800D01*
X157962939Y-76650800D01*
X158162898Y-76611026D01*
X158351256Y-76533005D01*
X158520774Y-76419737D01*
X158664937Y-76275574D01*
X158778205Y-76106056D01*
X158856226Y-75917698D01*
X158896000Y-75717739D01*
X158896000Y-75513861D01*
X158856226Y-75313902D01*
X158778205Y-75125544D01*
X158664937Y-74956026D01*
X158520774Y-74811863D01*
X158351256Y-74698595D01*
X158162898Y-74620574D01*
X157962939Y-74580800D01*
X157759061Y-74580800D01*
X157559102Y-74620574D01*
X157370744Y-74698595D01*
X157343772Y-74716617D01*
X157406214Y-74565870D01*
X157445988Y-74365911D01*
X157445988Y-74162033D01*
X157406214Y-73962074D01*
X157328193Y-73773716D01*
X157214925Y-73604198D01*
X157070762Y-73460035D01*
X156901244Y-73346767D01*
X156712886Y-73268746D01*
X156512927Y-73228972D01*
X156309049Y-73228972D01*
X156109090Y-73268746D01*
X155920732Y-73346767D01*
X155751214Y-73460035D01*
X155607051Y-73604198D01*
X155493783Y-73773716D01*
X155415762Y-73962074D01*
X155375988Y-74162033D01*
X151755970Y-74162033D01*
X151755970Y-74158681D01*
X151716196Y-73958722D01*
X151694559Y-73906487D01*
X151767082Y-73797950D01*
X151833273Y-73842177D01*
X152021631Y-73920198D01*
X152221590Y-73959972D01*
X152425468Y-73959972D01*
X152625427Y-73920198D01*
X152813785Y-73842177D01*
X152983303Y-73728909D01*
X153127466Y-73584746D01*
X153240734Y-73415228D01*
X153318755Y-73226870D01*
X153358529Y-73026911D01*
X153358529Y-72823033D01*
X153346857Y-72764349D01*
X157748600Y-72764349D01*
X157748600Y-72968227D01*
X157788374Y-73168186D01*
X157866395Y-73356544D01*
X157979663Y-73526062D01*
X158123826Y-73670225D01*
X158293344Y-73783493D01*
X158481702Y-73861514D01*
X158681661Y-73901288D01*
X158885539Y-73901288D01*
X159085498Y-73861514D01*
X159273856Y-73783493D01*
X159443374Y-73670225D01*
X159587537Y-73526062D01*
X159700805Y-73356544D01*
X159778826Y-73168186D01*
X159818600Y-72968227D01*
X159818600Y-72764349D01*
X159778826Y-72564390D01*
X159700805Y-72376032D01*
X159587537Y-72206514D01*
X159443374Y-72062351D01*
X159273856Y-71949083D01*
X159085498Y-71871062D01*
X158885539Y-71831288D01*
X158681661Y-71831288D01*
X158481702Y-71871062D01*
X158293344Y-71949083D01*
X158123826Y-72062351D01*
X157979663Y-72206514D01*
X157866395Y-72376032D01*
X157788374Y-72564390D01*
X157748600Y-72764349D01*
X153346857Y-72764349D01*
X153318755Y-72623074D01*
X153240734Y-72434716D01*
X153127466Y-72265198D01*
X152983303Y-72121035D01*
X152813785Y-72007767D01*
X152625427Y-71929746D01*
X152425468Y-71889972D01*
X152221590Y-71889972D01*
X152021631Y-71929746D01*
X151833273Y-72007767D01*
X151663755Y-72121035D01*
X151519592Y-72265198D01*
X151429965Y-72399334D01*
X151363774Y-72355107D01*
X151175416Y-72277086D01*
X150975457Y-72237312D01*
X150771579Y-72237312D01*
X150571620Y-72277086D01*
X150383262Y-72355107D01*
X150213744Y-72468375D01*
X150069581Y-72612538D01*
X149956313Y-72782056D01*
X149878292Y-72970414D01*
X149838518Y-73170373D01*
X149838518Y-73374251D01*
X149878292Y-73574210D01*
X149899929Y-73626445D01*
X149803765Y-73770364D01*
X149725744Y-73958722D01*
X149685970Y-74158681D01*
X149313501Y-74158681D01*
X149305826Y-74120100D01*
X149227805Y-73931742D01*
X149114537Y-73762224D01*
X148970374Y-73618061D01*
X148800856Y-73504793D01*
X148612498Y-73426772D01*
X148412539Y-73386998D01*
X148319518Y-73386998D01*
X148288453Y-73230826D01*
X148180280Y-72969673D01*
X148023237Y-72734641D01*
X147823359Y-72534763D01*
X147590841Y-72379400D01*
X147823359Y-72224037D01*
X148023237Y-72024159D01*
X148180280Y-71789127D01*
X148288453Y-71527974D01*
X148343600Y-71250735D01*
X148343600Y-70968065D01*
X148288453Y-70690826D01*
X148180280Y-70429673D01*
X148047305Y-70230661D01*
X156826000Y-70230661D01*
X156826000Y-70434539D01*
X156865774Y-70634498D01*
X156943795Y-70822856D01*
X157057063Y-70992374D01*
X157201226Y-71136537D01*
X157370744Y-71249805D01*
X157559102Y-71327826D01*
X157759061Y-71367600D01*
X157962939Y-71367600D01*
X158162898Y-71327826D01*
X158351256Y-71249805D01*
X158520774Y-71136537D01*
X158664937Y-70992374D01*
X158778205Y-70822856D01*
X158856226Y-70634498D01*
X158896000Y-70434539D01*
X158896000Y-70230661D01*
X158856226Y-70030702D01*
X158778205Y-69842344D01*
X158664937Y-69672826D01*
X158520774Y-69528663D01*
X158351256Y-69415395D01*
X158162898Y-69337374D01*
X157962939Y-69297600D01*
X157759061Y-69297600D01*
X157559102Y-69337374D01*
X157370744Y-69415395D01*
X157201226Y-69528663D01*
X157057063Y-69672826D01*
X156943795Y-69842344D01*
X156865774Y-70030702D01*
X156826000Y-70230661D01*
X148047305Y-70230661D01*
X148023237Y-70194641D01*
X147823359Y-69994763D01*
X147590841Y-69839400D01*
X147823359Y-69684037D01*
X148023237Y-69484159D01*
X148180280Y-69249127D01*
X148288453Y-68987974D01*
X148343600Y-68710735D01*
X148343600Y-68428065D01*
X148288453Y-68150826D01*
X148180280Y-67889673D01*
X148023237Y-67654641D01*
X147823359Y-67454763D01*
X147590841Y-67299400D01*
X147823359Y-67144037D01*
X148023237Y-66944159D01*
X148180280Y-66709127D01*
X148288453Y-66447974D01*
X148343600Y-66170735D01*
X148343600Y-65888065D01*
X148288453Y-65610826D01*
X148180280Y-65349673D01*
X148023237Y-65114641D01*
X147824639Y-64916043D01*
X147833082Y-64915212D01*
X147952780Y-64878902D01*
X148063094Y-64819937D01*
X148159785Y-64740585D01*
X148239137Y-64643894D01*
X148298102Y-64533580D01*
X148334412Y-64413882D01*
X148346672Y-64289400D01*
X148346672Y-62689400D01*
X148334412Y-62564918D01*
X148298102Y-62445220D01*
X148239137Y-62334906D01*
X148159785Y-62238215D01*
X148118337Y-62204200D01*
X161501513Y-62204200D01*
X161468873Y-62217720D01*
G37*
G04 #@! TD.AperFunction*
M02*
