G04 #@! TF.GenerationSoftware,KiCad,Pcbnew,(5.1.10-1-10_14)*
G04 #@! TF.CreationDate,2021-10-29T12:58:21+02:00*
G04 #@! TF.ProjectId,soj36_to_dip,736f6a33-365f-4746-9f5f-6469702e6b69,rev?*
G04 #@! TF.SameCoordinates,Original*
G04 #@! TF.FileFunction,Legend,Top*
G04 #@! TF.FilePolarity,Positive*
%FSLAX46Y46*%
G04 Gerber Fmt 4.6, Leading zero omitted, Abs format (unit mm)*
G04 Created by KiCad (PCBNEW (5.1.10-1-10_14)) date 2021-10-29 12:58:21*
%MOMM*%
%LPD*%
G01*
G04 APERTURE LIST*
%ADD10C,0.150000*%
%ADD11C,0.120000*%
%ADD12O,1.600000X1.600000*%
%ADD13R,1.600000X1.600000*%
G04 APERTURE END LIST*
D10*
X152385780Y-89404247D02*
X153100066Y-89404247D01*
X153242923Y-89451866D01*
X153338161Y-89547104D01*
X153385780Y-89689961D01*
X153385780Y-89785200D01*
X153385780Y-88451866D02*
X153385780Y-88928057D01*
X152385780Y-88928057D01*
X153290542Y-87547104D02*
X153338161Y-87594723D01*
X153385780Y-87737580D01*
X153385780Y-87832819D01*
X153338161Y-87975676D01*
X153242923Y-88070914D01*
X153147685Y-88118533D01*
X152957209Y-88166152D01*
X152814352Y-88166152D01*
X152623876Y-88118533D01*
X152528638Y-88070914D01*
X152433400Y-87975676D01*
X152385780Y-87832819D01*
X152385780Y-87737580D01*
X152433400Y-87594723D01*
X152481019Y-87547104D01*
X152385780Y-86832819D02*
X153100066Y-86832819D01*
X153242923Y-86880438D01*
X153338161Y-86975676D01*
X153385780Y-87118533D01*
X153385780Y-87213771D01*
X153385780Y-85880438D02*
X153385780Y-86356628D01*
X152385780Y-86356628D01*
X153290542Y-84975676D02*
X153338161Y-85023295D01*
X153385780Y-85166152D01*
X153385780Y-85261390D01*
X153338161Y-85404247D01*
X153242923Y-85499485D01*
X153147685Y-85547104D01*
X152957209Y-85594723D01*
X152814352Y-85594723D01*
X152623876Y-85547104D01*
X152528638Y-85499485D01*
X152433400Y-85404247D01*
X152385780Y-85261390D01*
X152385780Y-85166152D01*
X152433400Y-85023295D01*
X152481019Y-84975676D01*
X152385780Y-84261390D02*
X153100066Y-84261390D01*
X153242923Y-84309009D01*
X153338161Y-84404247D01*
X153385780Y-84547104D01*
X153385780Y-84642342D01*
X153385780Y-83309009D02*
X153385780Y-83785200D01*
X152385780Y-83785200D01*
X153290542Y-82404247D02*
X153338161Y-82451866D01*
X153385780Y-82594723D01*
X153385780Y-82689961D01*
X153338161Y-82832819D01*
X153242923Y-82928057D01*
X153147685Y-82975676D01*
X152957209Y-83023295D01*
X152814352Y-83023295D01*
X152623876Y-82975676D01*
X152528638Y-82928057D01*
X152433400Y-82832819D01*
X152385780Y-82689961D01*
X152385780Y-82594723D01*
X152433400Y-82451866D01*
X152481019Y-82404247D01*
X152385780Y-81689961D02*
X153100066Y-81689961D01*
X153242923Y-81737580D01*
X153338161Y-81832819D01*
X153385780Y-81975676D01*
X153385780Y-82070914D01*
X153385780Y-80737580D02*
X153385780Y-81213771D01*
X152385780Y-81213771D01*
X153290542Y-79832819D02*
X153338161Y-79880438D01*
X153385780Y-80023295D01*
X153385780Y-80118533D01*
X153338161Y-80261390D01*
X153242923Y-80356628D01*
X153147685Y-80404247D01*
X152957209Y-80451866D01*
X152814352Y-80451866D01*
X152623876Y-80404247D01*
X152528638Y-80356628D01*
X152433400Y-80261390D01*
X152385780Y-80118533D01*
X152385780Y-80023295D01*
X152433400Y-79880438D01*
X152481019Y-79832819D01*
D11*
X154820252Y-70102400D02*
X154297748Y-70102400D01*
X154820252Y-68632400D02*
X154297748Y-68632400D01*
X153528600Y-62159400D02*
X148068600Y-62159400D01*
X148068600Y-62159400D02*
X148068600Y-102919400D01*
X148068600Y-102919400D02*
X160988600Y-102919400D01*
X160988600Y-102919400D02*
X160988600Y-62159400D01*
X160988600Y-62159400D02*
X155528600Y-62159400D01*
X155528600Y-62159400D02*
G75*
G02*
X153528600Y-62159400I-1000000J0D01*
G01*
X154533600Y-94394400D02*
X159723600Y-94394400D01*
X159723600Y-94394400D02*
X159723600Y-93894400D01*
X154533600Y-94394400D02*
X149343600Y-94394400D01*
X149343600Y-94394400D02*
X149343600Y-93894400D01*
X154533600Y-70684400D02*
X159723600Y-70684400D01*
X159723600Y-70684400D02*
X159723600Y-71184400D01*
X154533600Y-70684400D02*
X149343600Y-70684400D01*
X149343600Y-70684400D02*
X149343600Y-71184400D01*
X149343600Y-71184400D02*
X148983600Y-71184400D01*
%LPC*%
G36*
G01*
X154109000Y-68892400D02*
X154109000Y-69842400D01*
G75*
G02*
X153859000Y-70092400I-250000J0D01*
G01*
X153184000Y-70092400D01*
G75*
G02*
X152934000Y-69842400I0J250000D01*
G01*
X152934000Y-68892400D01*
G75*
G02*
X153184000Y-68642400I250000J0D01*
G01*
X153859000Y-68642400D01*
G75*
G02*
X154109000Y-68892400I0J-250000D01*
G01*
G37*
G36*
G01*
X156184000Y-68892400D02*
X156184000Y-69842400D01*
G75*
G02*
X155934000Y-70092400I-250000J0D01*
G01*
X155259000Y-70092400D01*
G75*
G02*
X155009000Y-69842400I0J250000D01*
G01*
X155009000Y-68892400D01*
G75*
G02*
X155259000Y-68642400I250000J0D01*
G01*
X155934000Y-68642400D01*
G75*
G02*
X156184000Y-68892400I0J-250000D01*
G01*
G37*
D12*
X162148600Y-63489400D03*
X146908600Y-101589400D03*
X162148600Y-66029400D03*
X146908600Y-99049400D03*
X162148600Y-68569400D03*
X146908600Y-96509400D03*
X162148600Y-71109400D03*
X146908600Y-93969400D03*
X162148600Y-73649400D03*
X146908600Y-91429400D03*
X162148600Y-76189400D03*
X146908600Y-88889400D03*
X162148600Y-78729400D03*
X146908600Y-86349400D03*
X162148600Y-81269400D03*
X146908600Y-83809400D03*
X162148600Y-83809400D03*
X146908600Y-81269400D03*
X162148600Y-86349400D03*
X146908600Y-78729400D03*
X162148600Y-88889400D03*
X146908600Y-76189400D03*
X162148600Y-91429400D03*
X146908600Y-73649400D03*
X162148600Y-93969400D03*
X146908600Y-71109400D03*
X162148600Y-96509400D03*
X146908600Y-68569400D03*
X162148600Y-99049400D03*
X146908600Y-66029400D03*
X162148600Y-101589400D03*
D13*
X146908600Y-63489400D03*
G36*
G01*
X158383600Y-71894400D02*
X158383600Y-71594400D01*
G75*
G02*
X158533600Y-71444400I150000J0D01*
G01*
X159933600Y-71444400D01*
G75*
G02*
X160083600Y-71594400I0J-150000D01*
G01*
X160083600Y-71894400D01*
G75*
G02*
X159933600Y-72044400I-150000J0D01*
G01*
X158533600Y-72044400D01*
G75*
G02*
X158383600Y-71894400I0J150000D01*
G01*
G37*
G36*
G01*
X158383600Y-73164400D02*
X158383600Y-72864400D01*
G75*
G02*
X158533600Y-72714400I150000J0D01*
G01*
X159933600Y-72714400D01*
G75*
G02*
X160083600Y-72864400I0J-150000D01*
G01*
X160083600Y-73164400D01*
G75*
G02*
X159933600Y-73314400I-150000J0D01*
G01*
X158533600Y-73314400D01*
G75*
G02*
X158383600Y-73164400I0J150000D01*
G01*
G37*
G36*
G01*
X158383600Y-74434400D02*
X158383600Y-74134400D01*
G75*
G02*
X158533600Y-73984400I150000J0D01*
G01*
X159933600Y-73984400D01*
G75*
G02*
X160083600Y-74134400I0J-150000D01*
G01*
X160083600Y-74434400D01*
G75*
G02*
X159933600Y-74584400I-150000J0D01*
G01*
X158533600Y-74584400D01*
G75*
G02*
X158383600Y-74434400I0J150000D01*
G01*
G37*
G36*
G01*
X158383600Y-75704400D02*
X158383600Y-75404400D01*
G75*
G02*
X158533600Y-75254400I150000J0D01*
G01*
X159933600Y-75254400D01*
G75*
G02*
X160083600Y-75404400I0J-150000D01*
G01*
X160083600Y-75704400D01*
G75*
G02*
X159933600Y-75854400I-150000J0D01*
G01*
X158533600Y-75854400D01*
G75*
G02*
X158383600Y-75704400I0J150000D01*
G01*
G37*
G36*
G01*
X158383600Y-76974400D02*
X158383600Y-76674400D01*
G75*
G02*
X158533600Y-76524400I150000J0D01*
G01*
X159933600Y-76524400D01*
G75*
G02*
X160083600Y-76674400I0J-150000D01*
G01*
X160083600Y-76974400D01*
G75*
G02*
X159933600Y-77124400I-150000J0D01*
G01*
X158533600Y-77124400D01*
G75*
G02*
X158383600Y-76974400I0J150000D01*
G01*
G37*
G36*
G01*
X158383600Y-78244400D02*
X158383600Y-77944400D01*
G75*
G02*
X158533600Y-77794400I150000J0D01*
G01*
X159933600Y-77794400D01*
G75*
G02*
X160083600Y-77944400I0J-150000D01*
G01*
X160083600Y-78244400D01*
G75*
G02*
X159933600Y-78394400I-150000J0D01*
G01*
X158533600Y-78394400D01*
G75*
G02*
X158383600Y-78244400I0J150000D01*
G01*
G37*
G36*
G01*
X158383600Y-79514400D02*
X158383600Y-79214400D01*
G75*
G02*
X158533600Y-79064400I150000J0D01*
G01*
X159933600Y-79064400D01*
G75*
G02*
X160083600Y-79214400I0J-150000D01*
G01*
X160083600Y-79514400D01*
G75*
G02*
X159933600Y-79664400I-150000J0D01*
G01*
X158533600Y-79664400D01*
G75*
G02*
X158383600Y-79514400I0J150000D01*
G01*
G37*
G36*
G01*
X158383600Y-80784400D02*
X158383600Y-80484400D01*
G75*
G02*
X158533600Y-80334400I150000J0D01*
G01*
X159933600Y-80334400D01*
G75*
G02*
X160083600Y-80484400I0J-150000D01*
G01*
X160083600Y-80784400D01*
G75*
G02*
X159933600Y-80934400I-150000J0D01*
G01*
X158533600Y-80934400D01*
G75*
G02*
X158383600Y-80784400I0J150000D01*
G01*
G37*
G36*
G01*
X158383600Y-82054400D02*
X158383600Y-81754400D01*
G75*
G02*
X158533600Y-81604400I150000J0D01*
G01*
X159933600Y-81604400D01*
G75*
G02*
X160083600Y-81754400I0J-150000D01*
G01*
X160083600Y-82054400D01*
G75*
G02*
X159933600Y-82204400I-150000J0D01*
G01*
X158533600Y-82204400D01*
G75*
G02*
X158383600Y-82054400I0J150000D01*
G01*
G37*
G36*
G01*
X158383600Y-83324400D02*
X158383600Y-83024400D01*
G75*
G02*
X158533600Y-82874400I150000J0D01*
G01*
X159933600Y-82874400D01*
G75*
G02*
X160083600Y-83024400I0J-150000D01*
G01*
X160083600Y-83324400D01*
G75*
G02*
X159933600Y-83474400I-150000J0D01*
G01*
X158533600Y-83474400D01*
G75*
G02*
X158383600Y-83324400I0J150000D01*
G01*
G37*
G36*
G01*
X158383600Y-84594400D02*
X158383600Y-84294400D01*
G75*
G02*
X158533600Y-84144400I150000J0D01*
G01*
X159933600Y-84144400D01*
G75*
G02*
X160083600Y-84294400I0J-150000D01*
G01*
X160083600Y-84594400D01*
G75*
G02*
X159933600Y-84744400I-150000J0D01*
G01*
X158533600Y-84744400D01*
G75*
G02*
X158383600Y-84594400I0J150000D01*
G01*
G37*
G36*
G01*
X158383600Y-85864400D02*
X158383600Y-85564400D01*
G75*
G02*
X158533600Y-85414400I150000J0D01*
G01*
X159933600Y-85414400D01*
G75*
G02*
X160083600Y-85564400I0J-150000D01*
G01*
X160083600Y-85864400D01*
G75*
G02*
X159933600Y-86014400I-150000J0D01*
G01*
X158533600Y-86014400D01*
G75*
G02*
X158383600Y-85864400I0J150000D01*
G01*
G37*
G36*
G01*
X158383600Y-87134400D02*
X158383600Y-86834400D01*
G75*
G02*
X158533600Y-86684400I150000J0D01*
G01*
X159933600Y-86684400D01*
G75*
G02*
X160083600Y-86834400I0J-150000D01*
G01*
X160083600Y-87134400D01*
G75*
G02*
X159933600Y-87284400I-150000J0D01*
G01*
X158533600Y-87284400D01*
G75*
G02*
X158383600Y-87134400I0J150000D01*
G01*
G37*
G36*
G01*
X158383600Y-88404400D02*
X158383600Y-88104400D01*
G75*
G02*
X158533600Y-87954400I150000J0D01*
G01*
X159933600Y-87954400D01*
G75*
G02*
X160083600Y-88104400I0J-150000D01*
G01*
X160083600Y-88404400D01*
G75*
G02*
X159933600Y-88554400I-150000J0D01*
G01*
X158533600Y-88554400D01*
G75*
G02*
X158383600Y-88404400I0J150000D01*
G01*
G37*
G36*
G01*
X158383600Y-89674400D02*
X158383600Y-89374400D01*
G75*
G02*
X158533600Y-89224400I150000J0D01*
G01*
X159933600Y-89224400D01*
G75*
G02*
X160083600Y-89374400I0J-150000D01*
G01*
X160083600Y-89674400D01*
G75*
G02*
X159933600Y-89824400I-150000J0D01*
G01*
X158533600Y-89824400D01*
G75*
G02*
X158383600Y-89674400I0J150000D01*
G01*
G37*
G36*
G01*
X158383600Y-90944400D02*
X158383600Y-90644400D01*
G75*
G02*
X158533600Y-90494400I150000J0D01*
G01*
X159933600Y-90494400D01*
G75*
G02*
X160083600Y-90644400I0J-150000D01*
G01*
X160083600Y-90944400D01*
G75*
G02*
X159933600Y-91094400I-150000J0D01*
G01*
X158533600Y-91094400D01*
G75*
G02*
X158383600Y-90944400I0J150000D01*
G01*
G37*
G36*
G01*
X158383600Y-92214400D02*
X158383600Y-91914400D01*
G75*
G02*
X158533600Y-91764400I150000J0D01*
G01*
X159933600Y-91764400D01*
G75*
G02*
X160083600Y-91914400I0J-150000D01*
G01*
X160083600Y-92214400D01*
G75*
G02*
X159933600Y-92364400I-150000J0D01*
G01*
X158533600Y-92364400D01*
G75*
G02*
X158383600Y-92214400I0J150000D01*
G01*
G37*
G36*
G01*
X158383600Y-93484400D02*
X158383600Y-93184400D01*
G75*
G02*
X158533600Y-93034400I150000J0D01*
G01*
X159933600Y-93034400D01*
G75*
G02*
X160083600Y-93184400I0J-150000D01*
G01*
X160083600Y-93484400D01*
G75*
G02*
X159933600Y-93634400I-150000J0D01*
G01*
X158533600Y-93634400D01*
G75*
G02*
X158383600Y-93484400I0J150000D01*
G01*
G37*
G36*
G01*
X148983600Y-93484400D02*
X148983600Y-93184400D01*
G75*
G02*
X149133600Y-93034400I150000J0D01*
G01*
X150533600Y-93034400D01*
G75*
G02*
X150683600Y-93184400I0J-150000D01*
G01*
X150683600Y-93484400D01*
G75*
G02*
X150533600Y-93634400I-150000J0D01*
G01*
X149133600Y-93634400D01*
G75*
G02*
X148983600Y-93484400I0J150000D01*
G01*
G37*
G36*
G01*
X148983600Y-92214400D02*
X148983600Y-91914400D01*
G75*
G02*
X149133600Y-91764400I150000J0D01*
G01*
X150533600Y-91764400D01*
G75*
G02*
X150683600Y-91914400I0J-150000D01*
G01*
X150683600Y-92214400D01*
G75*
G02*
X150533600Y-92364400I-150000J0D01*
G01*
X149133600Y-92364400D01*
G75*
G02*
X148983600Y-92214400I0J150000D01*
G01*
G37*
G36*
G01*
X148983600Y-90944400D02*
X148983600Y-90644400D01*
G75*
G02*
X149133600Y-90494400I150000J0D01*
G01*
X150533600Y-90494400D01*
G75*
G02*
X150683600Y-90644400I0J-150000D01*
G01*
X150683600Y-90944400D01*
G75*
G02*
X150533600Y-91094400I-150000J0D01*
G01*
X149133600Y-91094400D01*
G75*
G02*
X148983600Y-90944400I0J150000D01*
G01*
G37*
G36*
G01*
X148983600Y-89674400D02*
X148983600Y-89374400D01*
G75*
G02*
X149133600Y-89224400I150000J0D01*
G01*
X150533600Y-89224400D01*
G75*
G02*
X150683600Y-89374400I0J-150000D01*
G01*
X150683600Y-89674400D01*
G75*
G02*
X150533600Y-89824400I-150000J0D01*
G01*
X149133600Y-89824400D01*
G75*
G02*
X148983600Y-89674400I0J150000D01*
G01*
G37*
G36*
G01*
X148983600Y-88404400D02*
X148983600Y-88104400D01*
G75*
G02*
X149133600Y-87954400I150000J0D01*
G01*
X150533600Y-87954400D01*
G75*
G02*
X150683600Y-88104400I0J-150000D01*
G01*
X150683600Y-88404400D01*
G75*
G02*
X150533600Y-88554400I-150000J0D01*
G01*
X149133600Y-88554400D01*
G75*
G02*
X148983600Y-88404400I0J150000D01*
G01*
G37*
G36*
G01*
X148983600Y-87134400D02*
X148983600Y-86834400D01*
G75*
G02*
X149133600Y-86684400I150000J0D01*
G01*
X150533600Y-86684400D01*
G75*
G02*
X150683600Y-86834400I0J-150000D01*
G01*
X150683600Y-87134400D01*
G75*
G02*
X150533600Y-87284400I-150000J0D01*
G01*
X149133600Y-87284400D01*
G75*
G02*
X148983600Y-87134400I0J150000D01*
G01*
G37*
G36*
G01*
X148983600Y-85864400D02*
X148983600Y-85564400D01*
G75*
G02*
X149133600Y-85414400I150000J0D01*
G01*
X150533600Y-85414400D01*
G75*
G02*
X150683600Y-85564400I0J-150000D01*
G01*
X150683600Y-85864400D01*
G75*
G02*
X150533600Y-86014400I-150000J0D01*
G01*
X149133600Y-86014400D01*
G75*
G02*
X148983600Y-85864400I0J150000D01*
G01*
G37*
G36*
G01*
X148983600Y-84594400D02*
X148983600Y-84294400D01*
G75*
G02*
X149133600Y-84144400I150000J0D01*
G01*
X150533600Y-84144400D01*
G75*
G02*
X150683600Y-84294400I0J-150000D01*
G01*
X150683600Y-84594400D01*
G75*
G02*
X150533600Y-84744400I-150000J0D01*
G01*
X149133600Y-84744400D01*
G75*
G02*
X148983600Y-84594400I0J150000D01*
G01*
G37*
G36*
G01*
X148983600Y-83324400D02*
X148983600Y-83024400D01*
G75*
G02*
X149133600Y-82874400I150000J0D01*
G01*
X150533600Y-82874400D01*
G75*
G02*
X150683600Y-83024400I0J-150000D01*
G01*
X150683600Y-83324400D01*
G75*
G02*
X150533600Y-83474400I-150000J0D01*
G01*
X149133600Y-83474400D01*
G75*
G02*
X148983600Y-83324400I0J150000D01*
G01*
G37*
G36*
G01*
X148983600Y-82054400D02*
X148983600Y-81754400D01*
G75*
G02*
X149133600Y-81604400I150000J0D01*
G01*
X150533600Y-81604400D01*
G75*
G02*
X150683600Y-81754400I0J-150000D01*
G01*
X150683600Y-82054400D01*
G75*
G02*
X150533600Y-82204400I-150000J0D01*
G01*
X149133600Y-82204400D01*
G75*
G02*
X148983600Y-82054400I0J150000D01*
G01*
G37*
G36*
G01*
X148983600Y-80784400D02*
X148983600Y-80484400D01*
G75*
G02*
X149133600Y-80334400I150000J0D01*
G01*
X150533600Y-80334400D01*
G75*
G02*
X150683600Y-80484400I0J-150000D01*
G01*
X150683600Y-80784400D01*
G75*
G02*
X150533600Y-80934400I-150000J0D01*
G01*
X149133600Y-80934400D01*
G75*
G02*
X148983600Y-80784400I0J150000D01*
G01*
G37*
G36*
G01*
X148983600Y-79514400D02*
X148983600Y-79214400D01*
G75*
G02*
X149133600Y-79064400I150000J0D01*
G01*
X150533600Y-79064400D01*
G75*
G02*
X150683600Y-79214400I0J-150000D01*
G01*
X150683600Y-79514400D01*
G75*
G02*
X150533600Y-79664400I-150000J0D01*
G01*
X149133600Y-79664400D01*
G75*
G02*
X148983600Y-79514400I0J150000D01*
G01*
G37*
G36*
G01*
X148983600Y-78244400D02*
X148983600Y-77944400D01*
G75*
G02*
X149133600Y-77794400I150000J0D01*
G01*
X150533600Y-77794400D01*
G75*
G02*
X150683600Y-77944400I0J-150000D01*
G01*
X150683600Y-78244400D01*
G75*
G02*
X150533600Y-78394400I-150000J0D01*
G01*
X149133600Y-78394400D01*
G75*
G02*
X148983600Y-78244400I0J150000D01*
G01*
G37*
G36*
G01*
X148983600Y-76974400D02*
X148983600Y-76674400D01*
G75*
G02*
X149133600Y-76524400I150000J0D01*
G01*
X150533600Y-76524400D01*
G75*
G02*
X150683600Y-76674400I0J-150000D01*
G01*
X150683600Y-76974400D01*
G75*
G02*
X150533600Y-77124400I-150000J0D01*
G01*
X149133600Y-77124400D01*
G75*
G02*
X148983600Y-76974400I0J150000D01*
G01*
G37*
G36*
G01*
X148983600Y-75704400D02*
X148983600Y-75404400D01*
G75*
G02*
X149133600Y-75254400I150000J0D01*
G01*
X150533600Y-75254400D01*
G75*
G02*
X150683600Y-75404400I0J-150000D01*
G01*
X150683600Y-75704400D01*
G75*
G02*
X150533600Y-75854400I-150000J0D01*
G01*
X149133600Y-75854400D01*
G75*
G02*
X148983600Y-75704400I0J150000D01*
G01*
G37*
G36*
G01*
X148983600Y-74434400D02*
X148983600Y-74134400D01*
G75*
G02*
X149133600Y-73984400I150000J0D01*
G01*
X150533600Y-73984400D01*
G75*
G02*
X150683600Y-74134400I0J-150000D01*
G01*
X150683600Y-74434400D01*
G75*
G02*
X150533600Y-74584400I-150000J0D01*
G01*
X149133600Y-74584400D01*
G75*
G02*
X148983600Y-74434400I0J150000D01*
G01*
G37*
G36*
G01*
X148983600Y-73164400D02*
X148983600Y-72864400D01*
G75*
G02*
X149133600Y-72714400I150000J0D01*
G01*
X150533600Y-72714400D01*
G75*
G02*
X150683600Y-72864400I0J-150000D01*
G01*
X150683600Y-73164400D01*
G75*
G02*
X150533600Y-73314400I-150000J0D01*
G01*
X149133600Y-73314400D01*
G75*
G02*
X148983600Y-73164400I0J150000D01*
G01*
G37*
G36*
G01*
X148983600Y-71894400D02*
X148983600Y-71594400D01*
G75*
G02*
X149133600Y-71444400I150000J0D01*
G01*
X150533600Y-71444400D01*
G75*
G02*
X150683600Y-71594400I0J-150000D01*
G01*
X150683600Y-71894400D01*
G75*
G02*
X150533600Y-72044400I-150000J0D01*
G01*
X149133600Y-72044400D01*
G75*
G02*
X148983600Y-71894400I0J150000D01*
G01*
G37*
M02*
